<?xml version="1.0" encoding="UTF-8"?>
<svg width="105px" height="55px" viewBox="0 0 105 55" version="1.1" xmlns="http://www.w3.org/2000/svg" xmlns:xlink="http://www.w3.org/1999/xlink">
    <title>utils.broadcast-channel</title>
    <g id="nora" stroke="none" stroke-width="1" fill="none" fill-rule="evenodd">
        <g id="-构件概览图九" transform="translate(-960.000000, -307.000000)">
            <g id="utils.broadcast-channel" transform="translate(960.000000, 307.000000)">
                <rect id="矩形" x="0" y="0" width="105" height="55" rx="4"></rect>
                <g id="新闻广播机构" transform="translate(35.000000, 11.000000)" fill="#778DC3">
                    <path d="M19.6755233,13.5584918 L19.9830355,13.7846459 L26.9504444,32.4973717 L23.1782233,32.4973717 L21.2919335,30.3415608 L13.0285291,30.3415608 L11.1422393,32.4973717 L7.37001818,32.4973717 L14.3374271,13.7846459 L14.6452977,13.5584918 L15.2610389,13.7846459 L15.5305601,14.3283475 L18.7899025,14.3283475 L19.0594237,13.7846459 L19.6755233,13.5584918 Z M19.2518876,25.5299628 L15.0689334,25.5299628 L12.9901797,27.3391953 L21.3306413,27.3391953 L19.2518876,25.5299628 Z M17.1605897,15.5985377 L14.4915416,23.9131941 L19.828921,23.9131941 L17.1605897,15.5985377 Z M3.73076554,1.77635684e-15 C4.73458773,0.000197917119 5.54824144,0.814012084 5.54824142,1.81783429 C5.54836897,2.32501825 5.33564565,2.80897681 4.96188951,3.15182071 C1.00974863,8.68954892 5.08159706,14.1541623 5.08159706,14.1541623 C5.3823053,14.486814 5.54873527,14.919302 5.54859991,15.3677244 C5.54850478,15.8496539 5.35696787,16.3118071 5.01612502,16.6525155 C4.67528218,16.9932239 4.21305347,17.1844834 3.73112395,17.1844834 C3.10914408,17.1844834 2.5304794,16.8660097 2.19786392,16.3404377 L2.19786392,16.3404377 C-2.74598586,8.53901845 2.19678869,0.846554542 2.19678869,0.846554542 C2.52894201,0.31980802 3.10803954,0.00022194224 3.73076554,1.77635684e-15 Z M31.2692345,0 C31.9154401,0 32.4817213,0.339051919 32.8032113,0.846554542 C32.8032113,0.846554542 37.7459859,8.53901845 32.8032113,16.341513 L32.8021361,16.3404377 C32.4695409,16.8658513 31.8910696,17.1844834 31.2692345,17.1844834 C30.7873049,17.1844834 30.3250762,16.9932239 29.9842334,16.6525155 C29.6433905,16.3118071 29.4518536,15.8496539 29.4517576,15.3677244 C29.4512801,14.9192384 29.617756,14.4866313 29.9187613,14.1541623 C29.9187613,14.1541623 33.9906098,8.68954892 30.0384689,3.15182071 C29.6646169,2.80901389 29.4517576,2.32506384 29.4517576,1.81783429 C29.4519564,0.814094017 30.2654942,0.000395704428 31.2692345,0 Z M9.46669214,3.16938258 C10.2290213,3.16938258 10.8469137,3.6718675 10.8469137,4.29226798 C10.8469137,4.61841726 10.6752365,4.91123481 10.4017729,5.11624295 C7.39976586,8.53758481 10.4924496,11.9130508 10.4924496,11.9130508 C10.7128692,12.111966 10.8472713,12.3746774 10.8469137,12.6614021 C10.8469137,13.2818026 10.2297381,13.7842875 9.46669214,13.7842875 C8.97603457,13.7842875 8.54738124,13.5764122 8.30259007,13.2635239 L8.30259007,13.2635239 C4.54757235,8.44368252 8.30151484,3.69229666 8.30151484,3.69229666 C8.54630601,3.37869159 8.97567616,3.16938258 9.46669214,3.16938258 Z M25.5336663,3.16938258 C26.0246822,3.16938258 26.4540524,3.37869159 26.699202,3.69229666 C26.699202,3.69229666 30.4527861,8.44368252 26.699202,13.2635239 L26.6977683,13.2635239 C26.4529772,13.5764122 26.0239654,13.7842875 25.5336663,13.7842875 C24.7706203,13.7842875 24.1534448,13.2818026 24.1534448,12.6614021 C24.1530871,12.3746774 24.2871308,12.111966 24.5075504,11.9130508 C24.5075504,11.9130508 27.6002342,8.53758481 24.5982271,5.11624295 C24.3247635,4.91123481 24.1534448,4.61841726 24.1534448,4.29226798 C24.1534448,3.6718675 24.7713371,3.16938258 25.5336663,3.16938258 Z M15.3637221,5.48077576 C16.4754059,4.83894484 17.8450567,4.83894484 18.9567404,5.48077576 C20.0684242,6.12260668 20.7532495,7.30875912 20.7532495,8.59242094 C20.7532495,10.5767901 19.1446005,12.1854392 17.1602313,12.1854392 C15.1758621,12.1854392 13.567213,10.5767901 13.567213,8.59242094 C13.567213,7.30875912 14.2520384,6.12260668 15.3637221,5.48077576 Z" id="形状结合"></path>
                </g>
            </g>
        </g>
    </g>
</svg>