<?xml version="1.0" encoding="UTF-8"?>
<svg width="105px" height="55px" viewBox="0 0 105 55" version="1.1" xmlns="http://www.w3.org/2000/svg" xmlns:xlink="http://www.w3.org/1999/xlink">
    <title>utils.general-clipboard</title>
    <g id="nora" stroke="none" stroke-width="1" fill="none" fill-rule="evenodd">
        <g id="-构件概览图九" transform="translate(-960.000000, -202.000000)">
            <g id="utils.general-clipboard" transform="translate(960.000000, 202.000000)">
                <rect id="矩形" x="0" y="0" width="105" height="55" rx="4"></rect>
                <g id="剪切-剪刀_剪贴板操作_jurassic" transform="translate(36.000000, 10.000000)">
                    <path d="M18.5039063,12.6679688 L25.28125,3.0859375 C25.90625,2.00390625 25.5351563,0.625 24.453125,0 L16.25,9.93359375 L8.046875,0 C6.9609375,0.625 6.58984375,2.00390625 7.21875,3.0859375 L13.9960938,12.6679688 L6.9140625,21.2460938 L10.6601563,23.59375 L13.0625,20.3632812 L16.25,15.8554687 L19.4375,20.3632812 L21.8398438,23.59375 L25.5859375,21.2460938 L18.5039063,12.6679688 Z" id="路径" fill="#778DC3"></path>
                    <path d="M6.9140625,21.171875 C3.1015625,21.171875 0,24.2734375 0,28.0859375 C0,31.8984375 3.1015625,35 6.9140625,35 C10.7265625,35 13.828125,31.8984375 13.828125,28.0859375 C13.828125,24.2734375 10.7265625,21.171875 6.9140625,21.171875 Z M6.953125,32.5 C4.51953125,32.5 2.5390625,30.5195312 2.5390625,28.0859375 C2.5390625,25.6523438 4.51953125,23.671875 6.953125,23.671875 C9.38671875,23.671875 11.3671875,25.6523438 11.3671875,28.0859375 C11.3671875,30.5195312 9.38671875,32.5 6.953125,32.5 Z M25.5859375,21.171875 C21.7734375,21.171875 18.671875,24.2734375 18.671875,28.0859375 C18.671875,31.8984375 21.7734375,35 25.5859375,35 C29.3984375,35 32.5,31.8984375 32.5,28.0859375 C32.5,24.2734375 29.3984375,21.171875 25.5859375,21.171875 Z M25.5859375,32.5 C23.1523438,32.5 21.171875,30.5195312 21.171875,28.0859375 C21.171875,25.6523438 23.1523438,23.671875 25.5859375,23.671875 C28.0195312,23.671875 30,25.6523438 30,28.0859375 C30,30.5195312 28.0195312,32.5 25.5859375,32.5 Z" id="形状" fill="#1A7AFF"></path>
                </g>
            </g>
        </g>
    </g>
</svg>