<?xml version="1.0" encoding="UTF-8"?>
<svg width="105px" height="55px" viewBox="0 0 105 55" version="1.1" xmlns="http://www.w3.org/2000/svg" xmlns:xlink="http://www.w3.org/1999/xlink">
    <title>forms.crontab-input</title>
    <g id="nora" stroke="none" stroke-width="1" fill="none" fill-rule="evenodd">
        <g id="-构件概览图五" transform="translate(-789.000000, -103.000000)">
            <g id="forms.crontab-input" transform="translate(789.000000, 103.000000)">
                <rect id="矩形备份-46" x="0" y="0" width="105" height="55" rx="4"></rect>
                <g id="编组-16" transform="translate(6.000000, 15.000000)">
                    <rect id="矩形备份-49" fill="#F4F5F9" x="0" y="0" width="93" height="24" rx="1"></rect>
                    <rect id="矩形" stroke="#D6DBEC" x="4.5" y="12.5" width="17" height="7" rx="1"></rect>
                    <rect id="矩形备份-41" stroke="#D6DBEC" x="27.5" y="12.5" width="17" height="7" rx="1"></rect>
                    <rect id="矩形备份-42" stroke="#D6DBEC" x="49.5" y="12.5" width="17" height="7" rx="1"></rect>
                    <rect id="矩形备份-44" stroke="#D6DBEC" x="72.5" y="12.5" width="17" height="7" rx="1"></rect>
                    <g id="编组-12备份-3" transform="translate(4.000000, 4.000000)" fill="#778DC3">
                        <rect id="矩形备份-48" x="0" y="0" width="1.22222222" height="5"></rect>
                        <rect id="矩形备份-54" x="2.44444444" y="0" width="1.22222222" height="5"></rect>
                        <rect id="矩形备份-57" x="9.77777778" y="0" width="1.22222222" height="5"></rect>
                        <rect id="矩形备份-68" x="4.88888889" y="0" width="1.22222222" height="5"></rect>
                        <rect id="矩形备份-69" x="7.33333333" y="0" width="1.22222222" height="5"></rect>
                    </g>
                    <g id="编组-12备份-4" transform="translate(27.000000, 4.000000)" fill="#778DC3">
                        <rect id="矩形备份-48" x="0" y="0" width="1.22222222" height="5"></rect>
                        <rect id="矩形备份-54" x="2.44444444" y="0" width="1.22222222" height="5"></rect>
                        <rect id="矩形备份-57" x="9.77777778" y="0" width="1.22222222" height="5"></rect>
                        <rect id="矩形备份-68" x="4.88888889" y="0" width="1.22222222" height="5"></rect>
                        <rect id="矩形备份-69" x="7.33333333" y="0" width="1.22222222" height="5"></rect>
                    </g>
                    <g id="编组-12备份-5" transform="translate(49.000000, 4.000000)" fill="#778DC3">
                        <rect id="矩形备份-48" x="0" y="0" width="1.22222222" height="5"></rect>
                        <rect id="矩形备份-54" x="2.44444444" y="0" width="1.22222222" height="5"></rect>
                        <rect id="矩形备份-57" x="9.77777778" y="0" width="1.22222222" height="5"></rect>
                        <rect id="矩形备份-68" x="4.88888889" y="0" width="1.22222222" height="5"></rect>
                        <rect id="矩形备份-69" x="7.33333333" y="0" width="1.22222222" height="5"></rect>
                    </g>
                    <g id="编组-12备份-6" transform="translate(72.000000, 4.000000)" fill="#778DC3">
                        <rect id="矩形备份-48" x="0" y="0" width="1.22222222" height="5"></rect>
                        <rect id="矩形备份-54" x="2.44444444" y="0" width="1.22222222" height="5"></rect>
                        <rect id="矩形备份-57" x="9.77777778" y="0" width="1.22222222" height="5"></rect>
                        <rect id="矩形备份-68" x="4.88888889" y="0" width="1.22222222" height="5"></rect>
                        <rect id="矩形备份-69" x="7.33333333" y="0" width="1.22222222" height="5"></rect>
                    </g>
                </g>
            </g>
        </g>
    </g>
</svg>