<?xml version="1.0" encoding="UTF-8"?>
<svg width="105px" height="61px" viewBox="0 0 105 61" version="1.1" xmlns="http://www.w3.org/2000/svg" xmlns:xlink="http://www.w3.org/1999/xlink">
    <title>presentational-bricks.copyable-text</title>
    <defs>
        <rect id="path-1" x="0" y="14" width="69" height="29" rx="1"></rect>
        <filter x="-20.3%" y="-34.5%" width="140.6%" height="196.6%" filterUnits="objectBoundingBox" id="filter-2">
            <feOffset dx="0" dy="4" in="SourceAlpha" result="shadowOffsetOuter1"></feOffset>
            <feGaussianBlur stdDeviation="4" in="shadowOffsetOuter1" result="shadowBlurOuter1"></feGaussianBlur>
            <feColorMatrix values="0 0 0 0 0.6   0 0 0 0 0.6   0 0 0 0 0.6  0 0 0 0.5 0" type="matrix" in="shadowBlurOuter1"></feColorMatrix>
        </filter>
    </defs>
    <g id="nora" stroke="none" stroke-width="1" fill="none" fill-rule="evenodd">
        <g id="-构件概览图五" transform="translate(-401.000000, -232.000000)">
            <g id="presentational-bricks.copyable-text" transform="translate(401.000000, 232.000000)">
                <rect id="矩形备份-46" x="0" y="0" width="105" height="55" rx="4"></rect>
                <g id="编组-15" transform="translate(18.000000, 6.000000)">
                    <g id="矩形备份-77">
                        <use fill="black" fill-opacity="1" filter="url(#filter-2)" xlink:href="#path-1"></use>
                        <use fill="#FFFFFF" fill-rule="evenodd" xlink:href="#path-1"></use>
                    </g>
                    <g id="编组备份" transform="translate(1.000000, 0.000000)">
                        <rect id="矩形备份-76" stroke="#F4F5F9" x="-0.5" y="-0.5" width="69" height="11" rx="1"></rect>
                        <polyline id="路径-2" stroke="#778DC3" stroke-linecap="round" stroke-linejoin="round" transform="translate(61.000000, 5.000000) rotate(-180.000000) translate(-61.000000, -5.000000) " points="58 3.26315789 61.1578947 6.73684211 64 3.26315789"></polyline>
                    </g>
                    <g id="编组-12备份-6" transform="translate(4.000000, 2.000000)" fill="#778DC3">
                        <rect id="矩形备份-48" x="0" y="0" width="1" height="6"></rect>
                        <rect id="矩形备份-73" x="10" y="0" width="1" height="6"></rect>
                        <rect id="矩形备份-80" x="20" y="0" width="1" height="6"></rect>
                        <rect id="矩形备份-54" x="2" y="0" width="1" height="6"></rect>
                        <rect id="矩形备份-74" x="12" y="0" width="1" height="6"></rect>
                        <rect id="矩形备份-81" x="22" y="0" width="1" height="6"></rect>
                        <rect id="矩形备份-57" x="8" y="0" width="1" height="6"></rect>
                        <rect id="矩形备份-75" x="18" y="0" width="1" height="6"></rect>
                        <rect id="矩形备份-82" x="28" y="0" width="1" height="6"></rect>
                        <rect id="矩形备份-68" x="4" y="0" width="1" height="6"></rect>
                        <rect id="矩形备份-78" x="14" y="0" width="1" height="6"></rect>
                        <rect id="矩形备份-83" x="24" y="0" width="1" height="6"></rect>
                        <rect id="矩形备份-69" x="6" y="0" width="1" height="6"></rect>
                        <rect id="矩形备份-79" x="16" y="0" width="1" height="6"></rect>
                        <rect id="矩形备份-88" x="26" y="0" width="1" height="6"></rect>
                    </g>
                    <g id="编组-6" transform="translate(5.000000, 18.000000)">
                        <g id="编组-4">
                            <g id="编组-3" transform="translate(12.000000, 0.000000)" fill="#778DC3">
                                <rect id="矩形备份-76" x="0" y="0" width="1" height="4"></rect>
                                <rect id="矩形备份-90" x="2" y="0" width="1" height="4"></rect>
                                <rect id="矩形备份-91" x="4" y="0" width="1" height="4"></rect>
                                <rect id="矩形备份-92" x="6" y="0" width="1" height="4"></rect>
                                <rect id="矩形备份-93" x="8" y="0" width="1" height="4"></rect>
                                <rect id="矩形备份-94" x="10" y="0" width="1" height="4"></rect>
                                <rect id="矩形备份-95" x="12" y="0" width="1" height="4"></rect>
                                <rect id="矩形备份-96" x="14" y="0" width="1" height="4"></rect>
                                <rect id="矩形备份-97" x="16" y="0" width="1" height="4"></rect>
                                <rect id="矩形备份-98" x="18" y="0" width="1" height="4"></rect>
                                <rect id="矩形备份-99" x="20" y="0" width="1" height="4"></rect>
                                <rect id="矩形备份-100" x="22" y="0" width="1" height="4"></rect>
                                <rect id="矩形备份-101" x="24" y="0" width="1" height="4"></rect>
                                <rect id="矩形备份-102" x="26" y="0" width="1" height="4"></rect>
                            </g>
                            <g id="编组-11" transform="translate(12.136364, 7.500000)" fill="#D6DBEC">
                                <g id="编组-5" transform="translate(9.863636, 0.500000)">
                                    <rect id="矩形备份-76" x="0" y="0" width="1" height="4"></rect>
                                    <rect id="矩形备份-90" x="2" y="0" width="1" height="4"></rect>
                                    <rect id="矩形备份-91" x="4" y="0" width="1" height="4"></rect>
                                    <rect id="矩形备份-92" x="6" y="0" width="1" height="4"></rect>
                                    <rect id="矩形备份-93" x="8" y="0" width="1" height="4"></rect>
                                    <rect id="矩形备份-94" x="10" y="0" width="1" height="4"></rect>
                                    <rect id="矩形备份-95" x="12" y="0" width="1" height="4"></rect>
                                    <rect id="矩形备份-96" x="14" y="0" width="1" height="4"></rect>
                                    <rect id="矩形备份-97" x="16" y="0" width="1" height="4"></rect>
                                    <rect id="矩形备份-98" x="18" y="0" width="1" height="4"></rect>
                                    <rect id="矩形备份-99" x="20" y="0" width="1" height="4"></rect>
                                    <rect id="矩形备份-100" x="22" y="0" width="1" height="4"></rect>
                                    <rect id="矩形备份-101" x="24" y="0" width="1" height="4"></rect>
                                    <rect id="矩形备份-102" x="26" y="0" width="1" height="4"></rect>
                                    <rect id="矩形备份-103" x="28" y="0" width="1" height="4"></rect>
                                </g>
                                <path d="M1.73221343,1.53844771 L3.09559591,3.02577405 C3.28219211,3.22933354 3.26844065,3.54561723 3.06488115,3.73221343 C2.97266624,3.81674377 2.85211467,3.86363636 2.72701884,3.86363636 L0.000253888474,3.86363636 C-0.275888486,3.86363636 -0.499746112,3.63977874 -0.499746112,3.36363636 C-0.499746112,3.23854053 -0.452853518,3.11798896 -0.368323182,3.02577405 L0.995059294,1.53844771 C1.1816555,1.33488822 1.49793918,1.32113675 1.70149868,1.50773296 C1.71217703,1.51752144 1.72242495,1.52776936 1.73221343,1.53844771 Z" id="三角形备份" transform="translate(1.363636, 2.500000) rotate(-270.000000) translate(-1.363636, -2.500000) "></path>
                                <path d="M6.96363636,0.5 L4.76363636,0.5 C4.26658009,0.5 3.86363636,0.902943725 3.86363636,1.4 L3.86363636,3.6 C3.86363636,4.09705627 4.26658009,4.5 4.76363636,4.5 L6.96363636,4.5 C7.46069264,4.5 7.86363636,4.09705627 7.86363636,3.6 L7.86363636,1.4 C7.86363636,0.902943725 7.46069264,0.5 6.96363636,0.5 Z M7.24238636,1.8805 L5.75338636,3.36925 L5.74738636,3.37475 L5.74088636,3.3805 L5.73338636,3.386 L5.72638636,3.391 L5.71863636,3.39575 L5.71138636,3.4 L5.70313636,3.404 L5.69563636,3.4075 L5.68688636,3.41075 L5.67938636,3.4135 L5.67038636,3.41575 L5.66288636,3.4175 L5.65338636,3.419 L5.61188636,3.419 L5.60213636,3.41775 L5.59513636,3.41775 L5.58538636,3.4155 L5.57863636,3.41375 L5.56888636,3.4105 L5.56238636,3.40825 L5.55288636,3.40375 L5.54663636,3.40075 L5.53713636,3.39525 L5.53138636,3.392 C5.52788636,3.38975 5.52463636,3.38725 5.52138636,3.38475 L5.51688636,3.3815 C5.51218674,3.37773039 5.50768097,3.37372526 5.50338636,3.3695 L4.71363636,2.5795 C4.68013848,2.54604923 4.66148234,2.50054408 4.66185284,2.45320571 C4.66223449,2.40586735 4.68161125,2.36066434 4.71563636,2.32775 C4.78757094,2.26115609 4.89947697,2.26403969 4.96788636,2.33425 L5.62863636,2.99475 L6.99263636,1.63075 C7.03729456,1.5860918 7.10238531,1.56865079 7.16338954,1.58499682 C7.22439377,1.60134286 7.2720435,1.64899259 7.28838954,1.70999682 C7.30473557,1.77100106 7.28729456,1.8360918 7.24263636,1.88075 L7.24238636,1.8805 Z" id="形状备份"></path>
                            </g>
                            <path d="M2.86857707,1.40208408 L4.23195955,2.88941041 C4.41855575,3.09296991 4.40480428,3.40925359 4.20124479,3.5958498 C4.10902988,3.68038013 3.98847831,3.72727273 3.86338248,3.72727273 L1.13661752,3.72727273 C0.86047515,3.72727273 0.636617525,3.5034151 0.636617525,3.22727273 C0.636617525,3.10217689 0.683510118,2.98162533 0.768040455,2.88941041 L2.13142293,1.40208408 C2.31801913,1.19852458 2.63430282,1.18477312 2.83786231,1.37136932 C2.84854066,1.38115781 2.85878858,1.39140573 2.86857707,1.40208408 Z" id="三角形" fill="#D6DBEC" transform="translate(2.500000, 2.363636) rotate(-180.000000) translate(-2.500000, -2.363636) "></path>
                            <path d="M9.1,0 L6.9,0 C6.40294373,0 6,0.402943725 6,0.9 L6,3.1 C6,3.59705627 6.40294373,4 6.9,4 L9.1,4 C9.59705627,4 10,3.59705627 10,3.1 L10,0.9 C10,0.402943725 9.59705627,0 9.1,0 Z M9.37875,1.3805 L7.88975,2.86925 L7.88375,2.87475 L7.87725,2.8805 L7.86975,2.886 L7.86275,2.891 L7.855,2.89575 L7.84775,2.9 L7.8395,2.904 L7.832,2.9075 L7.82325,2.91075 L7.81575,2.9135 L7.80675,2.91575 L7.79925,2.9175 L7.78975,2.919 L7.74825,2.919 L7.7385,2.91775 L7.7315,2.91775 L7.72175,2.9155 L7.715,2.91375 L7.70525,2.9105 L7.69875,2.90825 L7.68925,2.90375 L7.683,2.90075 L7.6735,2.89525 L7.66775,2.892 C7.66425,2.88975 7.661,2.88725 7.65775,2.88475 L7.65325,2.8815 C7.64855037,2.87773039 7.64404461,2.87372526 7.63975,2.8695 L6.85,2.0795 C6.81650211,2.04604923 6.79784598,2.00054408 6.79821648,1.95320571 C6.79859813,1.90586735 6.81797488,1.86066434 6.852,1.82775 C6.92393458,1.76115609 7.0358406,1.76403969 7.10425,1.83425 L7.765,2.49475 L9.129,1.13075 C9.1736582,1.0860918 9.23874894,1.06865079 9.29975318,1.08499682 C9.36075741,1.10134286 9.40840714,1.14899259 9.42475318,1.20999682 C9.44109921,1.27100106 9.4236582,1.3360918 9.379,1.38075 L9.37875,1.3805 Z" id="形状" fill="#1A7AFF"></path>
                        </g>
                        <g id="编组-4备份" transform="translate(2.136364, 15.500000)">
                            <g id="编组-5" transform="translate(9.863636, 0.500000)" fill="#D6DBEC">
                                <rect id="矩形备份-76" x="0" y="0" width="1" height="4"></rect>
                                <rect id="矩形备份-90" x="2" y="0" width="1" height="4"></rect>
                                <rect id="矩形备份-91" x="4" y="0" width="1" height="4"></rect>
                                <rect id="矩形备份-92" x="6" y="0" width="1" height="4"></rect>
                                <rect id="矩形备份-93" x="8" y="0" width="1" height="4"></rect>
                                <rect id="矩形备份-94" x="10" y="0" width="1" height="4"></rect>
                                <rect id="矩形备份-95" x="12" y="0" width="1" height="4"></rect>
                                <rect id="矩形备份-96" x="14" y="0" width="1" height="4"></rect>
                                <rect id="矩形备份-97" x="16" y="0" width="1" height="4"></rect>
                                <rect id="矩形备份-98" x="18" y="0" width="1" height="4"></rect>
                            </g>
                            <path d="M1.73221343,1.53844771 L3.09559591,3.02577405 C3.28219211,3.22933354 3.26844065,3.54561723 3.06488115,3.73221343 C2.97266624,3.81674377 2.85211467,3.86363636 2.72701884,3.86363636 L0.000253888474,3.86363636 C-0.275888486,3.86363636 -0.499746112,3.63977874 -0.499746112,3.36363636 C-0.499746112,3.23854053 -0.452853518,3.11798896 -0.368323182,3.02577405 L0.995059294,1.53844771 C1.1816555,1.33488822 1.49793918,1.32113675 1.70149868,1.50773296 C1.71217703,1.51752144 1.72242495,1.52776936 1.73221343,1.53844771 Z" id="三角形备份" fill="#D6DBEC" transform="translate(1.363636, 2.500000) rotate(-270.000000) translate(-1.363636, -2.500000) "></path>
                            <path d="M6.96363636,1 L7.36363636,3.6 L4.76363636,4 L4.36363636,1.4 L6.96363636,1 Z" id="路径" stroke="#D6DBEC"></path>
                        </g>
                    </g>
                </g>
            </g>
        </g>
    </g>
</svg>