<?xml version="1.0" encoding="UTF-8"?>
<svg width="105px" height="63px" viewBox="0 0 105 63" version="1.1" xmlns="http://www.w3.org/2000/svg" xmlns:xlink="http://www.w3.org/1999/xlink">
    <title>forms.general-structs-form-item</title>
    <defs>
        <rect id="path-1" x="0" y="0" width="80" height="47" rx="1"></rect>
        <filter x="-17.5%" y="-21.3%" width="135.0%" height="159.6%" filterUnits="objectBoundingBox" id="filter-2">
            <feOffset dx="0" dy="4" in="SourceAlpha" result="shadowOffsetOuter1"></feOffset>
            <feGaussianBlur stdDeviation="4" in="shadowOffsetOuter1" result="shadowBlurOuter1"></feGaussianBlur>
            <feColorMatrix values="0 0 0 0 0.6   0 0 0 0 0.6   0 0 0 0 0.6  0 0 0 0.5 0" type="matrix" in="shadowBlurOuter1"></feColorMatrix>
        </filter>
    </defs>
    <g id="nora" stroke="none" stroke-width="1" fill="none" fill-rule="evenodd">
        <g id="-构件概览图五" transform="translate(-1316.000000, -103.000000)">
            <g id="forms.general-structs-form-item" transform="translate(1316.000000, 103.000000)">
                <rect id="矩形备份-46" x="0" y="0" width="105" height="55" rx="4"></rect>
                <g id="编组-2备份" transform="translate(13.000000, 4.000000)">
                    <g id="矩形">
                        <use fill="black" fill-opacity="1" filter="url(#filter-2)" xlink:href="#path-1"></use>
                        <use fill="#FFFFFF" fill-rule="evenodd" xlink:href="#path-1"></use>
                    </g>
                    <g id="编组" transform="translate(70.000000, 2.000000)" fill="#778DC3" fill-rule="nonzero">
                        <path d="M5.66256257,3.70710678 L0.337437429,3.70710678 C-0.142696805,3.70710678 -0.535533906,3.38890873 -0.535533906,3 C-0.535533906,2.61109127 -0.142696805,2.29289322 0.337437429,2.29289322 L5.66256257,2.29289322 C6.14269681,2.29289322 6.53553391,2.61109127 6.53553391,3 C6.53553391,3.38890873 6.14269681,3.70710678 5.66256257,3.70710678 Z" id="路径" transform="translate(3.000000, 3.000000) rotate(-45.000000) translate(-3.000000, -3.000000) "></path>
                        <path d="M3.70710678,0.337437429 L3.70710678,5.66256257 C3.70710678,6.14269681 3.38890873,6.53553391 3,6.53553391 C2.61109127,6.53553391 2.29289322,6.14269681 2.29289322,5.66256257 L2.29289322,0.337437429 C2.29289322,-0.142696805 2.61109127,-0.535533906 3,-0.535533906 C3.38890873,-0.535533906 3.70710678,-0.142696805 3.70710678,0.337437429 Z" id="形状" transform="translate(3.000000, 3.000000) rotate(-45.000000) translate(-3.000000, -3.000000) "></path>
                    </g>
                    <g id="编组-37" transform="translate(7.000000, 14.500000)" stroke="#F24C25" stroke-linecap="round" stroke-linejoin="round" stroke-width="0.5">
                        <line x1="0" y1="0.94647481" x2="2.30106813" y2="0.94647481" id="路径-34"></line>
                        <line x1="1.92519508" y1="-3.79437258e-17" x2="0.430221006" y2="2" id="路径-35"></line>
                        <line x1="0.430221006" y1="-4.48348472e-17" x2="1.92519508" y2="2" id="路径-36"></line>
                    </g>
                    <g id="编组-37备份-2" transform="translate(7.000000, 21.800000)" stroke="#F24C25" stroke-linecap="round" stroke-linejoin="round" stroke-width="0.5">
                        <line x1="0" y1="0.94647481" x2="2.30106813" y2="0.94647481" id="路径-34"></line>
                        <line x1="1.92519508" y1="-3.79437258e-17" x2="0.430221006" y2="2" id="路径-35"></line>
                        <line x1="0.430221006" y1="-4.48348472e-17" x2="1.92519508" y2="2" id="路径-36"></line>
                    </g>
                    <g id="编组-37备份-3" transform="translate(7.000000, 28.800000)" stroke="#F24C25" stroke-linecap="round" stroke-linejoin="round" stroke-width="0.5">
                        <line x1="0" y1="0.94647481" x2="2.30106813" y2="0.94647481" id="路径-34"></line>
                        <line x1="1.92519508" y1="-3.79437258e-17" x2="0.430221006" y2="2" id="路径-35"></line>
                        <line x1="0.430221006" y1="-4.48348472e-17" x2="1.92519508" y2="2" id="路径-36"></line>
                    </g>
                    <g id="编组-40" transform="translate(11.000000, 14.000000)" fill="#D6DBEC">
                        <rect id="矩形备份-28" x="10" y="0" width="1" height="3"></rect>
                        <rect id="矩形备份-116" x="8" y="0" width="1" height="3"></rect>
                        <rect id="矩形备份-117" x="6" y="0" width="1" height="3"></rect>
                        <rect id="矩形备份-118" x="4" y="0" width="1" height="3"></rect>
                        <rect id="矩形备份-120" x="2" y="0" width="1" height="3"></rect>
                        <rect id="矩形备份-122" x="0" y="0" width="1" height="3"></rect>
                    </g>
                    <g id="编组-40备份" transform="translate(11.000000, 21.000000)" fill="#D6DBEC">
                        <rect id="矩形备份-28" x="10" y="0" width="1" height="3"></rect>
                        <rect id="矩形备份-116" x="8" y="0" width="1" height="3"></rect>
                        <rect id="矩形备份-117" x="6" y="0" width="1" height="3"></rect>
                        <rect id="矩形备份-118" x="4" y="0" width="1" height="3"></rect>
                        <rect id="矩形备份-120" x="2" y="0" width="1" height="3"></rect>
                        <rect id="矩形备份-122" x="0" y="0" width="1" height="3"></rect>
                    </g>
                    <g id="编组-40备份-2" transform="translate(11.000000, 28.000000)" fill="#D6DBEC">
                        <rect id="矩形备份-28" x="10" y="0" width="1" height="3"></rect>
                        <rect id="矩形备份-116" x="8" y="0" width="1" height="3"></rect>
                        <rect id="矩形备份-117" x="6" y="0" width="1" height="3"></rect>
                        <rect id="矩形备份-118" x="4" y="0" width="1" height="3"></rect>
                        <rect id="矩形备份-120" x="2" y="0" width="1" height="3"></rect>
                        <rect id="矩形备份-122" x="0" y="0" width="1" height="3"></rect>
                    </g>
                    <rect id="矩形备份-45" fill="#F4F5F9" x="24" y="14" width="49" height="3" rx="1"></rect>
                    <rect id="矩形备份-47" fill="#F4F5F9" x="24" y="21" width="49" height="3" rx="1"></rect>
                    <rect id="矩形备份-89" fill="#F4F5F9" x="24" y="28" width="49" height="6" rx="1"></rect>
                    <path d="M0,38 L80,38 L80,46 C80,46.5522847 79.5522847,47 79,47 L1,47 C0.44771525,47 9.55813795e-16,46.5522847 0,46 L0,38 L0,38 Z" id="矩形备份-39" fill="#F4F5F9"></path>
                    <rect id="矩形" fill="#4886F6" x="6" y="3.24264069" width="16" height="4" rx="1"></rect>
                    <rect id="矩形备份-4" fill="#4886F6" x="68" y="41" width="8" height="4" rx="1"></rect>
                    <rect id="矩形备份-5" fill="#D6DBEC" x="58" y="41" width="8" height="4" rx="1"></rect>
                    <line x1="0" y1="10.2426407" x2="80" y2="10.2426407" id="路径" stroke="#F4F5F9"></line>
                </g>
            </g>
        </g>
    </g>
</svg>