<?xml version="1.0" encoding="UTF-8"?>
<svg width="105px" height="55px" viewBox="0 0 105 55" version="1.1" xmlns="http://www.w3.org/2000/svg" xmlns:xlink="http://www.w3.org/1999/xlink">
    <title>forms.input-with-unit</title>
    <g id="nora" stroke="none" stroke-width="1" fill="none" fill-rule="evenodd">
        <g id="-构件概览图五" transform="translate(-159.000000, -232.000000)">
            <g id="forms.input-with-unit" transform="translate(159.000000, 232.000000)">
                <rect id="矩形备份-46" x="0" y="0" width="105" height="55" rx="4"></rect>
                <g id="编组-2" transform="translate(10.000000, 10.000000)">
                    <rect id="矩形备份-49" fill="#F4F5F9" x="0" y="0" width="81" height="9" rx="1"></rect>
                    <path d="M58,0 L80,0 C80.5522847,-1.01453063e-16 81,0.44771525 81,1 L81,8 C81,8.55228475 80.5522847,9 80,9 L58,9 L58,9 L58,0 Z" id="矩形备份-49" fill="#D6DBEC"></path>
                    <g id="XX" transform="translate(61.030000, 2.516000)" fill="#D6DBEC" fill-rule="nonzero" stroke="#778DC3">
                        <path d="" id="路径"></path>
                        <path d="" id="路径"></path>
                    </g>
                    <polyline id="路径-2" stroke="#778DC3" stroke-width="0.7" stroke-linecap="round" stroke-linejoin="round" transform="translate(74.850000, 4.500000) rotate(-270.000000) translate(-74.850000, -4.500000) " points="73.5 2.25 76.2 4.5 73.5 6.75"></polyline>
                </g>
                <g id="编组-2备份-2" transform="translate(10.000000, 23.000000)">
                    <rect id="矩形备份-49" fill="#F4F5F9" x="0" y="0" width="81" height="9" rx="1"></rect>
                    <path d="M58,0 L80,0 C80.5522847,-1.01453063e-16 81,0.44771525 81,1 L81,8 C81,8.55228475 80.5522847,9 80,9 L58,9 L58,9 L58,0 Z" id="矩形备份-49" fill="#D6DBEC"></path>
                    <g id="XX" transform="translate(61.030000, 2.516000)" fill="#D6DBEC" fill-rule="nonzero" stroke="#778DC3">
                        <path d="" id="路径"></path>
                        <path d="" id="路径"></path>
                    </g>
                    <polyline id="路径-2" stroke="#778DC3" stroke-width="0.7" stroke-linecap="round" stroke-linejoin="round" transform="translate(74.850000, 4.500000) rotate(-270.000000) translate(-74.850000, -4.500000) " points="73.5 2.25 76.2 4.5 73.5 6.75"></polyline>
                </g>
                <g id="编组-2备份-3" transform="translate(10.000000, 36.000000)">
                    <rect id="矩形备份-49" fill="#F4F5F9" x="0" y="0" width="81" height="9" rx="1"></rect>
                    <path d="M58,0 L80,0 C80.5522847,-1.01453063e-16 81,0.44771525 81,1 L81,8 C81,8.55228475 80.5522847,9 80,9 L58,9 L58,9 L58,0 Z" id="矩形备份-49" fill="#D6DBEC"></path>
                    <g id="XX" transform="translate(61.030000, 2.516000)" fill="#D6DBEC" fill-rule="nonzero" stroke="#778DC3">
                        <path d="" id="路径"></path>
                        <path d="" id="路径"></path>
                    </g>
                    <polyline id="路径-2" stroke="#778DC3" stroke-width="0.7" stroke-linecap="round" stroke-linejoin="round" transform="translate(74.850000, 4.500000) rotate(-270.000000) translate(-74.850000, -4.500000) " points="73.5 2.25 76.2 4.5 73.5 6.75"></polyline>
                </g>
            </g>
        </g>
    </g>
</svg>