<?xml version="1.0" encoding="UTF-8"?>
<svg width="105px" height="55px" viewBox="0 0 105 55" version="1.1" xmlns="http://www.w3.org/2000/svg" xmlns:xlink="http://www.w3.org/1999/xlink">
    <title>basic-bricks.general-notification</title>
    <defs>
        <rect id="path-1" x="0" y="0" width="37" height="7" rx="1"></rect>
    </defs>
    <g id="nora" stroke="none" stroke-width="1" fill="none" fill-rule="evenodd">
        <g id="-构件概览图五" transform="translate(-537.000000, -103.000000)">
            <g id="basic-bricks.general-notification" transform="translate(537.000000, 103.000000)">
                <rect id="矩形备份-46" x="0" y="0" width="105" height="55" rx="4"></rect>
                <g id="编组-3" transform="translate(4.000000, 3.000000)" fill="#778DC3">
                    <rect id="矩形备份-76" x="0" y="0" width="39" height="4" rx="1"></rect>
                </g>
                <rect id="矩形备份" fill="#D6DBEC" x="47" y="13.2426407" width="20" height="7" rx="1"></rect>
                <rect id="矩形备份-2" fill="#F7BF05" x="94" y="13.2426407" width="7" height="7" rx="1"></rect>
                <rect id="矩形备份-3" fill="#20D4F3" x="85" y="13.2426407" width="7" height="7" rx="1"></rect>
                <g id="编组-8" transform="translate(5.000000, 13.000000)">
                    <g id="矩形备份-76">
                        <use stroke="#1A7AFF" stroke-width="2" xlink:href="#path-1"></use>
                        <rect stroke="#C6DEFF" stroke-width="1" x="-0.5" y="-0.5" width="38" height="8" rx="1"></rect>
                    </g>
                    <path d="M29,0 L36,0 C36.5522847,-1.01453063e-16 37,0.44771525 37,1 L37,6 C37,6.55228475 36.5522847,7 36,7 L29,7 L29,7 L29,0 Z" id="矩形备份-76" fill="#1A7AFF"></path>
                    <g id="通用图标/search-Line" transform="translate(30.500000, 1.000000)">
                        <rect id="矩形" fill="#000000" fill-rule="nonzero" opacity="0" x="0" y="0" width="5" height="5"></rect>
                        <path d="M4.44140625,4.17236328 L3.17333984,2.90429688 C3.37011719,2.64990234 3.4765625,2.33886719 3.4765625,2.01171875 C3.4765625,1.62011719 3.32373047,1.25292969 3.04736328,0.976074219 C2.77099609,0.69921875 2.40283203,0.546875 2.01171875,0.546875 C1.62060547,0.546875 1.25244141,0.699707031 0.976074219,0.976074219 C0.69921875,1.25244141 0.546875,1.62011719 0.546875,2.01171875 C0.546875,2.40283203 0.699707031,2.77099609 0.976074219,3.04736328 C1.25244141,3.32421875 1.62011719,3.4765625 2.01171875,3.4765625 C2.33886719,3.4765625 2.64941406,3.37011719 2.90380859,3.17382812 L4.171875,4.44140625 C4.1875,4.45703125 4.21289062,4.45703125 4.22851562,4.44140625 L4.44140625,4.22900391 C4.45703125,4.21337891 4.45703125,4.18798828 4.44140625,4.17236328 Z M2.78515625,2.78515625 C2.578125,2.99169922 2.30371094,3.10546875 2.01171875,3.10546875 C1.71972656,3.10546875 1.4453125,2.99169922 1.23828125,2.78515625 C1.03173828,2.578125 0.91796875,2.30371094 0.91796875,2.01171875 C0.91796875,1.71972656 1.03173828,1.44482422 1.23828125,1.23828125 C1.4453125,1.03173828 1.71972656,0.91796875 2.01171875,0.91796875 C2.30371094,0.91796875 2.57861328,1.03125 2.78515625,1.23828125 C2.99169922,1.4453125 3.10546875,1.71972656 3.10546875,2.01171875 C3.10546875,2.30371094 2.99169922,2.57861328 2.78515625,2.78515625 Z" id="形状" fill="#FFFFFF"></path>
                    </g>
                </g>
                <g id="编组-4" transform="translate(4.000000, 24.000000)">
                    <line x1="0" y1="16.5" x2="97" y2="16.5" id="路径" stroke="#F4F5F9"></line>
                    <line x1="0" y1="25.5" x2="97" y2="25.5" id="路径备份" stroke="#F4F5F9"></line>
                    <g id="编组-11备份-2">
                        <path d="M1,0 L96,0 C96.5522847,-1.01453063e-16 97,0.44771525 97,1 L97,8 L97,8 L0,8 L0,1 C-6.76353751e-17,0.44771525 0.44771525,1.01453063e-16 1,0 Z" id="矩形备份-48" fill="#F4F5F9"></path>
                        <g id="编组-9" transform="translate(4.000000, 2.000000)">
                            <path d="M3.1,0 L0.9,0 C0.402943725,0 0,0.402943725 0,0.9 L0,3.1 C0,3.59705627 0.402943725,4 0.9,4 L3.1,4 C3.59705627,4 4,3.59705627 4,3.1 L4,0.9 C4,0.402943725 3.59705627,0 3.1,0 Z" id="路径" fill="#1A7AFF"></path>
                            <line x1="0.973535489" y1="2" x2="3.01350378" y2="2" id="路径-33" stroke="#FFFFFF" stroke-width="0.4" stroke-linecap="round" stroke-linejoin="round"></line>
                        </g>
                        <path d="M7.1,10 L4.9,10 C4.40294373,10 4,10.4029437 4,10.9 L4,13.1 C4,13.5970563 4.40294373,14 4.9,14 L7.1,14 C7.59705627,14 8,13.5970563 8,13.1 L8,10.9 C8,10.4029437 7.59705627,10 7.1,10 Z M7.37875,11.3805 L5.88975,12.86925 L5.88375,12.87475 L5.87725,12.8805 L5.86975,12.886 L5.86275,12.891 L5.855,12.89575 L5.84775,12.9 L5.8395,12.904 L5.832,12.9075 L5.82325,12.91075 L5.81575,12.9135 L5.80675,12.91575 L5.79925,12.9175 L5.78975,12.919 L5.74825,12.919 L5.7385,12.91775 L5.7315,12.91775 L5.72175,12.9155 L5.715,12.91375 L5.70525,12.9105 L5.69875,12.90825 L5.68925,12.90375 L5.683,12.90075 L5.6735,12.89525 L5.66775,12.892 C5.66425,12.88975 5.661,12.88725 5.65775,12.88475 L5.65325,12.8815 C5.64855037,12.8777304 5.64404461,12.8737253 5.63975,12.8695 L4.85,12.0795 C4.81650211,12.0460492 4.79784598,12.0005441 4.79821648,11.9532057 C4.79859813,11.9058673 4.81797488,11.8606643 4.852,11.82775 C4.92393458,11.7611561 5.0358406,11.7640397 5.10425,11.83425 L5.765,12.49475 L7.129,11.13075 C7.1736582,11.0860918 7.23874894,11.0686508 7.29975318,11.0849968 C7.36075741,11.1013429 7.40840714,11.1489926 7.42475318,11.2099968 C7.44109921,11.2710011 7.4236582,11.3360918 7.379,11.38075 L7.37875,11.3805 Z" id="形状备份-2" fill="#1A7AFF"></path>
                        <path d="M7.1,19.5 L7.5,22.1 L4.9,22.5 L4.5,19.9 L7.1,19.5 Z" id="路径" stroke="#D6DBEC"></path>
                        <rect id="矩形备份-62" fill="#D6DBEC" x="11" y="2" width="16" height="4" rx="1"></rect>
                        <rect id="矩形备份-63" fill="#D6DBEC" x="40" y="2" width="16" height="4" rx="1"></rect>
                        <rect id="矩形备份-64" fill="#D6DBEC" x="77" y="2" width="16" height="4" rx="1"></rect>
                    </g>
                    <g id="编组-11备份-3" transform="translate(77.000000, 10.000000)" fill="#F4F5F9">
                        <rect id="矩形备份-48" x="0" y="0" width="16" height="4" rx="1"></rect>
                    </g>
                    <rect id="矩形备份-49" fill="#F4F5F9" x="40" y="10" width="16" height="4" rx="1"></rect>
                    <rect id="矩形备份-50" fill="#D6DBEC" x="11" y="10" width="16" height="4" rx="1"></rect>
                    <rect id="矩形备份-51" fill="#D6DBEC" x="11" y="19" width="16" height="4" rx="1"></rect>
                    <rect id="矩形备份-55" fill="#F4F5F9" x="40" y="19" width="16" height="4" rx="1"></rect>
                    <rect id="矩形备份-58" fill="#F4F5F9" x="77" y="19" width="16" height="4" rx="1"></rect>
                </g>
                <g id="编组" transform="translate(95.000000, 1.500000)" fill="#778DC3" fill-rule="nonzero">
                    <path d="M5.66256257,3.70710678 L0.337437429,3.70710678 C-0.142696805,3.70710678 -0.535533906,3.38890873 -0.535533906,3 C-0.535533906,2.61109127 -0.142696805,2.29289322 0.337437429,2.29289322 L5.66256257,2.29289322 C6.14269681,2.29289322 6.53553391,2.61109127 6.53553391,3 C6.53553391,3.38890873 6.14269681,3.70710678 5.66256257,3.70710678 Z" id="路径" transform="translate(3.000000, 3.000000) rotate(-45.000000) translate(-3.000000, -3.000000) "></path>
                    <path d="M3.70710678,0.337437429 L3.70710678,5.66256257 C3.70710678,6.14269681 3.38890873,6.53553391 3,6.53553391 C2.61109127,6.53553391 2.29289322,6.14269681 2.29289322,5.66256257 L2.29289322,0.337437429 C2.29289322,-0.142696805 2.61109127,-0.535533906 3,-0.535533906 C3.38890873,-0.535533906 3.70710678,-0.142696805 3.70710678,0.337437429 Z" id="形状" transform="translate(3.000000, 3.000000) rotate(-45.000000) translate(-3.000000, -3.000000) "></path>
                </g>
                <line x1="0" y1="8.90642527" x2="105" y2="8.90642527" id="路径-3" stroke="#F4F5F9"></line>
            </g>
        </g>
    </g>
</svg>