<?xml version="1.0" encoding="UTF-8"?>
<svg width="105px" height="55px" viewBox="0 0 105 55" version="1.1" xmlns="http://www.w3.org/2000/svg" xmlns:xlink="http://www.w3.org/1999/xlink">
    <title>forms.general-input-number</title>
    <g id="lydia" stroke="none" stroke-width="1" fill="none" fill-rule="evenodd">
        <g id="构件概览图二" transform="translate(-528.000000, -367.000000)">
            <g id="forms.general-input-number" transform="translate(528.000000, 367.000000)">
                <rect id="矩形备份-8" x="0" y="0" width="105" height="55" rx="4"></rect>
                <text id="660" font-family="PingFangSC-Medium, PingFang SC" font-size="18" font-weight="400" line-spacing="32" fill="#262626">
                    <tspan x="36" y="31">660</tspan>
                </text>
                <rect id="矩形" fill="#000000" fill-rule="nonzero" opacity="0" x="75" y="18" width="19" height="19"></rect>
                <path d="M91.4270833,18 L77.5729167,18 C76.1479167,18 75,19.1479167 75,20.5729167 L75,34.3875 C75,35.8520833 76.1479167,37 77.5729167,37 L91.3875,37 C92.8125,37 93.9604167,35.8520833 93.9604167,34.4270833 L93.9604167,20.5729167 C94,19.1479167 92.8520833,18 91.4270833,18 Z M89.25,28.2916667 L85.2916667,28.2916667 L85.2916667,32.25 C85.2916667,32.6854167 84.9354167,33.0416667 84.5,33.0416667 C84.0645833,33.0416667 83.7083333,32.6854167 83.7083333,32.25 L83.7083333,28.2916667 L79.75,28.2916667 C79.3145833,28.2916667 78.9583333,27.9354167 78.9583333,27.5 C78.9583333,27.0645833 79.3145833,26.7083333 79.75,26.7083333 L83.7083333,26.7083333 L83.7083333,22.75 C83.7083333,22.3145833 84.0645833,21.9583333 84.5,21.9583333 C84.9354167,21.9583333 85.2916667,22.3145833 85.2916667,22.75 L85.2916667,26.7083333 L89.25,26.7083333 C89.6854167,26.7083333 90.0416667,27.0645833 90.0416667,27.5 C90.0416667,27.9354167 89.6854167,28.2916667 89.25,28.2916667 Z" id="形状" fill="#D6DBEC" fill-rule="nonzero"></path>
                <rect id="矩形" fill="#000000" fill-rule="nonzero" opacity="0" x="11" y="18" width="19" height="19"></rect>
                <path d="M27.4270833,18 L13.5729167,18 C12.1479167,18 11,19.1479167 11,20.5729167 L11,34.3875 C11,35.8520833 12.1479167,37 13.5729167,37 L27.3875,37 C28.8125,37 29.9604167,35.8520833 29.9604167,34.4270833 L29.9604167,20.5729167 C30,19.1479167 28.8520833,18 27.4270833,18 Z M25.25,28.2916667 L21.2916667,28.2916667 L19.7083333,28.2916667 L15.75,28.2916667 C15.3145833,28.2916667 14.9583333,27.9354167 14.9583333,27.5 C14.9583333,27.0645833 15.3145833,26.7083333 15.75,26.7083333 L19.7083333,26.7083333 L21.2916667,26.7083333 L25.25,26.7083333 C25.6854167,26.7083333 26.0416667,27.0645833 26.0416667,27.5 C26.0416667,27.9354167 25.6854167,28.2916667 25.25,28.2916667 Z" id="形状" fill="#D6DBEC" fill-rule="nonzero"></path>
            </g>
        </g>
    </g>
</svg>