<?xml version="1.0" encoding="UTF-8"?>
<svg width="105px" height="62px" viewBox="0 0 105 62" version="1.1" xmlns="http://www.w3.org/2000/svg" xmlns:xlink="http://www.w3.org/1999/xlink">
    <title>forms-widgets.cmdb-instance-select-multiple</title>
    <defs>
        <rect id="path-1" x="1" y="0" width="69" height="10" rx="1"></rect>
        <rect id="path-2" x="0" y="0" width="71" height="32" rx="1"></rect>
        <filter x="-19.7%" y="-31.2%" width="139.4%" height="187.5%" filterUnits="objectBoundingBox" id="filter-3">
            <feOffset dx="0" dy="4" in="SourceAlpha" result="shadowOffsetOuter1"></feOffset>
            <feGaussianBlur stdDeviation="4" in="shadowOffsetOuter1" result="shadowBlurOuter1"></feGaussianBlur>
            <feColorMatrix values="0 0 0 0 0.6   0 0 0 0 0.6   0 0 0 0 0.6  0 0 0 0.5 0" type="matrix" in="shadowBlurOuter1"></feColorMatrix>
        </filter>
    </defs>
    <g id="nora" stroke="none" stroke-width="1" fill="none" fill-rule="evenodd">
        <g id="-构件概览图八" transform="translate(-455.000000, -603.000000)">
            <g id="forms-widgets.cmdb-instance-select-multiple" transform="translate(455.000000, 603.000000)">
                <rect id="矩形备份-46" x="0" y="0" width="105" height="55" rx="4"></rect>
                <g id="编组-8" transform="translate(17.000000, 6.000000)">
                    <rect id="矩形备份-5" fill="#D6DBEC" x="4" y="3" width="48" height="4" rx="1"></rect>
                    <g id="矩形备份-76">
                        <use stroke="#1A7AFF" stroke-width="2" xlink:href="#path-1"></use>
                        <rect stroke="#C6DEFF" stroke-width="1" x="0.5" y="-0.5" width="70" height="11" rx="1"></rect>
                    </g>
                    <g id="通用图标/search-Line" transform="translate(60.000000, 1.500000)">
                        <rect id="矩形" fill="#000000" fill-rule="nonzero" opacity="0" x="0" y="0" width="7" height="7"></rect>
                        <path d="M6.21796875,5.84130859 L4.44267578,4.06601562 C4.71816406,3.70986328 4.8671875,3.27441406 4.8671875,2.81640625 C4.8671875,2.26816406 4.65322266,1.75410156 4.26630859,1.36650391 C3.87939453,0.97890625 3.36396484,0.765625 2.81640625,0.765625 C2.26884766,0.765625 1.75341797,0.979589844 1.36650391,1.36650391 C0.97890625,1.75341797 0.765625,2.26816406 0.765625,2.81640625 C0.765625,3.36396484 0.979589844,3.87939453 1.36650391,4.26630859 C1.75341797,4.65390625 2.26816406,4.8671875 2.81640625,4.8671875 C3.27441406,4.8671875 3.70917969,4.71816406 4.06533203,4.44335938 L5.840625,6.21796875 C5.8625,6.23984375 5.89804687,6.23984375 5.91992187,6.21796875 L6.21796875,5.92060547 C6.23984375,5.89873047 6.23984375,5.86318359 6.21796875,5.84130859 Z M3.89921875,3.89921875 C3.609375,4.18837891 3.22519531,4.34765625 2.81640625,4.34765625 C2.40761719,4.34765625 2.0234375,4.18837891 1.73359375,3.89921875 C1.44443359,3.609375 1.28515625,3.22519531 1.28515625,2.81640625 C1.28515625,2.40761719 1.44443359,2.02275391 1.73359375,1.73359375 C2.0234375,1.44443359 2.40761719,1.28515625 2.81640625,1.28515625 C3.22519531,1.28515625 3.61005859,1.44375 3.89921875,1.73359375 C4.18837891,2.0234375 4.34765625,2.40761719 4.34765625,2.81640625 C4.34765625,3.22519531 4.18837891,3.61005859 3.89921875,3.89921875 Z" id="形状" fill="#595959"></path>
                    </g>
                    <g id="编组-9" transform="translate(0.000000, 12.000000)">
                        <g id="矩形备份-104">
                            <use fill="black" fill-opacity="1" filter="url(#filter-3)" xlink:href="#path-2"></use>
                            <use fill="#FFFFFF" fill-rule="evenodd" xlink:href="#path-2"></use>
                        </g>
                        <rect id="矩形" fill="#D6DBEC" x="2" y="2" width="67" height="8" rx="1"></rect>
                        <path d="M66.068125,5.07075 L63.834625,7.303875 L63.825625,7.312125 L63.815875,7.32075 L63.804625,7.329 L63.794125,7.3365 L63.7825,7.343625 L63.771625,7.35 L63.75925,7.356 L63.748,7.36125 L63.734875,7.366125 L63.723625,7.37025 L63.710125,7.373625 L63.698875,7.37625 L63.684625,7.3785 L63.622375,7.3785 L63.60775,7.376625 L63.59725,7.376625 L63.582625,7.37325 L63.5725,7.370625 L63.557875,7.36575 L63.548125,7.362375 L63.533875,7.355625 L63.5245,7.351125 L63.51025,7.342875 L63.501625,7.338 C63.496375,7.334625 63.4915,7.330875 63.486625,7.327125 L63.479875,7.32225 C63.4728256,7.31659558 63.4660669,7.31058789 63.459625,7.30425 L62.275,6.11925 C62.2247532,6.06907385 62.196769,6.00081612 62.1973247,5.92980857 C62.1978972,5.85880102 62.2269623,5.79099651 62.278,5.741625 C62.3859019,5.64173413 62.5537609,5.64605954 62.656375,5.751375 L63.6475,6.742125 L65.6935,4.696125 C65.7604873,4.6291377 65.8581234,4.60297618 65.9496298,4.62749524 C66.0411361,4.65201429 66.1126107,4.72348889 66.1371298,4.81499524 C66.1616488,4.90650159 66.1354873,5.0041377 66.0685,5.071125 L66.068125,5.07075 Z" id="路径" fill="#1A7AFF"></path>
                        <rect id="矩形备份-4" fill="#D6DBEC" x="2" y="12" width="67" height="8" rx="1"></rect>
                        <path d="M66.068125,15.07075 L63.834625,17.303875 L63.825625,17.312125 L63.815875,17.32075 L63.804625,17.329 L63.794125,17.3365 L63.7825,17.343625 L63.771625,17.35 L63.75925,17.356 L63.748,17.36125 L63.734875,17.366125 L63.723625,17.37025 L63.710125,17.373625 L63.698875,17.37625 L63.684625,17.3785 L63.622375,17.3785 L63.60775,17.376625 L63.59725,17.376625 L63.582625,17.37325 L63.5725,17.370625 L63.557875,17.36575 L63.548125,17.362375 L63.533875,17.355625 L63.5245,17.351125 L63.51025,17.342875 L63.501625,17.338 C63.496375,17.334625 63.4915,17.330875 63.486625,17.327125 L63.479875,17.32225 C63.4728256,17.3165956 63.4660669,17.3105879 63.459625,17.30425 L62.275,16.11925 C62.2247532,16.0690738 62.196769,16.0008161 62.1973247,15.9298086 C62.1978972,15.858801 62.2269623,15.7909965 62.278,15.741625 C62.3859019,15.6417341 62.5537609,15.6460595 62.656375,15.751375 L63.6475,16.742125 L65.6935,14.696125 C65.7604873,14.6291377 65.8581234,14.6029762 65.9496298,14.6274952 C66.0411361,14.6520143 66.1126107,14.7234889 66.1371298,14.8149952 C66.1616488,14.9065016 66.1354873,15.0041377 66.0685,15.071125 L66.068125,15.07075 Z" id="路径备份" fill="#1A7AFF"></path>
                        <rect id="矩形备份-6" fill="#F4F5F9" x="2" y="22" width="67" height="8" rx="1"></rect>
                    </g>
                </g>
            </g>
        </g>
    </g>
</svg>