<?xml version="1.0" encoding="UTF-8"?>
<svg width="105px" height="55px" viewBox="0 0 105 55" version="1.1" xmlns="http://www.w3.org/2000/svg" xmlns:xlink="http://www.w3.org/1999/xlink">
    <title>forms.advance-setting</title>
    <g id="nora" stroke="none" stroke-width="1" fill="none" fill-rule="evenodd">
        <g id="-构件概览图五" transform="translate(-401.000000, -103.000000)">
            <g id="forms.advance-setting" transform="translate(401.000000, 103.000000)">
                <rect id="矩形备份-46" x="0" y="0" width="105" height="55" rx="4"></rect>
                <polyline id="路径-2" stroke="#778DC3" stroke-linecap="round" stroke-linejoin="round" transform="translate(51.800000, 13.000000) rotate(-90.000000) translate(-51.800000, -13.000000) " points="50 10 53.6 13 50 16"></polyline>
                <g id="高级设置" transform="translate(6.580000, 8.770000)" fill="#5F5F5F" fill-rule="nonzero" stroke="#778DC3">
                    <path d="" id="形状"></path>
                    <path d="" id="形状"></path>
                    <path d="" id="形状"></path>
                    <path d="" id="形状"></path>
                </g>
                <g id="编组-16" transform="translate(6.000000, 23.000000)">
                    <rect id="矩形备份-78" fill="#F4F5F9" x="0" y="0" width="93" height="26" rx="1"></rect>
                    <rect id="矩形" fill="#D6DBEC" x="4" y="4" width="1" height="6"></rect>
                    <rect id="矩形备份-7" fill="#D6DBEC" x="6" y="4" width="1" height="6"></rect>
                    <rect id="矩形备份-8" fill="#D6DBEC" x="8" y="4" width="1" height="6"></rect>
                    <rect id="矩形备份-9" fill="#D6DBEC" x="10" y="4" width="1" height="6"></rect>
                    <rect id="矩形备份-10" fill="#D6DBEC" x="12" y="4" width="1" height="6"></rect>
                    <rect id="矩形备份-11" fill="#D6DBEC" x="14" y="4" width="1" height="6"></rect>
                    <rect id="矩形备份-12" fill="#D6DBEC" x="16" y="4" width="1" height="6"></rect>
                    <rect id="矩形备份-13" fill="#D6DBEC" x="18" y="4" width="1" height="6"></rect>
                    <rect id="矩形备份-14" fill="#D6DBEC" x="20" y="4" width="1" height="6"></rect>
                    <rect id="矩形备份-15" fill="#D6DBEC" x="22" y="4" width="1" height="6"></rect>
                    <rect id="矩形备份-16" fill="#D6DBEC" x="24" y="4" width="1" height="6"></rect>
                    <rect id="矩形备份-17" fill="#D6DBEC" x="26" y="4" width="1" height="6"></rect>
                    <rect id="矩形备份-18" fill="#D6DBEC" x="28" y="4" width="1" height="6"></rect>
                    <rect id="矩形备份-19" fill="#D6DBEC" x="30" y="4" width="1" height="6"></rect>
                    <rect id="矩形备份-20" fill="#D6DBEC" x="32" y="4" width="1" height="6"></rect>
                    <rect id="矩形备份-21" fill="#D6DBEC" x="4" y="14" width="85" height="6"></rect>
                </g>
            </g>
        </g>
    </g>
</svg>