<?xml version="1.0" encoding="UTF-8"?>
<svg width="105px" height="55px" viewBox="0 0 105 55" version="1.1" xmlns="http://www.w3.org/2000/svg" xmlns:xlink="http://www.w3.org/1999/xlink">
    <title>forms.advance-setting</title>
    <g id="nora" stroke="none" stroke-width="1" fill="none" fill-rule="evenodd">
        <g id="-构件概览图五" transform="translate(-401.000000, -103.000000)">
            <g id="forms.advance-setting" transform="translate(401.000000, 103.000000)">
                <rect id="矩形备份-46" x="0" y="0" width="105" height="55" rx="4"></rect>
                <polyline id="路径-2" stroke="#778DC3" stroke-linecap="round" stroke-linejoin="round" transform="translate(51.800000, 13.000000) rotate(-90.000000) translate(-51.800000, -13.000000) " points="50 10 53.6 13 50 16"></polyline>
                <g id="高级设置" transform="translate(6.580000, 8.770000)" fill="#778DC3" fill-rule="nonzero">
                    <path d="M4.55,0 L3.76,0.14 C3.88,0.37 4,0.62 4.1,0.9 L0,0.9 L0,1.56 L8.83,1.56 L8.83,0.9 L4.87,0.9 C4.77,0.57 4.66,0.27 4.55,0 Z M7.23,9.2 C7.96,9.2 8.33,8.88 8.33,8.25 L8.33,4.75 L0.51,4.75 L0.51,9.23 L1.2,9.23 L1.2,5.38 L7.64,5.38 L7.64,8.1 C7.64,8.42 7.43,8.58 7.02,8.58 L6.22,8.55 L6.39,9.2 L7.23,9.2 Z M1.63,2.21 L1.63,4.15 L7.22,4.15 L7.22,2.21 L1.63,2.21 Z M6.52,3.59 L2.33,3.59 L2.33,2.77 L6.52,2.77 L6.52,3.59 Z M2.46,6.02 L2.46,8.02 L6.39,8.02 L6.39,6.02 L2.46,6.02 Z M5.75,7.48 L3.11,7.48 L3.11,6.56 L5.75,6.56 L5.75,7.48 Z" id="形状"></path>
                    <path d="M12.9,7.12 C12.02,7.47 10.99,7.75 9.82,7.96 L9.91,8.66 C11.03,8.45 12.02,8.16 12.9,7.8 L12.9,7.12 Z M11.68,0.05 C11.26,1.19 10.76,2.21 10.19,3.1 C10.1,3.23 10,3.32 9.89,3.36 L10.07,4.02 C10.65,3.95 11.23,3.87 11.81,3.78 C11.25,4.68 10.77,5.31 10.37,5.69 C10.28,5.77 10.17,5.84 10.04,5.89 L10.23,6.54 C11.2,6.42 12.22,6.21 13.28,5.89 L13.28,5.24 C12.56,5.46 11.83,5.64 11.11,5.77 C11.73,5.08 12.5,3.92 13.44,2.3 L12.81,2.07 C12.6,2.44 12.4,2.79 12.21,3.13 C11.73,3.21 11.25,3.27 10.77,3.32 C11.31,2.58 11.84,1.58 12.36,0.32 L11.68,0.05 Z M14.41,1.15 L14.41,1.69 C14.39,4.92 13.73,7.26 12.43,8.72 L12.96,9.19 C13.97,8.05 14.63,6.42 14.93,4.31 C15.24,5.33 15.7,6.25 16.3,7.06 C15.73,7.66 15.02,8.17 14.18,8.58 L14.58,9.24 C15.44,8.82 16.18,8.3 16.78,7.66 C17.28,8.24 17.89,8.76 18.59,9.22 L19.04,8.62 C18.34,8.18 17.73,7.69 17.21,7.13 C17.93,6.18 18.39,5.01 18.6,3.63 L18.6,3.23 L17.33,3.23 C17.49,2.59 17.65,1.82 17.81,0.92 L17.81,0.47 L13.42,0.47 L13.42,1.15 L14.41,1.15 Z M16.72,6.56 C15.88,5.49 15.33,4.22 15.08,2.76 C15.1,2.42 15.11,2.06 15.11,1.69 L15.11,1.15 L17.07,1.15 C16.86,2.34 16.67,3.24 16.49,3.86 L17.88,3.86 C17.68,4.89 17.3,5.79 16.72,6.56 Z" id="形状"></path>
                    <path d="M21.03,0.25 L20.53,0.72 C21.21,1.25 21.74,1.75 22.13,2.23 L22.62,1.73 C22.19,1.24 21.66,0.75 21.03,0.25 Z M19.87,3.14 L19.87,3.83 L21.26,3.83 L21.26,7.79 C21.26,7.95 21.18,8.1 21.04,8.24 L21.32,8.88 C22.02,8.42 22.69,7.9 23.32,7.31 L23.12,6.55 C22.71,6.94 22.32,7.28 21.96,7.58 L21.96,3.14 L19.87,3.14 Z M23.42,4.31 L23.42,5.01 L23.97,5.01 C24.25,5.88 24.76,6.66 25.52,7.36 C24.77,7.89 23.84,8.32 22.73,8.65 L23.13,9.26 C24.3,8.9 25.29,8.43 26.09,7.83 C26.79,8.37 27.67,8.84 28.71,9.26 L29.1,8.64 C28.12,8.28 27.29,7.87 26.61,7.4 C27.34,6.72 27.86,5.91 28.18,4.97 L28.18,4.31 L23.42,4.31 Z M24.65,5.01 L27.47,5.01 C27.15,5.75 26.67,6.39 26.03,6.95 C25.37,6.38 24.91,5.73 24.65,5.01 Z M24.19,0.45 L24.19,1.56 C24.19,2.35 23.75,2.96 22.88,3.39 L23.36,3.94 C24.38,3.36 24.9,2.54 24.9,1.48 L24.9,1.13 L26.84,1.13 L26.84,2.76 C26.84,3.35 27.14,3.65 27.76,3.65 L28.86,3.65 L28.86,2.99 L27.94,2.99 C27.68,2.99 27.55,2.86 27.55,2.61 L27.55,0.45 L24.19,0.45 Z" id="形状"></path>
                    <path d="M30.13,2.89 L30.13,3.44 L33.94,3.44 C33.9,3.63 33.87,3.82 33.83,4.01 L31.4,4.01 L31.4,8.42 L29.95,8.42 L29.95,9 L38.9,9 L38.9,8.42 L37.45,8.42 L37.45,4.01 L34.55,4.01 C34.59,3.83 34.62,3.64 34.66,3.44 L38.72,3.44 L38.72,2.89 L34.74,2.89 L34.8,2.31 L38.04,2.31 L38.04,0.44 L30.8,0.44 L30.8,2.31 L34.08,2.31 L34.02,2.89 L30.13,2.89 Z M32.1,8.42 L32.1,7.76 L36.74,7.76 L36.74,8.42 L32.1,8.42 Z M32.1,7.31 L32.1,6.68 L36.74,6.68 L36.74,7.31 L32.1,7.31 Z M32.1,6.22 L32.1,5.59 L36.74,5.59 L36.74,6.22 L32.1,6.22 Z M32.1,5.14 L32.1,4.51 L36.74,4.51 L36.74,5.14 L32.1,5.14 Z M37.36,1.8 L35.87,1.8 L35.87,0.97 L37.36,0.97 L37.36,1.8 Z M35.21,1.8 L33.63,1.8 L33.63,0.97 L35.21,0.97 L35.21,1.8 Z M32.98,1.8 L31.49,1.8 L31.49,0.97 L32.98,0.97 L32.98,1.8 Z" id="形状"></path>
                </g>
                <g id="编组-16" transform="translate(6.000000, 23.000000)">
                    <rect id="矩形备份-78" fill="#F4F5F9" x="0" y="0" width="93" height="26" rx="1"></rect>
                    <rect id="矩形" fill="#D6DBEC" x="4" y="4" width="1" height="6"></rect>
                    <rect id="矩形备份-7" fill="#D6DBEC" x="6" y="4" width="1" height="6"></rect>
                    <rect id="矩形备份-8" fill="#D6DBEC" x="8" y="4" width="1" height="6"></rect>
                    <rect id="矩形备份-9" fill="#D6DBEC" x="10" y="4" width="1" height="6"></rect>
                    <rect id="矩形备份-10" fill="#D6DBEC" x="12" y="4" width="1" height="6"></rect>
                    <rect id="矩形备份-11" fill="#D6DBEC" x="14" y="4" width="1" height="6"></rect>
                    <rect id="矩形备份-12" fill="#D6DBEC" x="16" y="4" width="1" height="6"></rect>
                    <rect id="矩形备份-13" fill="#D6DBEC" x="18" y="4" width="1" height="6"></rect>
                    <rect id="矩形备份-14" fill="#D6DBEC" x="20" y="4" width="1" height="6"></rect>
                    <rect id="矩形备份-15" fill="#D6DBEC" x="22" y="4" width="1" height="6"></rect>
                    <rect id="矩形备份-16" fill="#D6DBEC" x="24" y="4" width="1" height="6"></rect>
                    <rect id="矩形备份-17" fill="#D6DBEC" x="26" y="4" width="1" height="6"></rect>
                    <rect id="矩形备份-18" fill="#D6DBEC" x="28" y="4" width="1" height="6"></rect>
                    <rect id="矩形备份-19" fill="#D6DBEC" x="30" y="4" width="1" height="6"></rect>
                    <rect id="矩形备份-20" fill="#D6DBEC" x="32" y="4" width="1" height="6"></rect>
                    <rect id="矩形备份-21" fill="#D6DBEC" x="4" y="14" width="85" height="6"></rect>
                </g>
            </g>
        </g>
    </g>
</svg>