<?xml version="1.0" encoding="UTF-8"?>
<svg width="105px" height="55px" viewBox="0 0 105 55" version="1.1" xmlns="http://www.w3.org/2000/svg" xmlns:xlink="http://www.w3.org/1999/xlink">
    <title>forms.upload-files</title>
    <g id="nora" stroke="none" stroke-width="1" fill="none" fill-rule="evenodd">
        <g id="-构件概览图五" transform="translate(-545.000000, -232.000000)">
            <g id="forms.upload-files" transform="translate(545.000000, 232.000000)">
                <rect id="矩形备份-46" x="0" y="0" width="105" height="55" rx="4"></rect>
                <g id="编组-40" transform="translate(92.000000, 45.000000)">
                    <circle id="椭圆形" fill="#F24C25" fill-rule="nonzero" cx="3" cy="3" r="3"></circle>
                    <g id="编组-38" transform="translate(2.995644, 3.046026) rotate(-315.000000) translate(-2.995644, -3.046026) translate(1.197325, 1.257779)" stroke="#FFFFFF" stroke-linecap="round" stroke-width="0.5">
                        <line x1="0" y1="1.7422211" x2="3.59663918" y2="1.7422211" id="路径-31"></line>
                        <line x1="1.79831959" y1="-4.4141397e-14" x2="1.80267529" y2="3.57649515" id="路径-32"></line>
                    </g>
                </g>
                <g id="编组-7" transform="translate(5.000000, 5.000000)">
                    <path d="M2,0 L91,0 C92.1045695,-2.02906125e-16 93,0.8954305 93,2 L93,35 C93,36.1045695 92.1045695,37 91,37 L2,37 C0.8954305,37 -1.64108609e-15,36.1045695 0,35 L0,2 C-1.3527075e-16,0.8954305 0.8954305,2.02906125e-16 2,0 Z" id="矩形备份-46" stroke="#1A7AFF" fill-opacity="0.1" fill="#1A7AFF" stroke-dasharray="2"></path>
                    <rect id="矩形备份-51" fill="#778DC3" x="20" y="27" width="53" height="5" rx="1"></rect>
                    <rect id="矩形备份-56" fill="#D6DBEC" x="0" y="41" width="85" height="4" rx="1"></rect>
                    <rect id="矩形" fill="#1A7AFF" x="39" y="6" width="16" height="16" rx="1"></rect>
                    <rect id="矩形备份-6" fill-opacity="0.5" fill="#FFFFFF" x="42" y="9" width="10" height="10" rx="1"></rect>
                </g>
            </g>
        </g>
    </g>
</svg>