<?xml version="1.0" encoding="UTF-8"?>
<svg width="105px" height="55px" viewBox="0 0 105 55" version="1.1" xmlns="http://www.w3.org/2000/svg" xmlns:xlink="http://www.w3.org/1999/xlink">
    <title>time.task-calendar</title>
    <g id="nora" stroke="none" stroke-width="1" fill="none" fill-rule="evenodd">
        <g id="-构件概览图九" transform="translate(-442.000000, -412.000000)">
            <g id="time.task-calendar" transform="translate(442.000000, 412.000000)">
                <rect id="矩形" x="0" y="0" width="105" height="55" rx="4"></rect>
                <g id="编组-9" transform="translate(12.000000, 6.000000)">
                    <rect id="矩形备份-76" fill="#778DC3" x="0" y="0" width="10" height="6" rx="1"></rect>
                    <rect id="矩形备份-83" fill="#D6DBEC" x="0" y="8" width="10" height="10" rx="1"></rect>
                    <rect id="矩形备份-90" fill="#D6DBEC" x="0" y="20" width="10" height="10" rx="1"></rect>
                    <rect id="矩形备份-97" fill="#D6DBEC" x="0" y="32" width="10" height="10" rx="1"></rect>
                    <rect id="矩形备份-77" fill="#778DC3" x="12" y="0" width="10" height="6" rx="1"></rect>
                    <rect id="矩形备份-84" fill="#D6DBEC" x="12" y="8" width="10" height="10" rx="1"></rect>
                    <rect id="矩形备份-91" fill="#D6DBEC" x="12" y="20" width="10" height="10" rx="1"></rect>
                    <rect id="矩形备份-98" fill="#F7BF02" x="12" y="32" width="10" height="10" rx="1"></rect>
                    <rect id="矩形备份-78" fill="#778DC3" x="24" y="0" width="10" height="6" rx="1"></rect>
                    <rect id="矩形备份-85" fill="#D6DBEC" x="24" y="8" width="10" height="10" rx="1"></rect>
                    <rect id="矩形备份-92" fill="#D6DBEC" x="24" y="20" width="10" height="10" rx="1"></rect>
                    <rect id="矩形备份-99" fill="#D6DBEC" x="24" y="32" width="10" height="10" rx="1"></rect>
                    <rect id="矩形备份-79" fill="#778DC3" x="36" y="0" width="10" height="6" rx="1"></rect>
                    <rect id="矩形备份-86" fill="#D6DBEC" x="36" y="8" width="10" height="10" rx="1"></rect>
                    <rect id="矩形备份-93" fill="#D6DBEC" x="36" y="20" width="10" height="10" rx="1"></rect>
                    <rect id="矩形备份-100" fill="#D6DBEC" x="36" y="32" width="10" height="10" rx="1"></rect>
                    <rect id="矩形备份-80" fill="#778DC3" x="48" y="0" width="10" height="6" rx="1"></rect>
                    <rect id="矩形备份-87" fill="#D6DBEC" x="48" y="8" width="10" height="10" rx="1"></rect>
                    <rect id="矩形备份-94" fill="#1A7AFF" x="48" y="20" width="10" height="10" rx="1"></rect>
                    <rect id="矩形备份-101" fill="#F4F5F9" x="48" y="32" width="10" height="10" rx="1"></rect>
                    <rect id="矩形备份-81" fill="#778DC3" x="60" y="0" width="10" height="6" rx="1"></rect>
                    <rect id="矩形备份-88" fill="#D6DBEC" x="60" y="8" width="10" height="10" rx="1"></rect>
                    <rect id="矩形备份-95" fill="#D6DBEC" x="60" y="20" width="10" height="10" rx="1"></rect>
                    <rect id="矩形备份-114" fill="#F4F5F9" x="60" y="32" width="10" height="10" rx="1"></rect>
                    <rect id="矩形备份-82" fill="#778DC3" x="72" y="0" width="10" height="6" rx="1"></rect>
                    <rect id="矩形备份-89" fill="#D6DBEC" x="72" y="8" width="10" height="10" rx="1"></rect>
                    <rect id="矩形备份-96" fill="#D6DBEC" x="72" y="20" width="10" height="10" rx="1"></rect>
                    <rect id="矩形备份-115" fill="#F4F5F9" x="72" y="32" width="10" height="10" rx="1"></rect>
                </g>
                <circle id="椭圆形" fill="#F24C25" cx="50" cy="22" r="1"></circle>
                <circle id="椭圆形备份-25" fill="#F24C25" cx="62" cy="22" r="1"></circle>
                <circle id="椭圆形备份-26" fill="#F24C25" cx="50" cy="46" r="1"></circle>
            </g>
        </g>
    </g>
</svg>