<?xml version="1.0" encoding="UTF-8"?>
<svg width="42px" height="42px" viewBox="0 0 42 42" version="1.1" xmlns="http://www.w3.org/2000/svg" xmlns:xlink="http://www.w3.org/1999/xlink">
    <title>222ED7C0-0484-4FC0-A33C-8391A563ED54</title>
    <g id="6.2" stroke="none" stroke-width="1" fill="none" fill-rule="evenodd">
        <g id="告警提示" transform="translate(-129.000000, -4385.000000)">
            <g id="带图标" transform="translate(129.000000, 4013.000000)">
                <g id="反馈/1.Alert警告提示/大-提示-#2" transform="translate(0.000000, 273.000000)">
                    <g id="error-circle-o" transform="translate(0.000000, 99.000000)">
                        <rect id="矩形" fill="#D8D8D8" opacity="0" x="0" y="0" width="42" height="42"></rect>
                        <g id="通用图标/info-circle-o" transform="translate(3.000000, 3.000000)">
                            <circle id="Oval备份" stroke="#F0493C" stroke-width="2" fill="#FFFFFF" stroke-linecap="round" stroke-linejoin="round" cx="18" cy="18" r="19"></circle>
                            <path d="M26.4232739,2.0884363 C32.1199347,5.11040663 36,11.1020844 36,18 C36,27.9411255 27.9411255,36 18,36 C13.6626926,36 9.68368515,34.4659352 6.57596325,31.9107912 C9.08954857,33.2446804 11.9565671,34 15,34 C24.9411255,34 33,25.9411255 33,16 C33,10.4771525 30.5126931,5.53524667 26.597171,2.23337432 Z" id="形状结合" fill="#FDF0EF" fill-rule="nonzero"></path>
                            <g id="close" transform="translate(8.000000, 8.000000)" fill-rule="nonzero">
                                <rect id="矩形" fill="#000000" opacity="0" x="0" y="0" width="20" height="20"></rect>
                                <path d="M11.1765911,10.0296642 L17.132645,2.93004795 C17.2324798,2.81206136 17.1485278,2.6328125 16.9942377,2.6328125 L15.1835973,2.6328125 C15.0769556,2.6328125 14.9748518,2.68046093 14.9045136,2.76214396 L9.99218728,8.61836303 L5.07986093,2.76214396 C5.01179175,2.68046093 4.90968797,2.6328125 4.80077727,2.6328125 L2.99013689,2.6328125 C2.83584673,2.6328125 2.75189473,2.81206136 2.85172954,2.93004795 L8.80778342,10.0296642 L2.85172954,17.1292804 C2.75189473,17.247267 2.83584673,17.4265159 2.99013689,17.4265159 L4.80077727,17.4265159 C4.90741899,17.4265159 5.00952277,17.3788674 5.07986093,17.2971844 L9.99218728,11.4409653 L14.9045136,17.2971844 C14.9725828,17.3788674 15.0746866,17.4265159 15.1835973,17.4265159 L16.9942377,17.4265159 C17.1485278,17.4265159 17.2324798,17.247267 17.132645,17.1292804 L11.1765911,10.0296642 Z" id="路径" fill="#F0493C"></path>
                            </g>
                        </g>
                    </g>
                </g>
            </g>
        </g>
    </g>
</svg>