<?xml version="1.0" encoding="UTF-8"?>
<svg width="42px" height="42px" viewBox="0 0 42 42" version="1.1" xmlns="http://www.w3.org/2000/svg" xmlns:xlink="http://www.w3.org/1999/xlink">
    <title>通用图标/error</title>
    <g id="控件" stroke="none" stroke-width="1" fill="none" fill-rule="evenodd">
        <g id="通用图标/error">
            <rect id="矩形" fill="#D8D8D8" opacity="0" x="0" y="0" width="42" height="42"></rect>
            <g id="通用图标/info-circle-o" transform="translate(1.000000, 1.000000)">
                <path d="M20,0 C8.954305,0 0,8.954305 0,20 C0,31.045695 8.954305,40 20,40 C31.045695,40 40,31.045695 40,20 C40,8.954305 31.045695,0 20,0 Z M20,2 C29.9411255,2 38,10.0588745 38,20 C38,29.9411255 29.9411255,38 20,38 C10.0588745,38 2,29.9411255 2,20 C2,10.0588745 10.0588745,2 20,2 Z" id="Oval备份" fill="#D2593F"></path>
                <path d="M28.4232739,4.0884363 C34.1199347,7.11040663 38,13.1020844 38,20 C38,29.9411255 29.9411255,38 20,38 C15.6626926,38 11.6836851,36.4659352 8.57596325,33.9107912 C11.0895486,35.2446804 13.9565671,36 17,36 C26.9411255,36 35,27.9411255 35,18 C35,12.4771525 32.5126931,7.53524667 28.597171,4.23337432 Z" id="形状结合" fill-opacity="0.04" fill="#FFFFFF" fill-rule="nonzero"></path>
                <g id="close" transform="translate(10.000000, 10.000000)">
                    <rect id="矩形" fill="#000000" fill-rule="nonzero" opacity="0" x="0" y="0" width="20" height="20"></rect>
                    <path d="M11.1765911,10.0296642 L17.132645,2.93004795 C17.2324798,2.81206136 17.1485278,2.6328125 16.9942377,2.6328125 L15.1835973,2.6328125 C15.0769556,2.6328125 14.9748518,2.68046093 14.9045136,2.76214396 L9.99218728,8.61836303 L5.07986093,2.76214396 C5.01179175,2.68046093 4.90968797,2.6328125 4.80077727,2.6328125 L2.99013689,2.6328125 C2.83584673,2.6328125 2.75189473,2.81206136 2.85172954,2.93004795 L8.80778342,10.0296642 L2.85172954,17.1292804 C2.75189473,17.247267 2.83584673,17.4265159 2.99013689,17.4265159 L4.80077727,17.4265159 C4.90741899,17.4265159 5.00952277,17.3788674 5.07986093,17.2971844 L9.99218728,11.4409653 L14.9045136,17.2971844 C14.9725828,17.3788674 15.0746866,17.4265159 15.1835973,17.4265159 L16.9942377,17.4265159 C17.1485278,17.4265159 17.2324798,17.247267 17.132645,17.1292804 L11.1765911,10.0296642 Z" id="路径" fill="#D2593F"></path>
                </g>
            </g>
        </g>
    </g>
</svg>