<?xml version="1.0" encoding="UTF-8"?>
<svg width="42px" height="42px" viewBox="0 0 42 42" version="1.1" xmlns="http://www.w3.org/2000/svg" xmlns:xlink="http://www.w3.org/1999/xlink">
    <title>E4383FF6-35B4-457C-B08B-2D4D934AA2DC</title>
    <g id="6.2" stroke="none" stroke-width="1" fill="none" fill-rule="evenodd">
        <g id="告警提示" transform="translate(-200.000000, -4335.000000)">
            <g id="带图标" transform="translate(179.000000, 4013.000000)">
                <g id="反馈/1.Alert警告提示/大-提示-#2" transform="translate(5.000000, 306.000000)">
                    <g id="info-circle-o" transform="translate(16.000000, 16.000000)">
                        <rect id="矩形" fill="#D8D8D8" opacity="0" x="0" y="0" width="42" height="42"></rect>
                        <g id="通用图标/info-circle-o" transform="translate(2.000000, 2.000000)">
                            <ellipse id="Oval备份" stroke="#0071EB" stroke-width="2" fill="#FFFFFF" stroke-linecap="round" stroke-linejoin="round" cx="18.8599509" cy="19" rx="19.7105651" ry="19.2181818"></ellipse>
                            <path d="M27.6319622,2.90395768 C33.5446465,5.96524833 37.570516,12.0248503 37.570516,19 C37.570516,29.061624 29.1935106,37.2181818 18.8599509,37.2181818 C14.3602517,37.2181818 10.2315398,35.6715962 7.00392529,33.0945849 C9.62097724,34.45008 12.6077993,35.2181818 15.7788698,35.2181818 C26.1124295,35.2181818 34.4894349,27.061624 34.4894349,17 C34.4894349,11.3610679 31.8582803,6.32050274 27.7261623,2.97875383 Z" id="形状结合" fill="#EBF3FD"></path>
                            <g id="编组-2" transform="translate(16.096314, 9.490909)" fill="#0071EB" fill-rule="nonzero">
                                <path d="M0.903685504,2.50909091 C0.903685504,3.61366041 1.799116,4.50909091 2.9036855,4.50909091 C4.008255,4.50909091 4.9036855,3.61366041 4.9036855,2.50909091 C4.9036855,1.40452141 4.008255,0.509090909 2.9036855,0.509090909 C1.799116,0.509090909 0.903685504,1.40452141 0.903685504,2.50909091 Z" id="路径"></path>
                                <path d="M3.75,7 L2.25,7 C2.1125,7 2,7.1625 2,7.36111111 L2,19.6388889 C2,19.8375 2.1125,20 2.25,20 L3.75,20 C3.8875,20 4,19.8375 4,19.6388889 L4,7.36111111 C4,7.1625 3.8875,7 3.75,7 Z" id="路径"></path>
                            </g>
                        </g>
                    </g>
                </g>
            </g>
        </g>
    </g>
</svg>