<?xml version="1.0" encoding="UTF-8"?>
<svg width="42px" height="42px" viewBox="0 0 42 42" version="1.1" xmlns="http://www.w3.org/2000/svg" xmlns:xlink="http://www.w3.org/1999/xlink">
    <title>通用图标/info</title>
    <g id="控件" stroke="none" stroke-width="1" fill="none" fill-rule="evenodd">
        <g id="5.反馈/4.Alert警告提示/暗色/带链接-提示4" transform="translate(-16.000000, -16.000000)">
            <g id="通用图标/info" transform="translate(16.000000, 16.000000)">
                <rect id="矩形" fill="#FFFFFF" opacity="0" x="0" y="0" width="42" height="42"></rect>
                <g id="通用图标/info-circle-o" transform="translate(1.000000, 1.000000)" fill-rule="nonzero">
                    <path d="M20,0 C8.954305,0 0,8.954305 0,20 C0,31.045695 8.954305,40 20,40 C31.045695,40 40,31.045695 40,20 C40,8.954305 31.045695,0 20,0 Z M20,2 C29.9411255,2 38,10.0588745 38,20 C38,29.9411255 29.9411255,38 20,38 C10.0588745,38 2,29.9411255 2,20 C2,10.0588745 10.0588745,2 20,2 Z" id="Oval备份" fill="#3F75DD"></path>
                    <path d="M28.4232739,4.0884363 C34.1199347,7.11040663 38,13.1020844 38,20 C38,29.9411255 29.9411255,38 20,38 C15.6626926,38 11.6836851,36.4659352 8.57596325,33.9107912 C11.0895486,35.2446804 13.9565671,36 17,36 C26.9411255,36 35,27.9411255 35,18 C35,12.4771525 32.5126931,7.53524667 28.597171,4.23337432 Z" id="形状结合" fill="#FFFFFF" opacity="0.04"></path>
                    <g id="编组-2" transform="translate(18.000000, 11.000000)" fill="#3F75DD">
                        <path d="M0,2 C0,3.1045695 0.8954305,4 2,4 C3.1045695,4 4,3.1045695 4,2 C4,0.8954305 3.1045695,0 2,0 C0.8954305,0 0,0.8954305 0,2 Z" id="路径"></path>
                        <path d="M2.8463145,6.49090909 L1.3463145,6.49090909 C1.2088145,6.49090909 1.0963145,6.65340909 1.0963145,6.8520202 L1.0963145,19.129798 C1.0963145,19.3284091 1.2088145,19.4909091 1.3463145,19.4909091 L2.8463145,19.4909091 C2.9838145,19.4909091 3.0963145,19.3284091 3.0963145,19.129798 L3.0963145,6.8520202 C3.0963145,6.65340909 2.9838145,6.49090909 2.8463145,6.49090909 Z" id="路径"></path>
                    </g>
                </g>
            </g>
        </g>
    </g>
</svg>