<?xml version="1.0" encoding="UTF-8"?>
<svg width="42px" height="42px" viewBox="0 0 42 42" version="1.1" xmlns="http://www.w3.org/2000/svg" xmlns:xlink="http://www.w3.org/1999/xlink">
    <title>23522402-5816-4092-BE43-C2E485014594</title>
    <g id="6.2" stroke="none" stroke-width="1" fill="none" fill-rule="evenodd">
        <g id="告警提示" transform="translate(-129.000000, -4335.000000)">
            <g id="带图标" transform="translate(129.000000, 4013.000000)">
                <g id="反馈/1.Alert警告提示/大-提示-#2" transform="translate(0.000000, 273.000000)">
                    <g id="success-circle-o" transform="translate(0.000000, 49.000000)">
                        <rect id="矩形" fill="#D8D8D8" opacity="0" x="0" y="0" width="42" height="42"></rect>
                        <g id="通用图标/info-circle-o" transform="translate(3.000000, 3.000000)">
                            <circle id="Oval备份" stroke="#2FC25B" stroke-width="2" fill="#FFFFFF" stroke-linecap="round" stroke-linejoin="round" cx="18" cy="18" r="19"></circle>
                            <path d="M26.4232739,2.0884363 C32.1199347,5.11040663 36,11.1020844 36,18 C36,27.9411255 27.9411255,36 18,36 C13.6626926,36 9.68368515,34.4659352 6.57596325,31.9107912 C9.08954857,33.2446804 11.9565671,34 15,34 C24.9411255,34 33,25.9411255 33,16 C33,10.4771525 30.5126931,5.53524667 26.597171,2.23337432 Z" id="形状结合" fill="#EAF8EC" fill-rule="nonzero"></path>
                            <g id="check" transform="translate(8.000000, 8.000000)" fill-rule="nonzero">
                                <rect id="矩形" fill="#000000" opacity="0" x="0" y="0" width="20" height="20"></rect>
                                <path d="M19.1910594,2.96875 L17.5849217,2.96875 C17.3597408,2.96875 17.1460486,3.07214942 17.0081827,3.24907732 L7.53449801,15.2503034 L2.99181679,9.49440234 C2.85165313,9.31747444 2.64025876,9.21407502 2.4150778,9.21407502 L0.808940125,9.21407502 C0.654989877,9.21407502 0.569972575,9.39100292 0.664180936,9.51048669 L6.95775902,17.4837309 C7.25187293,17.8559688 7.8171231,17.8559688 8.11353477,17.4837309 L19.3358186,3.26286391 C19.4300269,3.1456779 19.3450096,2.96875 19.1910594,2.96875 Z" id="路径" fill="#2FC25B"></path>
                            </g>
                        </g>
                    </g>
                </g>
            </g>
        </g>
    </g>
</svg>