<?xml version="1.0" encoding="UTF-8"?>
<svg width="42px" height="42px" viewBox="0 0 42 42" version="1.1" xmlns="http://www.w3.org/2000/svg" xmlns:xlink="http://www.w3.org/1999/xlink">
    <title>通用图标/success</title>
    <g id="控件" stroke="none" stroke-width="1" fill="none" fill-rule="evenodd">
        <g id="通用图标/success">
            <rect id="矩形" fill="#D8D8D8" opacity="0" x="0" y="0" width="42" height="42"></rect>
            <g id="通用图标/info-circle-o" transform="translate(1.000000, 1.000000)">
                <path d="M20,0 C8.954305,0 0,8.954305 0,20 C0,31.045695 8.954305,40 20,40 C31.045695,40 40,31.045695 40,20 C40,8.954305 31.045695,0 20,0 Z M20,2 C29.9411255,2 38,10.0588745 38,20 C38,29.9411255 29.9411255,38 20,38 C10.0588745,38 2,29.9411255 2,20 C2,10.0588745 10.0588745,2 20,2 Z" id="Oval备份" fill="#27C346"></path>
                <path d="M28.4232739,4.0884363 C34.1199347,7.11040663 38,13.1020844 38,20 C38,29.9411255 29.9411255,38 20,38 C15.6626926,38 11.6836851,36.4659352 8.57596325,33.9107912 C11.0895486,35.2446804 13.9565671,36 17,36 C26.9411255,36 35,27.9411255 35,18 C35,12.4771525 32.5126931,7.53524667 28.597171,4.23337432 Z" id="形状结合" fill-opacity="0.04" fill="#FFFFFF" fill-rule="nonzero"></path>
                <g id="check" transform="translate(10.000000, 10.000000)">
                    <rect id="矩形" fill="#000000" fill-rule="nonzero" opacity="0" x="0" y="0" width="20" height="20"></rect>
                    <path d="M19.1910594,2.96875 L17.5849217,2.96875 C17.3597408,2.96875 17.1460486,3.07214942 17.0081827,3.24907732 L7.53449801,15.2503034 L2.99181679,9.49440234 C2.85165313,9.31747444 2.64025876,9.21407502 2.4150778,9.21407502 L0.808940125,9.21407502 C0.654989877,9.21407502 0.569972575,9.39100292 0.664180936,9.51048669 L6.95775902,17.4837309 C7.25187293,17.8559688 7.8171231,17.8559688 8.11353477,17.4837309 L19.3358186,3.26286391 C19.4300269,3.1456779 19.3450096,2.96875 19.1910594,2.96875 Z" id="路径" fill="#27C346"></path>
                </g>
            </g>
        </g>
    </g>
</svg>