<?xml version="1.0" encoding="UTF-8"?>
<svg width="42px" height="42px" viewBox="0 0 42 42" version="1.1" xmlns="http://www.w3.org/2000/svg" xmlns:xlink="http://www.w3.org/1999/xlink">
    <title>711F01D5-D498-4C7D-AF0B-A422B730E7AF</title>
    <g id="6.2" stroke="none" stroke-width="1" fill="none" fill-rule="evenodd">
        <g id="告警提示" transform="translate(-129.000000, -4286.000000)">
            <g id="带图标" transform="translate(129.000000, 4013.000000)">
                <g id="waring-circle-o" transform="translate(0.000000, 273.000000)">
                    <rect id="矩形" fill="#D8D8D8" opacity="0" x="0" y="0" width="42" height="42"></rect>
                    <g id="通用图标/info-circle-o" transform="translate(3.000000, 3.000000)">
                        <circle id="Oval备份" stroke="#FFA235" stroke-width="2" fill="#FFFFFF" stroke-linecap="round" stroke-linejoin="round" cx="18" cy="18" r="19"></circle>
                        <path d="M26.4232739,2.0884363 C32.1199347,5.11040663 36,11.1020844 36,18 C36,27.9411255 27.9411255,36 18,36 C13.6626926,36 9.68368515,34.4659352 6.57596325,31.9107912 C9.08954857,33.2446804 11.9565671,34 15,34 C24.9411255,34 33,25.9411255 33,16 C33,10.4771525 30.5126931,5.53524667 26.597171,2.23337432 Z" id="形状结合" fill="#FFF5EA" fill-rule="nonzero"></path>
                        <g id="编组-2" transform="translate(17.500000, 16.500000) scale(1, -1) translate(-17.500000, -16.500000) translate(15.000000, 6.000000)" fill="#FFA235" fill-rule="nonzero">
                            <path d="M0.903685504,2.50909091 C0.903685504,3.61366041 1.799116,4.50909091 2.9036855,4.50909091 C4.008255,4.50909091 4.9036855,3.61366041 4.9036855,2.50909091 C4.9036855,1.40452141 4.008255,0.509090909 2.9036855,0.509090909 C1.799116,0.509090909 0.903685504,1.40452141 0.903685504,2.50909091 Z" id="路径"></path>
                            <path d="M3.75,7 L2.25,7 C2.1125,7 2,7.1625 2,7.36111111 L2,19.6388889 C2,19.8375 2.1125,20 2.25,20 L3.75,20 C3.8875,20 4,19.8375 4,19.6388889 L4,7.36111111 C4,7.1625 3.8875,7 3.75,7 Z" id="路径"></path>
                        </g>
                    </g>
                </g>
            </g>
        </g>
    </g>
</svg>