<?xml version="1.0" encoding="UTF-8"?>
<svg width="50px" height="50px" viewBox="0 0 50 50" version="1.1" xmlns="http://www.w3.org/2000/svg" xmlns:xlink="http://www.w3.org/1999/xlink">
    <title>编组 21</title>
    <g id="其他" stroke="none" stroke-width="1" fill="none" fill-rule="evenodd">
        <g id="48.forms.upload-img" transform="translate(-1396.000000, -1114.000000)">
            <g id="编组-21" transform="translate(1396.000000, 1114.000000)">
                <g id="编组-17">
                    <rect id="矩形" x="0" y="0" width="50" height="50"></rect>
                    <path d="M5.18095159,40.9780557 C9.34122689,39.7625587 16.2105187,39.7625587 19.5000387,39.7625587 C22.7895587,39.7625587 29.2718481,37.715406 37.4956482,38.7389823 C45.7194482,39.7625587 49.0089682,40.9780557 48.5252152,44.1127583 C48.0414623,47.247461 42.1396764,49.1666667 32.6581187,49.1666667 C23.1765611,49.1666667 20.1772928,47.8232227 14.2755069,47.375408 C8.37372101,46.9275933 2.76218687,46.7996463 1.31092805,45.2003082 C-0.140330781,43.6009701 1.02067628,42.1935526 5.18095159,40.9780557 Z" id="路径-15" fill="#273852"></path>
                    <g id="编组-13" transform="translate(6.000000, 2.638863)">
                        <polygon id="矩形备份-9" stroke="#1A6BDD" fill="#184481" stroke-linejoin="round" points="10.4529617 18.3827819 38.961039 18.3827819 38.961039 38.7638398 10.4529617 38.7638398"></polygon>
                        <g id="编组-20" transform="translate(16.794871, 0.000000)">
                            <path d="M16.565127,1.8760431 C16.97934,1.875331 17.3546281,2.04257928 17.626541,2.31355882 C17.8984538,2.58453837 18.0669915,2.95924918 18.0677034,3.37529675 L18.0677034,3.37529675 L18.048249,13.3514907 C18.0474431,13.764629 17.8796577,14.1385418 17.6087892,14.4093476 C17.3379207,14.6801534 16.9639691,14.8478521 16.5508306,14.8485624 L16.5508306,14.8485624 L2.57419661,14.8725906 C2.15998366,14.8733027 1.78469557,14.7060545 1.5127827,14.4350749 C1.24086983,14.1640954 1.07233217,13.7893846 1.07162028,13.373337 L1.07162028,13.373337 L1.09107467,3.39714302 C1.0918806,2.98400473 1.25966597,2.61009194 1.53053447,2.33928617 C1.80140296,2.06848039 2.1753546,1.90078162 2.58849306,1.90007136 L2.58849306,1.90007136 Z" id="矩形" stroke="#1A6BDD" fill="#223048" stroke-linejoin="round" transform="translate(9.569662, 8.374317) rotate(20.000000) translate(-9.569662, -8.374317) "></path>
                            <path d="M4.22019749,3.38255003 L15.2014602,3.36293007 C15.7537441,3.36194332 16.2022586,3.80885793 16.2032453,4.3611418 C16.2032475,4.36236304 16.2032475,4.36358428 16.2032452,4.36480552 L16.1882723,12.3416023 C16.1872383,12.8924558 15.7409143,13.3387394 15.1900607,13.3397236 L4.20879795,13.3593436 C3.65651409,13.3603304 3.20799963,12.9134157 3.20701288,12.3611319 C3.2070107,12.3599106 3.20701075,12.3586894 3.20701304,12.3574681 L3.22198593,4.38067138 C3.22301991,3.82981783 3.66934385,3.38353423 4.22019749,3.38255003 Z" id="矩形" fill="#1E2637" transform="translate(9.705129, 8.361137) rotate(20.000000) translate(-9.705129, -8.361137) "></path>
                            <ellipse id="椭圆形" fill="#2D4671" transform="translate(13.679476, 7.829062) rotate(20.000000) translate(-13.679476, -7.829062) " cx="13.6794757" cy="7.8290621" rx="1.47434664" ry="1.46792526"></ellipse>
                            <path d="M1.0959993,11.6909511 L5.33205358,6.27330444 C5.6722398,5.83822769 6.30071461,5.76130371 6.73579137,6.10148993 C6.8430361,6.18534451 6.9320299,6.29021357 6.99731999,6.40967162 L10.676542,13.1413623 L10.676542,13.1413623 L3.3048214,13.1548327 L2.56122797,13.1561915 C1.75348052,13.1576675 1.09747529,12.5040554 1.09599928,11.6963079 C1.09599602,11.6945223 1.09599603,11.6927367 1.0959993,11.6909511 L1.0959993,11.6909511 L1.0959993,11.6909511 Z" id="路径-7" fill="#2D4671" transform="translate(5.884924, 9.117372) rotate(20.000000) translate(-5.884924, -9.117372) "></path>
                            <path d="M11.1187245,9.63546281 C11.2432857,9.72122667 11.3467726,9.83412535 11.4213972,9.96566286 L14.3785462,15.1780962 L9.95257209,15.1780962 L8.23898246,12.0545499 L9.72797447,9.89200611 C10.041177,9.43711863 10.663837,9.32226028 11.1187245,9.63546281 Z" id="形状结合" fill="#2D4671" transform="translate(11.308764, 12.203823) rotate(20.000000) translate(-11.308764, -12.203823) "></path>
                        </g>
                        <polygon id="矩形备份-8" stroke="#0071EB" fill="#FFFFFF" stroke-linejoin="round" points="0 20.9960223 10.4529617 18.3827819 10.4529617 38.7638398 0 41.3770802"></polygon>
                    </g>
                </g>
                <g id="编组-19" transform="translate(18.652085, 20.051589) rotate(-30.000000) translate(-18.652085, -20.051589) translate(10.015721, 8.233407)">
                    <rect id="矩形" stroke="#1A6BDD" fill="#2D4671" x="-0.5" y="-0.5" width="18.2727273" height="24.6363636" rx="1"></rect>
                    <rect id="矩形" fill="#223048" x="2.72727273" y="2.72727273" width="11.8181818" height="18.1818182" rx="1"></rect>
                    <line x1="4.72727273" y1="5.90909091" x2="8.36363636" y2="5.90909091" id="路径-8" stroke="#1A6BDD" stroke-linecap="round"></line>
                    <line x1="4.54545455" y1="9.54545455" x2="13.6363636" y2="9.54545455" id="路径-9" stroke="#1A6BDD" stroke-linecap="round"></line>
                    <line x1="4.54545455" y1="13.1818182" x2="13.6363636" y2="13.1818182" id="路径-10" stroke="#1A6BDD" stroke-linecap="round"></line>
                    <line x1="4.54545455" y1="16.8181818" x2="13.6363636" y2="16.8181818" id="路径-11" stroke="#1A6BDD" stroke-linecap="round"></line>
                </g>
                <path d="M34.5080773,23.6348854 L34.5080773,44.0159434 L6,44.0159434 L6,23.6348854 L14,23.634 L14,26 C14,26.5128358 14.3860402,26.9355072 14.8833789,26.9932723 L15,27 L26,27 C26.5522847,27 27,26.5522847 27,26 L27,26 L27,23.634 L34.5080773,23.6348854 Z" id="形状结合" stroke="#1A6BDD" fill="#223048" stroke-linejoin="round"></path>
                <polyline id="路径-16" stroke="#1A6BDD" stroke-width="2" stroke-linecap="round" stroke-linejoin="round" points="17 35 20.5 31 24 35"></polyline>
                <line x1="20.5" y1="31" x2="20.5" y2="40" id="路径-17" stroke="#1A6BDD" stroke-width="2" stroke-linecap="round" stroke-linejoin="round"></line>
                <polygon id="矩形备份-7" stroke="#1A6BDD" fill="#1E2637" stroke-linejoin="round" points="34.5080773 23.6348854 44.961039 21.021645 44.961039 41.402703 34.5080773 44.0159434"></polygon>
                <g id="编组-22" transform="translate(46.333333, 8.000000) rotate(38.000000) translate(-46.333333, -8.000000) translate(45.000000, 6.000000)" stroke="#0071EB" stroke-linecap="round">
                    <line x1="0" y1="2" x2="2.66666667" y2="2" id="路径-18"></line>
                    <line x1="1.33333333" y1="0" x2="1.33333333" y2="4" id="路径-19"></line>
                </g>
                <g id="编组-23" transform="translate(9.000000, 4.000000)" stroke="#1A6BDD" stroke-linecap="round">
                    <line x1="0" y1="1.29903811" x2="3" y2="1.29903811" id="路径-20"></line>
                    <line x1="2.25" y1="1.8189894e-12" x2="0.75" y2="2.59807621" id="路径-21"></line>
                    <line x1="0.75" y1="0" x2="2.25" y2="2.59807621" id="路径-21"></line>
                </g>
                <g id="编组-23备份" transform="translate(1.000000, 20.000000)" stroke="#1A6BDD" stroke-linecap="round" stroke-width="0.5">
                    <line x1="0" y1="0.866025404" x2="2" y2="0.866025404" id="路径-20"></line>
                    <line x1="1.5" y1="1.13686838e-12" x2="0.5" y2="1.73205081" id="路径-21"></line>
                    <line x1="0.5" y1="0" x2="1.5" y2="1.73205081" id="路径-21"></line>
                </g>
            </g>
        </g>
    </g>
</svg>