<?xml version="1.0" encoding="UTF-8"?>
<svg width="105px" height="55px" viewBox="0 0 105 55" version="1.1" xmlns="http://www.w3.org/2000/svg" xmlns:xlink="http://www.w3.org/1999/xlink">
    <title>basic-bricks.sub-menu-filter</title>
    <defs>
        <rect id="path-1" x="0" y="0" width="37" height="7" rx="1"></rect>
    </defs>
    <g id="nora" stroke="none" stroke-width="1" fill="none" fill-rule="evenodd">
        <g id="-构件概览图四" transform="translate(-915.000000, -103.000000)">
            <g id="basic-bricks.sub-menu-filter" transform="translate(915.000000, 103.000000)">
                <rect id="矩形备份-46" x="0" y="0" width="105" height="55" rx="4"></rect>
                <path d="M4,0 L45,0 L45,0 L45,55 L4,55 C1.790861,55 1.15871992e-15,53.209139 0,51 L0,4 C-2.705415e-16,1.790861 1.790861,2.18216909e-15 4,0 Z" id="矩形备份-46" fill="#F4F5F9"></path>
                <rect id="矩形" fill="#D6DBEC" x="4" y="19" width="36" height="6" rx="1"></rect>
                <rect id="矩形备份-56" fill="#1A7AFF" x="4" y="27" width="30" height="6" rx="1"></rect>
                <rect id="矩形备份-72" fill="#D6DBEC" x="4" y="35" width="34" height="6" rx="1"></rect>
                <rect id="矩形备份-77" fill="#D6DBEC" x="4" y="43" width="26" height="6" rx="1"></rect>
                <g id="编组-8" transform="translate(4.000000, 6.000000)">
                    <g id="矩形备份-76">
                        <use stroke="#1A7AFF" stroke-width="2" xlink:href="#path-1"></use>
                        <rect stroke="#C6DEFF" stroke-width="1" x="-0.5" y="-0.5" width="38" height="8" rx="1"></rect>
                    </g>
                    <g id="编组-13" transform="translate(3.000000, 2.000000)" fill="#D6DBEC">
                        <rect id="矩形" x="0" y="0" width="1" height="3"></rect>
                        <rect id="矩形备份" x="2" y="0" width="1" height="3"></rect>
                        <rect id="矩形备份-2" x="4" y="0" width="1" height="3"></rect>
                        <rect id="矩形备份-3" x="8" y="0" width="1" height="3"></rect>
                        <rect id="矩形备份-6" x="10" y="0" width="1" height="3"></rect>
                        <rect id="矩形备份-7" x="6" y="0" width="1" height="3"></rect>
                        <rect id="矩形备份-8" x="12" y="0" width="1" height="3"></rect>
                        <rect id="矩形备份-9" x="14" y="0" width="1" height="3"></rect>
                    </g>
                    <g id="通用图标/search-Line" transform="translate(29.000000, 1.000000)">
                        <rect id="矩形" fill="#000000" fill-rule="nonzero" opacity="0" x="0" y="0" width="5" height="5"></rect>
                        <path d="M4.44140625,4.17236328 L3.17333984,2.90429687 C3.37011719,2.64990234 3.4765625,2.33886719 3.4765625,2.01171875 C3.4765625,1.62011719 3.32373047,1.25292969 3.04736328,0.976074219 C2.77099609,0.69921875 2.40283203,0.546875 2.01171875,0.546875 C1.62060547,0.546875 1.25244141,0.699707031 0.976074219,0.976074219 C0.69921875,1.25244141 0.546875,1.62011719 0.546875,2.01171875 C0.546875,2.40283203 0.699707031,2.77099609 0.976074219,3.04736328 C1.25244141,3.32421875 1.62011719,3.4765625 2.01171875,3.4765625 C2.33886719,3.4765625 2.64941406,3.37011719 2.90380859,3.17382812 L4.171875,4.44140625 C4.1875,4.45703125 4.21289062,4.45703125 4.22851562,4.44140625 L4.44140625,4.22900391 C4.45703125,4.21337891 4.45703125,4.18798828 4.44140625,4.17236328 Z M2.78515625,2.78515625 C2.578125,2.99169922 2.30371094,3.10546875 2.01171875,3.10546875 C1.71972656,3.10546875 1.4453125,2.99169922 1.23828125,2.78515625 C1.03173828,2.578125 0.91796875,2.30371094 0.91796875,2.01171875 C0.91796875,1.71972656 1.03173828,1.44482422 1.23828125,1.23828125 C1.4453125,1.03173828 1.71972656,0.91796875 2.01171875,0.91796875 C2.30371094,0.91796875 2.57861328,1.03125 2.78515625,1.23828125 C2.99169922,1.4453125 3.10546875,1.71972656 3.10546875,2.01171875 C3.10546875,2.30371094 2.99169922,2.57861328 2.78515625,2.78515625 Z" id="形状" fill="#595959"></path>
                    </g>
                </g>
            </g>
        </g>
    </g>
</svg>