<?xml version="1.0" encoding="UTF-8"?>
<svg width="105px" height="55px" viewBox="0 0 105 55" version="1.1" xmlns="http://www.w3.org/2000/svg" xmlns:xlink="http://www.w3.org/1999/xlink">
    <title>basic-bricks-widgets.general-custom-buttons-with-more-button</title>
    <g id="nora" stroke="none" stroke-width="1" fill="none" fill-rule="evenodd">
        <g id="-构件概览图七" transform="translate(-48.000000, -1490.000000)">
            <g id="basic-bricks-widgets.general-custom-buttons-with-more-button" transform="translate(48.000000, 1490.000000)">
                <rect id="矩形备份-46" x="0" y="0" width="105" height="55" rx="4"></rect>
                <g id="编组-31" transform="translate(10.000000, 17.000000)">
                    <circle id="椭圆形" fill="#F5F5F5" cx="12" cy="12" r="12"></circle>
                    <g id="通用图标/search-Line" transform="translate(5.000000, 5.000000)">
                        <rect id="矩形" fill="#000000" fill-rule="nonzero" opacity="0" x="0" y="0" width="14" height="14"></rect>
                        <path d="M12.4359375,11.6826172 L8.88535156,8.13203125 C9.43632812,7.41972656 9.734375,6.54882812 9.734375,5.6328125 C9.734375,4.53632812 9.30644531,3.50820313 8.53261719,2.73300781 C7.75878906,1.9578125 6.72792969,1.53125 5.6328125,1.53125 C4.53769531,1.53125 3.50683594,1.95917969 2.73300781,2.73300781 C1.9578125,3.50683594 1.53125,4.53632812 1.53125,5.6328125 C1.53125,6.72792969 1.95917969,7.75878906 2.73300781,8.53261719 C3.50683594,9.3078125 4.53632812,9.734375 5.6328125,9.734375 C6.54882812,9.734375 7.41835937,9.43632812 8.13066406,8.88671875 L11.68125,12.4359375 C11.725,12.4796875 11.7960937,12.4796875 11.8398437,12.4359375 L12.4359375,11.8412109 C12.4796875,11.7974609 12.4796875,11.7263672 12.4359375,11.6826172 Z M7.7984375,7.7984375 C7.21875,8.37675781 6.45039062,8.6953125 5.6328125,8.6953125 C4.81523438,8.6953125 4.046875,8.37675781 3.4671875,7.7984375 C2.88886719,7.21875 2.5703125,6.45039063 2.5703125,5.6328125 C2.5703125,4.81523437 2.88886719,4.04550781 3.4671875,3.4671875 C4.046875,2.88886719 4.81523438,2.5703125 5.6328125,2.5703125 C6.45039062,2.5703125 7.22011719,2.8875 7.7984375,3.4671875 C8.37675781,4.046875 8.6953125,4.81523437 8.6953125,5.6328125 C8.6953125,6.45039063 8.37675781,7.22011719 7.7984375,7.7984375 Z" id="形状" fill="#595959"></path>
                    </g>
                </g>
                <g id="编组-31" transform="translate(40.000000, 17.000000)">
                    <circle id="椭圆形" fill="#F5F5F5" cx="12" cy="12" r="12"></circle>
                    <g id="通用图标/search-Line" transform="translate(5.000000, 5.000000)">
                        <rect id="矩形" fill="#000000" fill-rule="nonzero" opacity="0" x="0" y="0" width="14" height="14"></rect>
                        <g id="time-circle">
                            <rect id="矩形" fill="#000000" fill-rule="nonzero" opacity="0" x="0" y="0" width="14" height="14"></rect>
                            <path d="M7,0.875 C10.3824219,0.875 13.125,3.61757813 13.125,7 C13.125,10.3824219 10.3824219,13.125 7,13.125 C3.61757813,13.125 0.875,10.3824219 0.875,7 C0.875,3.61757813 3.61757813,0.875 7,0.875 Z M7,1.9140625 C4.19179688,1.9140625 1.9140625,4.19179688 1.9140625,7 C1.9140625,9.80820312 4.19179688,12.0859375 7,12.0859375 C9.80820312,12.0859375 12.0859375,9.80820312 12.0859375,7 C12.0859375,4.19179688 9.80820312,1.9140625 7,1.9140625 Z M7.32949219,3.828125 C7.38964844,3.828125 7.43886719,3.87734375 7.43886719,3.9375 L7.43886719,3.9375 L7.43886719,7.32128906 L9.38847656,8.73085937 C9.43769531,8.76503906 9.44863281,8.83339844 9.41308594,8.88398437 L9.41308594,8.88398437 L9.02207031,9.4171875 C8.98652344,9.46503906 8.91816406,9.47597656 8.86894531,9.44042969 L8.86894531,9.44042969 L6.60761719,7.79160156 C6.57890625,7.77109375 6.5625,7.73828125 6.5625,7.70273437 L6.5625,7.70273437 L6.5625,3.9375 C6.5625,3.87734375 6.61171875,3.828125 6.671875,3.828125 L6.671875,3.828125 Z" id="形状结合" fill="#595959"></path>
                        </g>
                    </g>
                </g>
                <g id="编组-31" transform="translate(70.000000, 17.000000)">
                    <circle id="椭圆形" fill="#F5F5F5" cx="12" cy="12" r="12"></circle>
                    <g id="upload" transform="translate(5.000000, 5.000000)">
                        <rect id="矩形" fill="#000000" fill-rule="nonzero" opacity="0" x="0" y="0" width="14" height="14"></rect>
                        <path d="M5.46875,4.34355469 L6.47910156,4.34355469 L6.47910156,8.96875 C6.47910156,9.02890625 6.52832031,9.078125 6.58847656,9.078125 L7.40878906,9.078125 C7.46894531,9.078125 7.51816406,9.02890625 7.51816406,8.96875 L7.51816406,4.34355469 L8.53125,4.34355469 C8.62285156,4.34355469 8.6734375,4.23828125 8.61738281,4.1671875 L7.08613281,2.22851562 C7.04238281,2.17246094 6.95761719,2.17246094 6.91386719,2.22851562 L5.38261719,4.16582031 C5.3265625,4.23828125 5.37714844,4.34355469 5.46875,4.34355469 L5.46875,4.34355469 Z M12.0039062,8.55859375 L11.1835938,8.55859375 C11.1234375,8.55859375 11.0742188,8.6078125 11.0742188,8.66796875 L11.0742188,10.7734375 L2.92578125,10.7734375 L2.92578125,8.66796875 C2.92578125,8.6078125 2.8765625,8.55859375 2.81640625,8.55859375 L1.99609375,8.55859375 C1.9359375,8.55859375 1.88671875,8.6078125 1.88671875,8.66796875 L1.88671875,11.375 C1.88671875,11.6169922 2.08222656,11.8125 2.32421875,11.8125 L11.6757812,11.8125 C11.9177734,11.8125 12.1132812,11.6169922 12.1132812,11.375 L12.1132812,8.66796875 C12.1132812,8.6078125 12.0640625,8.55859375 12.0039062,8.55859375 Z" id="形状" fill="#595959"></path>
                    </g>
                </g>
            </g>
        </g>
    </g>
</svg>