<?xml version="1.0" encoding="UTF-8"?>
<svg width="105px" height="55px" viewBox="0 0 105 55" version="1.1" xmlns="http://www.w3.org/2000/svg" xmlns:xlink="http://www.w3.org/1999/xlink">
    <title>basic-bricks.general-title</title>
    <g id="nora" stroke="none" stroke-width="1" fill="none" fill-rule="evenodd">
        <g id="-构件概览图四" transform="translate(-789.000000, -103.000000)">
            <g id="basic-bricks.general-title" transform="translate(789.000000, 103.000000)">
                <rect id="矩形备份-46" x="0" y="0" width="105" height="55" rx="4"></rect>
                <rect id="矩形" fill="#778DC3" x="13" y="14" width="48" height="14" rx="1"></rect>
                <g id="编组-7" transform="translate(13.000000, 32.000000)" fill="#D6DBEC">
                    <rect id="矩形" x="0" y="0" width="1" height="8"></rect>
                    <rect id="矩形备份" x="2" y="0" width="1" height="8"></rect>
                    <rect id="矩形备份-2" x="4" y="0" width="1" height="8"></rect>
                    <rect id="矩形备份-3" x="8" y="0" width="1" height="8"></rect>
                    <rect id="矩形备份-6" x="10" y="0" width="1" height="8"></rect>
                    <rect id="矩形备份-7" x="6" y="0" width="1" height="8"></rect>
                    <rect id="矩形备份-8" x="12" y="0" width="1" height="8"></rect>
                    <rect id="矩形备份-9" x="14" y="0" width="1" height="8"></rect>
                    <rect id="矩形备份-10" x="16" y="0" width="1" height="8"></rect>
                    <rect id="矩形备份-11" x="18" y="0" width="1" height="8"></rect>
                    <rect id="矩形备份-12" x="20" y="0" width="1" height="8"></rect>
                    <rect id="矩形备份-13" x="22" y="0" width="1" height="8"></rect>
                    <rect id="矩形备份-14" x="24" y="0" width="1" height="8"></rect>
                    <rect id="矩形备份-18" x="30" y="0" width="1" height="8"></rect>
                    <rect id="矩形备份-30" x="36" y="0" width="1" height="8"></rect>
                    <rect id="矩形备份-33" x="42" y="0" width="1" height="8"></rect>
                    <rect id="矩形备份-39" x="58" y="0" width="1" height="8"></rect>
                    <rect id="矩形备份-52" x="74" y="0" width="1" height="8"></rect>
                    <rect id="矩形备份-36" x="48" y="0" width="1" height="8"></rect>
                    <rect id="矩形备份-40" x="64" y="0" width="1" height="8"></rect>
                    <rect id="矩形备份-15" x="26" y="0" width="1" height="8"></rect>
                    <rect id="矩形备份-28" x="32" y="0" width="1" height="8"></rect>
                    <rect id="矩形备份-31" x="38" y="0" width="1" height="8"></rect>
                    <rect id="矩形备份-41" x="54" y="0" width="1" height="8"></rect>
                    <rect id="矩形备份-65" x="70" y="0" width="1" height="8"></rect>
                    <rect id="矩形备份-34" x="44" y="0" width="1" height="8"></rect>
                    <rect id="矩形备份-42" x="60" y="0" width="1" height="8"></rect>
                    <rect id="矩形备份-66" x="76" y="0" width="1" height="8"></rect>
                    <rect id="矩形备份-37" x="50" y="0" width="1" height="8"></rect>
                    <rect id="矩形备份-43" x="66" y="0" width="1" height="8"></rect>
                    <rect id="矩形备份-16" x="28" y="0" width="1" height="8"></rect>
                    <rect id="矩形备份-29" x="34" y="0" width="1" height="8"></rect>
                    <rect id="矩形备份-32" x="40" y="0" width="1" height="8"></rect>
                    <rect id="矩形备份-44" x="56" y="0" width="1" height="8"></rect>
                    <rect id="矩形备份-73" x="72" y="0" width="1" height="8"></rect>
                    <rect id="矩形备份-35" x="46" y="0" width="1" height="8"></rect>
                    <rect id="矩形备份-45" x="62" y="0" width="1" height="8"></rect>
                    <rect id="矩形备份-74" x="78" y="0" width="1" height="8"></rect>
                    <rect id="矩形备份-38" x="52" y="0" width="1" height="8"></rect>
                    <rect id="矩形备份-47" x="68" y="0" width="1" height="8"></rect>
                </g>
            </g>
        </g>
    </g>
</svg>