<?xml version="1.0" encoding="UTF-8"?>
<svg width="105px" height="55px" viewBox="0 0 105 55" version="1.1" xmlns="http://www.w3.org/2000/svg" xmlns:xlink="http://www.w3.org/1999/xlink">
    <title>basic-bricks.general-modal</title>
    <g id="nora" stroke="none" stroke-width="1" fill="none" fill-rule="evenodd">
        <g id="构件概览图一" transform="translate(-1494.000000, -105.000000)">
            <g id="basic-bricks.general-modal" transform="translate(1494.000000, 105.000000)">
                <rect id="矩形备份-52" x="0" y="0" width="105" height="55" rx="4"></rect>
                <g id="编组-2备份" transform="translate(11.000000, 5.000000)">
                    <rect id="矩形" stroke="#F4F5F9" x="0.5" y="-0.5" width="79" height="46" rx="1"></rect>
                    <g id="编组-13" transform="translate(72.500000, 4.242641) rotate(-315.000000) translate(-72.500000, -4.242641) translate(69.500000, 1.242641)" fill="#D6DBEC">
                        <rect id="矩形" x="2.5" y="0" width="1" height="6"></rect>
                        <rect id="矩形" transform="translate(3.000000, 3.000000) rotate(-90.000000) translate(-3.000000, -3.000000) " x="2.5" y="0" width="1" height="6"></rect>
                    </g>
                    <rect id="矩形备份-28" fill="#F4F5F9" x="6" y="13.2426407" width="70" height="3" rx="1"></rect>
                    <rect id="矩形备份-37" fill="#F4F5F9" x="6" y="20.2426407" width="70" height="3" rx="1"></rect>
                    <rect id="矩形备份-38" fill="#F4F5F9" x="6" y="27.2426407" width="35" height="3" rx="1"></rect>
                    <rect id="矩形备份-39" fill="#F4F5F9" x="0" y="36" width="80" height="9" rx="1"></rect>
                    <rect id="矩形" fill="#1A7AFF" x="6" y="2.24264069" width="16" height="4" rx="1"></rect>
                    <rect id="矩形备份-4" fill="#1A7AFF" x="68" y="39" width="8" height="4" rx="1"></rect>
                    <rect id="矩形备份-5" fill="#D6DBEC" x="58" y="39" width="8" height="4" rx="1"></rect>
                    <line x1="1" y1="9.24264069" x2="79" y2="9.24264069" id="路径" stroke="#F4F5F9"></line>
                </g>
            </g>
        </g>
    </g>
</svg>