<?xml version="1.0" encoding="UTF-8"?>
<svg width="105px" height="55px" viewBox="0 0 105 55" version="1.1" xmlns="http://www.w3.org/2000/svg" xmlns:xlink="http://www.w3.org/1999/xlink">
    <title>basic-bricks.sub-menu</title>
    <defs>
        <rect id="path-1" x="0" y="0" width="105" height="55" rx="4"></rect>
    </defs>
    <g id="nora" stroke="none" stroke-width="1" fill="none" fill-rule="evenodd">
        <g id="-构件概览图九" transform="translate(-442.000000, -832.000000)">
            <g id="编组-22" transform="translate(442.000000, 832.000000)">
                <mask id="mask-2" fill="white">
                    <use xlink:href="#path-1"></use>
                </mask>
                <g id="矩形"></g>
                <path d="M1,0 L6,0 L6,0 L6,55 L1,55 C0.44771525,55 -2.65431532e-16,54.5522847 0,54 L0,1 C-6.76353751e-17,0.44771525 0.44771525,5.45542273e-16 1,0 Z" id="矩形备份-59" fill="#1A7AFF" mask="url(#mask-2)"></path>
                <rect id="矩形备份-59" fill="#F4F5F9" mask="url(#mask-2)" x="6" y="0" width="20" height="55"></rect>
                <rect id="矩形备份-48" fill="#D6DBEC" mask="url(#mask-2)" x="8" y="4" width="16" height="3" rx="1"></rect>
                <rect id="矩形备份-139" fill="#D6DBEC" mask="url(#mask-2)" x="8" y="9" width="16" height="3" rx="1"></rect>
                <rect id="矩形备份-141" fill="#D6DBEC" mask="url(#mask-2)" x="8" y="19" width="16" height="3" rx="1"></rect>
                <rect id="矩形备份-140" fill="#D6DBEC" mask="url(#mask-2)" x="8" y="14" width="16" height="3" rx="1"></rect>
                <rect id="矩形备份-142" fill="#D6DBEC" mask="url(#mask-2)" x="8" y="24" width="16" height="3" rx="1"></rect>
            </g>
        </g>
    </g>
</svg>