<?xml version="1.0" encoding="UTF-8"?>
<svg width="105px" height="55px" viewBox="0 0 105 55" version="1.1" xmlns="http://www.w3.org/2000/svg" xmlns:xlink="http://www.w3.org/1999/xlink">
    <title>basic-bricks.print-button</title>
    <g id="nora" stroke="none" stroke-width="1" fill="none" fill-rule="evenodd">
        <g id="-构件概览图九" transform="translate(-442.000000, -1462.000000)">
            <g id="basic-bricks.print-button" transform="translate(442.000000, 1462.000000)">
                <rect id="矩形" x="0" y="0" width="105" height="55" rx="4"></rect>
                <g id="24gf-printer" transform="translate(34.000000, 10.000000)" fill="#778DC3">
                    <path d="M8.33333332,6.66666668 L8.33333332,2.08333336 C8.33462493,0.93327556 9.26660884,0.00129163664 10.4166666,0 L26.25,0 C27.4000578,0.00129163664 28.3320417,0.93327556 28.3333333,2.08333336 L28.3333333,6.66666668 L8.33333332,6.66666668 Z M28.3333333,32.9166667 C28.3320417,34.0667245 27.4000578,34.9987084 26.25,35 L10.4166666,35 C9.26660885,34.9987084 8.33462495,34.0667245 8.33333332,32.9166667 L8.33333332,21.6666667 L28.3333333,21.6666667 L28.3333333,32.9166667 Z M20,29.1666667 C20,28.9456529 19.9122026,28.7336913 19.7559223,28.577411 C19.599642,28.4211307 19.3876804,28.3333333 19.1666667,28.3333333 L12.5,28.3333333 C12.0397627,28.3333333 11.6666667,28.7064294 11.6666667,29.1666667 C11.6666667,29.626904 12.0397627,30 12.5,30 L19.1666667,30 C19.3876804,30 19.599642,29.9122026 19.7559223,29.7559223 C19.9122026,29.599642 20,29.3876804 20,29.1666667 L20,29.1666667 Z M25,29.1666667 C25,28.9456529 24.9122026,28.7336913 24.7559223,28.577411 C24.599642,28.4211307 24.3876804,28.3333333 24.1666667,28.3333333 L22.5,28.3333333 C22.0397627,28.3333333 21.6666667,28.7064294 21.6666667,29.1666667 C21.6666667,29.626904 22.0397627,30 22.5,30 L24.1666667,30 C24.3876804,30 24.599642,29.9122026 24.7559223,29.7559223 C24.9122026,29.599642 25,29.3876804 25,29.1666667 L25,29.1666667 Z M25,24.1666667 C25,23.9456529 24.9122026,23.7336913 24.7559223,23.577411 C24.599642,23.4211307 24.3876804,23.3333334 24.1666667,23.3333334 L12.5,23.3333334 C12.0397627,23.3333334 11.6666667,23.7064294 11.6666667,24.1666667 C11.6666667,24.626904 12.0397627,25 12.5,25 L24.1666667,25 C24.3876804,25 24.599642,24.9122026 24.7559223,24.7559223 C24.9122026,24.599642 25,24.3876804 25,24.1666667 L25,24.1666667 Z M36.6666666,10.4166667 L36.6666666,24.5833334 C36.665375,25.7333911 35.7333911,26.665375 34.5833333,26.6666667 L30,26.6666667 L30,21.6666667 L30.8333333,21.6666667 C31.2935706,21.6666667 31.6666666,21.2935706 31.6666666,20.8333334 C31.6666666,20.373096 31.2935706,20 30.8333333,20 L5.83333332,20 C5.37309602,20 5,20.373096 5,20.8333334 C5,21.2935706 5.37309602,21.6666667 5.83333332,21.6666667 L6.66666664,21.6666667 L6.66666664,26.6666667 L2.08333332,26.6666667 C0.933275537,26.665375 0.0012916366,25.7333911 0,24.5833334 L0,10.4166667 C0.0012916366,9.26660889 0.933275537,8.33462499 2.08333332,8.33333336 L34.5833333,8.33333336 C35.7333911,8.33462499 36.665375,9.26660889 36.6666666,10.4166667 Z M33.3333333,12.5 C33.3333333,12.0397627 32.9602372,11.6666667 32.5,11.6666667 C32.0397627,11.6666667 31.6666667,12.0397628 31.6666667,12.5 C31.6666667,12.9602373 32.0397627,13.3333334 32.5,13.3333334 C32.7210137,13.3333334 32.9329753,13.245536 33.0892556,13.0892557 C33.245536,12.9329753 33.3333333,12.7210137 33.3333333,12.5 Z" id="形状"></path>
                </g>
            </g>
        </g>
    </g>
</svg>