<?xml version="1.0" encoding="UTF-8"?>
<svg width="105px" height="55px" viewBox="0 0 105 55" version="1.1" xmlns="http://www.w3.org/2000/svg" xmlns:xlink="http://www.w3.org/1999/xlink">
    <title>basic-bricks-widgets.general-custom-buttons-stretch</title>
    <g id="nora" stroke="none" stroke-width="1" fill="none" fill-rule="evenodd">
        <g id="-构件概览图七" transform="translate(-48.000000, -1589.000000)">
            <g id="basic-bricks-widgets.general-custom-buttons-stretch" transform="translate(48.000000, 1589.000000)">
                <rect id="矩形备份-46" x="0" y="0" width="105" height="55" rx="4"></rect>
                <rect id="矩形备份-59" stroke="#D6DBEC" x="6" y="20" width="93" height="16" rx="1"></rect>
                <g id="编组-2" transform="translate(36.000000, 23.000000)">
                    <text id="管理" fill-rule="nonzero" font-family="PingFangSC-Regular, PingFang SC" font-size="8" font-weight="normal" fill="#595959">
                        <tspan x="10" y="8">管理</tspan>
                    </text>
                    <polyline id="路径-2" stroke="#595959" stroke-width="0.7" stroke-linecap="round" stroke-linejoin="round" transform="translate(30.000000, 5.800000) rotate(-270.000000) translate(-30.000000, -5.800000) " points="28.8 3.8 31.2 5.8 28.8 7.8"></polyline>
                    <g id="setting" transform="translate(0.000000, 1.000000)">
                        <rect id="矩形" fill="#000000" fill-rule="nonzero" opacity="0" x="0" y="0" width="8" height="8"></rect>
                        <path d="M7.225,4.88828125 L6.71328125,4.45078125 C6.7375,4.30234375 6.75,4.15078125 6.75,3.99921875 C6.75,3.84765625 6.7375,3.69609375 6.71328125,3.54765625 L7.225,3.11015625 C7.30390625,3.04296875 7.3328125,2.93359375 7.29765625,2.83515625 L7.290625,2.81484375 C7.14921875,2.4203125 6.93984375,2.0578125 6.66796875,1.7375 L6.65390625,1.72109375 C6.58671875,1.6421875 6.478125,1.6125 6.3796875,1.646875 L5.74453125,1.87265625 C5.51015625,1.68046875 5.2484375,1.52890625 4.965625,1.42265625 L4.84296875,0.75859375 C4.82421875,0.65625 4.74375,0.5765625 4.64140625,0.5578125 L4.6203125,0.55390625 C4.21328125,0.48046875 3.78515625,0.48046875 3.378125,0.55390625 L3.35703125,0.5578125 C3.2546875,0.5765625 3.17421875,0.65625 3.15546875,0.75859375 L3.03203125,1.42578125 C2.7515625,1.53203125 2.49140625,1.6828125 2.25859375,1.87421875 L1.61875,1.646875 C1.52109375,1.6125 1.41171875,1.64140625 1.34453125,1.72109375 L1.33046875,1.7375 C1.05859375,2.05859375 0.84921875,2.42109375 0.7078125,2.81484375 L0.70078125,2.83515625 C0.665625,2.9328125 0.69453125,3.0421875 0.7734375,3.11015625 L1.29140625,3.55234375 C1.2671875,3.69921875 1.25546875,3.84921875 1.25546875,3.9984375 C1.25546875,4.1484375 1.2671875,4.2984375 1.29140625,4.44453125 L0.7734375,4.88671875 C0.69453125,4.95390625 0.665625,5.06328125 0.70078125,5.16171875 L0.7078125,5.18203125 C0.84921875,5.57578125 1.05859375,5.9390625 1.33046875,6.259375 L1.34453125,6.27578125 C1.41171875,6.3546875 1.5203125,6.384375 1.61875,6.35 L2.25859375,6.12265625 C2.49140625,6.3140625 2.7515625,6.465625 3.03203125,6.57109375 L3.15546875,7.23828125 C3.17421875,7.340625 3.2546875,7.4203125 3.35703125,7.4390625 L3.378125,7.44296875 C3.58203125,7.4796875 3.790625,7.4984375 3.99921875,7.4984375 C4.2078125,7.4984375 4.4171875,7.4796875 4.6203125,7.44296875 L4.64140625,7.4390625 C4.74375,7.4203125 4.82421875,7.340625 4.84296875,7.23828125 L4.965625,6.57421875 C5.2484375,6.46796875 5.51015625,6.3171875 5.74453125,6.12421875 L6.3796875,6.35 C6.47734375,6.384375 6.58671875,6.35546875 6.65390625,6.27578125 L6.66796875,6.259375 C6.93984375,5.93828125 7.14921875,5.57578125 7.290625,5.18203125 L7.29765625,5.16171875 C7.3328125,5.065625 7.30390625,4.95625 7.225,4.88828125 L7.225,4.88828125 Z M6.15859375,3.63984375 C6.178125,3.7578125 6.18828125,3.87890625 6.18828125,4 C6.18828125,4.12109375 6.178125,4.2421875 6.15859375,4.36015625 L6.10703125,4.6734375 L6.690625,5.17265625 C6.60234375,5.3765625 6.490625,5.56875 6.3578125,5.74765625 L5.6328125,5.490625 L5.3875,5.6921875 C5.20078125,5.8453125 4.99296875,5.965625 4.76796875,6.05 L4.4703125,6.16171875 L4.33046875,6.91953125 C4.1109375,6.94453125 3.88671875,6.94453125 3.66640625,6.91953125 L3.5265625,6.16015625 L3.23125,6.046875 C3.00859375,5.9625 2.8015625,5.8421875 2.61640625,5.68984375 L2.37109375,5.4875 L1.64140625,5.746875 C1.50859375,5.56796875 1.39765625,5.375 1.30859375,5.171875 L1.8984375,4.66796875 L1.84765625,4.35546875 C1.82890625,4.2390625 1.81875,4.11875 1.81875,4 C1.81875,3.88046875 1.828125,3.7609375 1.84765625,3.64453125 L1.8984375,3.33203125 L1.30859375,2.828125 C1.396875,2.62421875 1.50859375,2.43203125 1.64140625,2.253125 L2.37109375,2.5125 L2.61640625,2.31015625 C2.8015625,2.1578125 3.00859375,2.0375 3.23125,1.953125 L3.52734375,1.84140625 L3.6671875,1.08203125 C3.88671875,1.05703125 4.1109375,1.05703125 4.33125,1.08203125 L4.47109375,1.83984375 L4.76875,1.9515625 C4.99296875,2.0359375 5.2015625,2.15625 5.38828125,2.309375 L5.63359375,2.5109375 L6.35859375,2.25390625 C6.49140625,2.4328125 6.60234375,2.62578125 6.69140625,2.82890625 L6.1078125,3.328125 L6.15859375,3.63984375 Z M4,2.546875 C3.240625,2.546875 2.625,3.1625 2.625,3.921875 C2.625,4.68125 3.240625,5.296875 4,5.296875 C4.759375,5.296875 5.375,4.68125 5.375,3.921875 C5.375,3.1625 4.759375,2.546875 4,2.546875 Z M4.61875,4.540625 C4.453125,4.70546875 4.23359375,4.796875 4,4.796875 C3.76640625,4.796875 3.546875,4.70546875 3.38125,4.540625 C3.21640625,4.375 3.125,4.15546875 3.125,3.921875 C3.125,3.68828125 3.21640625,3.46875 3.38125,3.303125 C3.546875,3.1375 3.76640625,3.046875 4,3.046875 C4.23359375,3.046875 4.453125,3.1375 4.61875,3.303125 C4.78359375,3.46875 4.875,3.68828125 4.875,3.921875 C4.875,4.15546875 4.78359375,4.375 4.61875,4.540625 Z" id="形状" fill="#595959"></path>
                    </g>
                </g>
            </g>
        </g>
    </g>
</svg>