<?xml version="1.0" encoding="UTF-8"?>
<svg width="109px" height="61px" viewBox="0 0 109 61" version="1.1" xmlns="http://www.w3.org/2000/svg" xmlns:xlink="http://www.w3.org/1999/xlink">
    <title>presentational-bricks.datetime-selector</title>
    <defs>
        <rect id="path-1" x="6" y="21" width="93" height="28" rx="2"></rect>
        <filter x="-15.1%" y="-35.7%" width="130.1%" height="200.0%" filterUnits="objectBoundingBox" id="filter-2">
            <feOffset dx="0" dy="4" in="SourceAlpha" result="shadowOffsetOuter1"></feOffset>
            <feGaussianBlur stdDeviation="4" in="shadowOffsetOuter1" result="shadowBlurOuter1"></feGaussianBlur>
            <feColorMatrix values="0 0 0 0 0.6   0 0 0 0 0.6   0 0 0 0 0.6  0 0 0 0.5 0" type="matrix" in="shadowBlurOuter1"></feColorMatrix>
        </filter>
    </defs>
    <g id="nora" stroke="none" stroke-width="1" fill="none" fill-rule="evenodd">
        <g id="-构件概览图三" transform="translate(-157.000000, -103.000000)">
            <g id="presentational-bricks.datetime-selector" transform="translate(159.000000, 103.000000)">
                <rect id="矩形备份-46" fill="#FFFFFF" x="0" y="0" width="105" height="55" rx="4"></rect>
                <g id="矩形备份-46">
                    <use fill="black" fill-opacity="1" filter="url(#filter-2)" xlink:href="#path-1"></use>
                    <use fill="#FFFFFF" fill-rule="evenodd" xlink:href="#path-1"></use>
                </g>
                <rect id="矩形备份-62" fill="#F4F5F9" x="10" y="25" width="85" height="8" rx="1"></rect>
                <rect id="矩形备份-62" fill="#1A7AFF" x="54" y="25" width="20" height="8" rx="1"></rect>
                <rect id="矩形备份-147" fill="#F4F5F9" x="10" y="37" width="85" height="8" rx="1"></rect>
                <g id="编组-5" transform="translate(11.000000, 38.000000)" fill="#D6DBEC">
                    <rect id="矩形备份-76" x="0" y="0" width="1" height="6"></rect>
                    <rect id="矩形备份-90" x="2" y="0" width="1" height="6"></rect>
                    <rect id="矩形备份-91" x="4" y="0" width="1" height="6"></rect>
                    <rect id="矩形备份-92" x="6" y="0" width="1" height="6"></rect>
                    <rect id="矩形备份-93" x="8" y="0" width="1" height="6"></rect>
                    <rect id="矩形备份-94" x="10" y="0" width="1" height="6"></rect>
                    <rect id="矩形备份-95" x="12" y="0" width="1" height="6"></rect>
                    <rect id="矩形备份-96" x="14" y="0" width="1" height="6"></rect>
                    <rect id="矩形备份-97" x="16" y="0" width="1" height="6"></rect>
                    <rect id="矩形备份-98" x="18" y="0" width="1" height="6"></rect>
                </g>
                <g id="编组-5备份" transform="translate(62.000000, 38.000000)" fill="#D6DBEC">
                    <rect id="矩形备份-76" x="0" y="0" width="1" height="6"></rect>
                    <rect id="矩形备份-90" x="2" y="0" width="1" height="6"></rect>
                    <rect id="矩形备份-91" x="4" y="0" width="1" height="6"></rect>
                    <rect id="矩形备份-92" x="6" y="0" width="1" height="6"></rect>
                    <rect id="矩形备份-93" x="8" y="0" width="1" height="6"></rect>
                    <rect id="矩形备份-94" x="10" y="0" width="1" height="6"></rect>
                    <rect id="矩形备份-95" x="12" y="0" width="1" height="6"></rect>
                    <rect id="矩形备份-96" x="14" y="0" width="1" height="6"></rect>
                    <rect id="矩形备份-97" x="16" y="0" width="1" height="6"></rect>
                    <rect id="矩形备份-98" x="18" y="0" width="1" height="6"></rect>
                </g>
                <text id="～" stroke="#778DC3" fill-rule="nonzero" font-family="PingFang-SC-Medium, PingFang SC" font-size="8" font-weight="400" fill="#D6DBEC">
                    <tspan x="48" y="44">～</tspan>
                </text>
                <g id="编组-12" transform="translate(43.000000, 3.000000)">
                    <g id="编组-13" transform="translate(4.000000, 0.000000)" font-family="PingFang-SC-Medium, PingFang SC" font-weight="400">
                        <text id="XXXX" font-size="12" fill="#D6DBEC">
                            <tspan x="0" y="13">XXXX</tspan>
                        </text>
                        <text id="XXXX备份" font-size="6" fill="#FFFFFF">
                            <tspan x="9" y="28">XXXX</tspan>
                        </text>
                    </g>
                    <rect id="矩形备份-60" stroke="#F4F5F9" x="-0.5" y="2.5" width="56" height="13" rx="1"></rect>
                    <g id="通用图标/time-Line" transform="translate(44.000000, 4.500000)" fill="#778DC3">
                        <rect id="矩形" fill-rule="nonzero" opacity="0" x="0" y="0" width="9" height="9"></rect>
                        <g id="time-circle">
                            <rect id="矩形" fill-rule="nonzero" opacity="0" x="0" y="0" width="9" height="9"></rect>
                            <path d="M4.5,0.5625 C6.67441406,0.5625 8.4375,2.32558594 8.4375,4.5 C8.4375,6.67441406 6.67441406,8.4375 4.5,8.4375 C2.32558594,8.4375 0.5625,6.67441406 0.5625,4.5 C0.5625,2.32558594 2.32558594,0.5625 4.5,0.5625 Z M4.5,1.23046875 C2.69472656,1.23046875 1.23046875,2.69472656 1.23046875,4.5 C1.23046875,6.30527344 2.69472656,7.76953125 4.5,7.76953125 C6.30527344,7.76953125 7.76953125,6.30527344 7.76953125,4.5 C7.76953125,2.69472656 6.30527344,1.23046875 4.5,1.23046875 Z M4.71181641,2.4609375 C4.75048828,2.4609375 4.78212891,2.49257813 4.78212891,2.53125 L4.78212891,2.53125 L4.78212891,4.70654297 L6.03544922,5.61269531 C6.06708984,5.63466797 6.07412109,5.67861328 6.05126953,5.71113281 L6.05126953,5.71113281 L5.79990234,6.05390625 C5.77705078,6.08466797 5.73310547,6.09169922 5.70146484,6.06884766 L5.70146484,6.06884766 L4.24775391,5.00888672 C4.22929688,4.99570312 4.21875,4.97460937 4.21875,4.95175781 L4.21875,4.95175781 L4.21875,2.53125 C4.21875,2.49257813 4.25039063,2.4609375 4.2890625,2.4609375 L4.2890625,2.4609375 Z" id="形状结合"></path>
                        </g>
                    </g>
                </g>
            </g>
        </g>
    </g>
</svg>