<?xml version="1.0" encoding="UTF-8"?>
<svg width="105px" height="55px" viewBox="0 0 105 55" version="1.1" xmlns="http://www.w3.org/2000/svg" xmlns:xlink="http://www.w3.org/1999/xlink">
    <title>presentational-bricks.text-collapse</title>
    <g id="nora" stroke="none" stroke-width="1" fill="none" fill-rule="evenodd">
        <g id="-构件概览图九" transform="translate(-442.000000, -202.000000)">
            <g id="presentational-bricks.text-collapse" transform="translate(442.000000, 202.000000)">
                <rect id="矩形" x="0" y="0" width="105" height="55" rx="4"></rect>
                <polyline id="路径-2" stroke="#778DC3" stroke-width="1.5" stroke-linecap="round" stroke-linejoin="round" transform="translate(52.000000, 37.600000) rotate(-270.000000) translate(-52.000000, -37.600000) " points="48.4 31.6 55.6 37.6 48.4 43.6"></polyline>
                <g id="编组-12备份-8" transform="translate(8.000000, 8.000000)" fill="#778DC3">
                    <rect id="矩形备份-73" x="6" y="0" width="1" height="8"></rect>
                    <rect id="矩形备份-74" x="8" y="0" width="1" height="8"></rect>
                    <rect id="矩形备份-57" x="4" y="0" width="1" height="8"></rect>
                    <rect id="矩形备份-68" x="0" y="0" width="1" height="8"></rect>
                    <rect id="矩形备份-78" x="10" y="0" width="1" height="8"></rect>
                    <rect id="矩形备份-74" x="12" y="0" width="1" height="8"></rect>
                    <rect id="矩形备份-78" x="14" y="0" width="1" height="8"></rect>
                    <rect id="矩形备份-80" x="16" y="0" width="1" height="8"></rect>
                    <rect id="矩形备份-81" x="18" y="0" width="1" height="8"></rect>
                    <rect id="矩形备份-82" x="20" y="0" width="1" height="8"></rect>
                    <rect id="矩形备份-83" x="22" y="0" width="1" height="8"></rect>
                    <rect id="矩形备份-84" x="24" y="0" width="1" height="8"></rect>
                    <rect id="矩形备份-85" x="26" y="0" width="1" height="8"></rect>
                    <rect id="矩形备份-86" x="28" y="0" width="1" height="8"></rect>
                    <rect id="矩形备份-87" x="30" y="0" width="1" height="8"></rect>
                    <rect id="矩形备份-88" x="32" y="0" width="1" height="8"></rect>
                    <rect id="矩形备份-89" x="34" y="0" width="1" height="8"></rect>
                    <rect id="矩形备份-69" x="2" y="0" width="1" height="8"></rect>
                </g>
            </g>
        </g>
    </g>
</svg>