<?xml version="1.0" encoding="UTF-8"?>
<svg width="105px" height="55px" viewBox="0 0 105 55" version="1.1" xmlns="http://www.w3.org/2000/svg" xmlns:xlink="http://www.w3.org/1999/xlink">
    <title>presentational-bricks.general-label</title>
    <g id="lydia" stroke="none" stroke-width="1" fill="none" fill-rule="evenodd">
        <g id="构件概览图二" transform="translate(-145.000000, -537.000000)">
            <g id="presentational-bricks.general-label" transform="translate(145.000000, 537.000000)">
                <rect id="矩形备份-6" x="0" y="0" width="105" height="55" rx="4"></rect>
                <rect id="矩形备份-77" stroke="#D6DBEC" x="12" y="13" width="65" height="21" rx="1"></rect>
                <rect id="矩形备份-76" fill="#D6DBEC" x="18" y="18" width="1" height="10"></rect>
                <rect id="矩形备份-90" fill="#D6DBEC" x="20" y="18" width="1" height="10"></rect>
                <rect id="矩形备份-91" fill="#D6DBEC" x="22" y="18" width="1" height="10"></rect>
                <rect id="矩形备份-92" fill="#D6DBEC" x="24" y="18" width="1" height="10"></rect>
                <rect id="矩形备份-93" fill="#D6DBEC" x="26" y="18" width="1" height="10"></rect>
                <rect id="矩形备份-94" fill="#D6DBEC" x="28" y="18" width="1" height="10"></rect>
                <rect id="矩形备份-95" fill="#D6DBEC" x="30" y="18" width="1" height="10"></rect>
                <rect id="矩形备份-96" fill="#D6DBEC" x="32" y="18" width="1" height="10"></rect>
                <rect id="矩形备份-97" fill="#D6DBEC" x="34" y="18" width="1" height="10"></rect>
                <rect id="矩形备份-98" fill="#D6DBEC" x="36" y="18" width="1" height="10"></rect>
                <rect id="矩形备份-99" fill="#D6DBEC" x="38" y="18" width="1" height="10"></rect>
                <rect id="矩形备份-100" fill="#D6DBEC" x="40" y="18" width="1" height="10"></rect>
                <rect id="矩形备份-101" fill="#D6DBEC" x="42" y="18" width="1" height="10"></rect>
                <rect id="矩形备份-102" fill="#D6DBEC" x="44" y="18" width="1" height="10"></rect>
                <rect id="矩形备份-103" fill="#D6DBEC" x="46" y="18" width="1" height="10"></rect>
                <rect id="矩形备份-104" fill="#D6DBEC" x="48" y="18" width="1" height="10"></rect>
                <rect id="矩形备份-105" fill="#D6DBEC" x="50" y="18" width="1" height="10"></rect>
                <rect id="矩形备份-106" fill="#D6DBEC" x="52" y="18" width="1" height="10"></rect>
                <rect id="矩形备份-107" fill="#D6DBEC" x="54" y="18" width="1" height="10"></rect>
                <rect id="矩形备份-108" fill="#D6DBEC" x="56" y="18" width="1" height="10"></rect>
                <rect id="矩形备份-109" fill="#D6DBEC" x="58" y="18" width="1" height="10"></rect>
                <rect id="矩形备份-110" fill="#D6DBEC" x="60" y="18" width="1" height="10"></rect>
                <rect id="矩形备份-111" fill="#D6DBEC" x="62" y="18" width="1" height="10"></rect>
                <rect id="矩形备份-112" fill="#D6DBEC" x="64" y="18" width="1" height="10"></rect>
                <rect id="矩形备份-113" fill="#D6DBEC" x="66" y="18" width="1" height="10"></rect>
                <rect id="矩形备份-114" fill="#D6DBEC" x="68" y="18" width="1" height="10"></rect>
                <rect id="矩形备份-115" fill="#D6DBEC" x="70" y="18" width="1" height="10"></rect>
                <path d="M92.3333333,17.6666667 L93.5006667,17.6666667 C94.5133333,17.6666667 95.3333333,18.4873333 95.3333333,19.5015 L95.3333333,27.4983333 C95.3333333,28.5118333 94.513,29.3333333 93.5006667,29.3333333 L84.4993333,29.3333333 C83.4866667,29.3333333 82.6666667,28.5126667 82.6666667,27.4985 L82.6666667,19.5016667 C82.6666667,18.4881667 83.487,17.6666667 84.4993333,17.6666667 L85.6666667,17.6666667 L85.6666667,17.1666667 C85.6666667,16.8905243 85.8905243,16.6666667 86.1666667,16.6666667 C86.442809,16.6666667 86.6666667,16.8905243 86.6666667,17.1666667 L86.6666667,17.6666667 L91.3333333,17.6666667 L91.3333333,17.1666667 C91.3333333,16.8905243 91.557191,16.6666667 91.8333333,16.6666667 C92.1094757,16.6666667 92.3333333,16.8905243 92.3333333,17.1666667 L92.3333333,17.6666667 Z" id="路径" fill="#1A7AFF" fill-rule="nonzero"></path>
                <path d="M92.3333333,18.6666667 L92.3333333,19.1666667 C92.3333333,19.442809 92.1094757,19.6666667 91.8333333,19.6666667 C91.557191,19.6666667 91.3333333,19.442809 91.3333333,19.1666667 L91.3333333,18.6666667 L86.6666638,18.6666667 L86.6666638,19.1666667 C86.6666638,19.442809 86.442809,19.6666667 86.1666638,19.6666667 C85.8905243,19.6666667 85.6666638,19.442809 85.6666638,19.1666667 L85.6666638,18.6666667 L84.4993333,18.6666667 C84.2782022,18.6669317 84.0662358,18.7550414 83.9100757,18.9116078 C83.7539156,19.0681743 83.6663571,19.280369 83.6666638,19.5015 L83.6666638,27.4983333 C83.6660911,27.7195607 83.7535588,27.9319269 83.9097717,28.0885776 C84.0659846,28.2452282 84.2781052,28.3333333 84.4993333,28.3333333 L93.5006667,28.3333333 C93.7217978,28.3330683 93.9337642,28.2449586 94.0899243,28.0883922 C94.2460844,27.9318257 94.3336429,27.719631 94.3333362,27.4985 L94.3333362,19.5016667 C94.3339089,19.2804393 94.2464412,19.0680731 94.0902283,18.9114224 C93.9340154,18.7547718 93.7218948,18.6666667 93.5006667,18.6666667 L92.3333333,18.6666667 Z" id="路径" fill="#1A7AFF" fill-rule="nonzero"></path>
                <path d="M92.1666667,22.1666667 C92.442809,22.1666667 92.6666667,22.3905243 92.6666667,22.6666667 C92.6666667,22.942809 92.442809,23.1666667 92.1666667,23.1666667 L85.8333333,23.1666667 C85.557191,23.1666667 85.3333333,22.942809 85.3333333,22.6666667 C85.3333333,22.3905243 85.557191,22.1666667 85.8333333,22.1666667 L92.1666667,22.1666667 L92.1666667,22.1666667 Z" id="路径" fill="#1A7AFF" fill-rule="nonzero"></path>
                <path d="M90.1666667,24.6666667 C90.442809,24.6666667 90.6666667,24.8905243 90.6666667,25.1666667 C90.6666667,25.442809 90.442809,25.6666667 90.1666667,25.6666667 L85.8333333,25.6666667 C85.557191,25.6666667 85.3333333,25.442809 85.3333333,25.1666667 C85.3333333,24.8905243 85.557191,24.6666667 85.8333333,24.6666667 L90.1666667,24.6666667 Z" id="路径" fill="#1A7AFF" fill-rule="nonzero"></path>
            </g>
        </g>
    </g>
</svg>