<?xml version="1.0" encoding="UTF-8"?>
<svg width="105px" height="55px" viewBox="0 0 105 55" version="1.1" xmlns="http://www.w3.org/2000/svg" xmlns:xlink="http://www.w3.org/1999/xlink">
    <title>presentational-bricks.info-display-card-list</title>
    <g id="nora" stroke="none" stroke-width="1" fill="none" fill-rule="evenodd">
        <g id="-构件概览图四" transform="translate(-280.000000, -371.000000)">
            <g id="presentational-bricks.info-display-card-list" transform="translate(280.000000, 371.000000)">
                <rect id="矩形备份-46" x="0" y="0" width="105" height="55" rx="4"></rect>
                <g id="编组-14" transform="translate(6.000000, 6.000000)">
                    <rect id="矩形备份-104" fill="#D6DBEC" x="0" y="0" width="93" height="12" rx="1"></rect>
                    <circle id="椭圆形" fill="#1A7AFF" cx="7" cy="6" r="3"></circle>
                    <g id="编组-3" transform="translate(12.000000, 3.000000)" fill="#1A7AFF">
                        <rect id="矩形备份-76" x="0" y="0" width="1" height="6"></rect>
                        <rect id="矩形备份-90" x="2" y="0" width="1" height="6"></rect>
                        <rect id="矩形备份-91" x="4" y="0" width="1" height="6"></rect>
                        <rect id="矩形备份-92" x="6" y="0" width="1" height="6"></rect>
                        <rect id="矩形备份-93" x="8" y="0" width="1" height="6"></rect>
                        <rect id="矩形备份-94" x="10" y="0" width="1" height="6"></rect>
                        <rect id="矩形备份-95" x="12" y="0" width="1" height="6"></rect>
                        <rect id="矩形备份-96" x="14" y="0" width="1" height="6"></rect>
                        <rect id="矩形备份-97" x="16" y="0" width="1" height="6"></rect>
                        <rect id="矩形备份-98" x="18" y="0" width="1" height="6"></rect>
                        <rect id="矩形备份-99" x="20" y="0" width="1" height="6"></rect>
                        <rect id="矩形备份-100" x="22" y="0" width="1" height="6"></rect>
                        <rect id="矩形备份-101" x="24" y="0" width="1" height="6"></rect>
                        <rect id="矩形备份-102" x="26" y="0" width="1" height="6"></rect>
                        <rect id="矩形备份-103" x="28" y="0" width="1" height="6"></rect>
                        <rect id="矩形备份-104" x="30" y="0" width="1" height="6"></rect>
                    </g>
                    <rect id="矩形" fill="#778DC3" x="60" y="3" width="12" height="6" rx="1"></rect>
                    <rect id="矩形备份-21" fill="#778DC3" x="77" y="3" width="12" height="6" rx="1"></rect>
                </g>
                <g id="编组-14备份" transform="translate(6.000000, 22.000000)">
                    <rect id="矩形备份-104" fill="#F4F5F9" x="0" y="0" width="93" height="12" rx="1"></rect>
                    <circle id="椭圆形" fill="#D6DBEC" cx="7" cy="6" r="3"></circle>
                    <g id="编组-3" transform="translate(12.000000, 3.000000)" fill="#D6DBEC">
                        <rect id="矩形备份-76" x="0" y="0" width="1" height="6"></rect>
                        <rect id="矩形备份-90" x="2" y="0" width="1" height="6"></rect>
                        <rect id="矩形备份-91" x="4" y="0" width="1" height="6"></rect>
                        <rect id="矩形备份-92" x="6" y="0" width="1" height="6"></rect>
                        <rect id="矩形备份-93" x="8" y="0" width="1" height="6"></rect>
                        <rect id="矩形备份-94" x="10" y="0" width="1" height="6"></rect>
                        <rect id="矩形备份-95" x="12" y="0" width="1" height="6"></rect>
                        <rect id="矩形备份-96" x="14" y="0" width="1" height="6"></rect>
                        <rect id="矩形备份-97" x="16" y="0" width="1" height="6"></rect>
                        <rect id="矩形备份-98" x="18" y="0" width="1" height="6"></rect>
                        <rect id="矩形备份-99" x="20" y="0" width="1" height="6"></rect>
                        <rect id="矩形备份-100" x="22" y="0" width="1" height="6"></rect>
                        <rect id="矩形备份-101" x="24" y="0" width="1" height="6"></rect>
                        <rect id="矩形备份-102" x="26" y="0" width="1" height="6"></rect>
                        <rect id="矩形备份-103" x="28" y="0" width="1" height="6"></rect>
                        <rect id="矩形备份-104" x="30" y="0" width="1" height="6"></rect>
                    </g>
                    <rect id="矩形" fill="#D6DBEC" x="60" y="3" width="12" height="6" rx="1"></rect>
                    <rect id="矩形备份-21" fill="#D6DBEC" x="77" y="3" width="12" height="6" rx="1"></rect>
                </g>
                <g id="编组-14备份-2" transform="translate(6.000000, 38.000000)">
                    <rect id="矩形备份-104" fill="#F4F5F9" x="0" y="0" width="93" height="12" rx="1"></rect>
                    <circle id="椭圆形" fill="#D6DBEC" cx="7" cy="6" r="3"></circle>
                    <g id="编组-3" transform="translate(12.000000, 3.000000)" fill="#D6DBEC">
                        <rect id="矩形备份-76" x="0" y="0" width="1" height="6"></rect>
                        <rect id="矩形备份-90" x="2" y="0" width="1" height="6"></rect>
                        <rect id="矩形备份-91" x="4" y="0" width="1" height="6"></rect>
                        <rect id="矩形备份-92" x="6" y="0" width="1" height="6"></rect>
                        <rect id="矩形备份-93" x="8" y="0" width="1" height="6"></rect>
                        <rect id="矩形备份-94" x="10" y="0" width="1" height="6"></rect>
                        <rect id="矩形备份-95" x="12" y="0" width="1" height="6"></rect>
                        <rect id="矩形备份-96" x="14" y="0" width="1" height="6"></rect>
                        <rect id="矩形备份-97" x="16" y="0" width="1" height="6"></rect>
                        <rect id="矩形备份-98" x="18" y="0" width="1" height="6"></rect>
                        <rect id="矩形备份-99" x="20" y="0" width="1" height="6"></rect>
                        <rect id="矩形备份-100" x="22" y="0" width="1" height="6"></rect>
                        <rect id="矩形备份-101" x="24" y="0" width="1" height="6"></rect>
                        <rect id="矩形备份-102" x="26" y="0" width="1" height="6"></rect>
                        <rect id="矩形备份-103" x="28" y="0" width="1" height="6"></rect>
                        <rect id="矩形备份-104" x="30" y="0" width="1" height="6"></rect>
                    </g>
                    <rect id="矩形" fill="#D6DBEC" x="60" y="3" width="12" height="6" rx="1"></rect>
                    <rect id="矩形备份-21" fill="#D6DBEC" x="77" y="3" width="12" height="6" rx="1"></rect>
                </g>
            </g>
        </g>
    </g>
</svg>