<?xml version="1.0" encoding="UTF-8"?>
<svg width="105px" height="55px" viewBox="0 0 105 55" version="1.1" xmlns="http://www.w3.org/2000/svg" xmlns:xlink="http://www.w3.org/1999/xlink">
    <title>presentational-bricks.calendar[with-tag]</title>
    <g id="snippet截图" stroke="none" stroke-width="1" fill="none" fill-rule="evenodd">
        <g id="snippet" transform="translate(-7181.000000, -682.000000)">
            <g id="presentational-bricks.calendar[with-tag]" transform="translate(7181.000000, 682.000000)">
                <rect id="矩形" x="0" y="0" width="105" height="55" rx="4"></rect>
                <g id="编组-18" transform="translate(11.000000, 6.000000)">
                    <g id="编组-16" transform="translate(0.000000, 9.000000)" fill="#778DC3">
                        <rect id="矩形备份-76" x="0" y="0" width="10" height="1" rx="0.5"></rect>
                        <rect id="矩形备份-77" x="12" y="0" width="10" height="1" rx="0.5"></rect>
                        <rect id="矩形备份-78" x="24" y="0" width="10" height="1" rx="0.5"></rect>
                        <rect id="矩形备份-79" x="36" y="0" width="10" height="1" rx="0.5"></rect>
                        <rect id="矩形备份-80" x="48" y="0" width="10" height="1" rx="0.5"></rect>
                        <rect id="矩形备份-81" x="60" y="0" width="10" height="1" rx="0.5"></rect>
                        <rect id="矩形备份-82" x="72" y="0" width="10" height="1" rx="0.5"></rect>
                    </g>
                    <g id="编组-15" transform="translate(0.000000, 17.000000)" fill="#D6DBEC">
                        <rect id="矩形备份-76" x="0" y="0" width="10" height="1" rx="0.5"></rect>
                        <rect id="矩形备份-77" x="12" y="0" width="10" height="1" rx="0.5"></rect>
                        <rect id="矩形备份-78" x="24" y="0" width="10" height="1" rx="0.5"></rect>
                        <rect id="矩形备份-79" x="36" y="0" width="10" height="1" rx="0.5"></rect>
                        <rect id="矩形备份-80" x="48" y="0" width="10" height="1" rx="0.5"></rect>
                        <rect id="矩形备份-81" x="60" y="0" width="10" height="1" rx="0.5"></rect>
                        <rect id="矩形备份-82" x="72" y="0" width="10" height="1" rx="0.5"></rect>
                    </g>
                    <g id="编组-11" transform="translate(0.000000, 19.000000)">
                        <rect id="矩形备份-116" fill="#D6DBEC" x="0" y="6" width="10" height="1" rx="0.5"></rect>
                        <rect id="矩形备份-117" fill="#D6DBEC" x="12" y="6" width="10" height="1" rx="0.5"></rect>
                        <rect id="矩形备份-118" fill="#D6DBEC" x="24" y="6" width="10" height="1" rx="0.5"></rect>
                        <rect id="矩形备份-119" fill="#D6DBEC" x="36" y="6" width="10" height="1" rx="0.5"></rect>
                        <rect id="矩形备份-119" fill="#F24C25" fill-rule="nonzero" x="36" y="0" width="6" height="2" rx="1"></rect>
                        <rect id="矩形备份-119" fill="#52C41A" x="36" y="3" width="6" height="2" rx="1"></rect>
                        <rect id="矩形备份-120" fill="#D6DBEC" x="48" y="6" width="10" height="1" rx="0.5"></rect>
                        <rect id="矩形备份-121" fill="#D6DBEC" x="60" y="6" width="10" height="1" rx="0.5"></rect>
                        <rect id="矩形备份-122" fill="#D6DBEC" x="72" y="6" width="10" height="1" rx="0.5"></rect>
                    </g>
                    <g id="编组-12" transform="translate(0.000000, 27.000000)">
                        <rect id="矩形备份-123" fill="#D6DBEC" x="0" y="6" width="10" height="1" rx="0.5"></rect>
                        <rect id="矩形备份-124" fill="#D6DBEC" x="12" y="6" width="10" height="1" rx="0.5"></rect>
                        <rect id="矩形备份-147" fill="#52C41A" x="12" y="0" width="6" height="2" rx="1"></rect>
                        <rect id="矩形备份-125" fill="#D6DBEC" x="24" y="6" width="10" height="1" rx="0.5"></rect>
                        <rect id="矩形备份-126" fill="#D6DBEC" x="36" y="6" width="10" height="1" rx="0.5"></rect>
                        <rect id="矩形备份-127" fill="#D6DBEC" x="48" y="6" width="10" height="1" rx="0.5"></rect>
                        <rect id="矩形备份-128" fill="#D6DBEC" x="60" y="6" width="10" height="1" rx="0.5"></rect>
                        <rect id="矩形备份-129" fill="#D6DBEC" x="72" y="6" width="10" height="1" rx="0.5"></rect>
                    </g>
                    <g id="编组-19" transform="translate(0.000000, 35.000000)">
                        <rect id="矩形备份-130" fill="#D6DBEC" x="0" y="5" width="10" height="1" rx="0.5"></rect>
                        <rect id="矩形备份-131" fill="#D6DBEC" x="12" y="5" width="10" height="1" rx="0.5"></rect>
                        <rect id="矩形备份-132" fill="#D6DBEC" x="24" y="5" width="10" height="1" rx="0.5"></rect>
                        <rect id="矩形备份-133" fill="#D6DBEC" x="36" y="5" width="10" height="1" rx="0.5"></rect>
                        <rect id="矩形备份-134" fill="#F4F5F9" x="48" y="5" width="10" height="1" rx="0.5"></rect>
                        <rect id="矩形备份-135" fill="#F4F5F9" x="60" y="5" width="10" height="1" rx="0.5"></rect>
                        <rect id="矩形备份-148" fill="#1A7AFF" x="60" y="0" width="6" height="2" rx="1"></rect>
                        <rect id="矩形备份-136" fill="#F4F5F9" x="72" y="5" width="10" height="1" rx="0.5"></rect>
                    </g>
                    <g id="编组-13" transform="translate(2.000000, 0.000000)" fill="#778DC3" font-family="PingFang-SC-Medium, PingFang SC" font-size="6" font-weight="400">
                        <text id="二">
                            <tspan x="12" y="6">二</tspan>
                        </text>
                        <text id="一">
                            <tspan x="0" y="6">一</tspan>
                        </text>
                        <text id="三">
                            <tspan x="24" y="6">三</tspan>
                        </text>
                        <text id="四">
                            <tspan x="36" y="6">四</tspan>
                        </text>
                        <text id="五">
                            <tspan x="48" y="6">五</tspan>
                        </text>
                        <text id="六">
                            <tspan x="60" y="6">六</tspan>
                        </text>
                        <text id="七">
                            <tspan x="72" y="6">七</tspan>
                        </text>
                    </g>
                </g>
            </g>
        </g>
    </g>
</svg>