<?xml version="1.0" encoding="UTF-8"?>
<svg width="105px" height="55px" viewBox="0 0 105 55" version="1.1" xmlns="http://www.w3.org/2000/svg" xmlns:xlink="http://www.w3.org/1999/xlink">
    <title>brick:presentational-bricks.general-video</title>
    <g id="nora" stroke="none" stroke-width="1" fill="none" fill-rule="evenodd">
        <g id="-构件概览图九" transform="translate(-437.000000, -93.000000)">
            <g id="brick:presentational-bricks.general-video" transform="translate(437.000000, 93.000000)">
                <rect id="矩形" x="0" y="0" width="105" height="55" rx="4"></rect>
                <text id="0:00" font-family="PingFangSC-Regular, PingFang SC" font-size="10" font-weight="normal" fill="#778DC3">
                    <tspan x="21" y="37">0:00</tspan>
                </text>
                <g id="声音_实体" transform="translate(85.000000, 29.000000)" fill="#778DC3" fill-rule="nonzero">
                    <path d="M2.62842857,2.3772922 L5.36442857,0.181292196 C5.49301215,0.0780722145 5.66941017,0.0577740058 5.81807775,0.129090558 C5.96674533,0.200407109 6.06128572,0.350689768 6.06128572,0.51557791 L6.06128572,8.69100648 C6.06121586,8.85564988 5.96683356,9.00569805 5.81845652,9.07705426 C5.67007947,9.14841046 5.49394208,9.12845827 5.36528571,9.02572077 L2.55385714,6.78172077 L0.428571429,6.78172077 C0.191877964,6.78172077 -4.4408921e-16,6.5898428 -4.4408921e-16,6.35314934 L-4.4408921e-16,2.80586362 C-4.4408921e-16,2.56917016 0.191877964,2.3772922 0.428571429,2.3772922 L2.62842857,2.3772922 Z M8.12657143,7.2462922 C7.95702912,7.40790451 7.68914348,7.40346585 7.52504835,7.23632541 C7.36095322,7.06918498 7.36144066,6.80126302 7.52614286,6.63472077 C8.07818158,6.09429549 8.38877673,5.35396646 8.38757143,4.58143505 C8.38887998,3.86592311 8.12240817,3.17581769 7.64057143,2.64686362 C7.53540945,2.53389776 7.49910997,2.37311258 7.54553829,2.22592311 C7.5919666,2.07873364 7.7139509,1.96787628 7.86489693,1.93569515 C8.01584296,1.90351402 8.17243403,1.95498015 8.27485714,2.07043505 C8.9000726,2.75713558 9.24599891,3.65275301 9.24471785,4.58143505 C9.24588336,5.58401315 8.84278265,6.54471848 8.12657143,7.2462922 L8.12657143,7.2462922 Z M10.164,9.10457791 C10.0576771,9.21618517 9.89960855,9.26209675 9.75003999,9.22481411 C9.60047143,9.18753147 9.48244641,9.07279864 9.44094846,8.92434438 C9.3994505,8.77589011 9.44087307,8.61658633 9.54942857,8.50714934 C10.5731211,7.45705213 11.1450718,6.04794306 11.1428571,4.58143505 C11.1428571,3.12557791 10.5887143,1.75757791 9.61028571,0.719149338 C9.45097014,0.546431668 9.46043555,0.277639032 9.63150576,0.116555742 C9.80257598,-0.0445275485 10.0714517,-0.0378267668 10.2342857,0.13157791 C11.3614286,1.3272922 12,2.90443505 12,4.58143505 C12,6.29357791 11.3335714,7.90157791 10.164,9.10457791 Z" id="形状"></path>
                </g>
                <rect id="矩形" fill="#D6DBEC" x="8" y="43" width="89" height="4" rx="2"></rect>
                <path d="M12.8,30.0666667 L16.8,35.4 C17.1313708,35.8418278 17.0418278,36.4686292 16.6,36.8 C16.4269038,36.9298221 16.2163702,37 16,37 L8,37 C7.44771525,37 7,36.5522847 7,36 C7,35.7836298 7.07017787,35.5730962 7.2,35.4 L11.2,30.0666667 C11.5313708,29.6248389 12.1581722,29.5352958 12.6,29.8666667 C12.6758057,29.9235209 12.7431458,29.990861 12.8,30.0666667 Z" id="三角形" fill="#778DC3" transform="translate(12.000000, 33.000000) rotate(-270.000000) translate(-12.000000, -33.000000) "></path>
            </g>
        </g>
    </g>
</svg>