<?xml version="1.0" encoding="UTF-8"?>
<svg width="105px" height="55px" viewBox="0 0 105 55" version="1.1" xmlns="http://www.w3.org/2000/svg" xmlns:xlink="http://www.w3.org/1999/xlink">
    <title>presentational-bricks.brick-tree</title>
    <g id="nora" stroke="none" stroke-width="1" fill="none" fill-rule="evenodd">
        <g id="-构件概览图四" transform="translate(-159.000000, -232.000000)">
            <g id="presentational-bricks.brick-tree" transform="translate(159.000000, 232.000000)">
                <rect id="矩形备份-46" x="0" y="0" width="105" height="55" rx="4"></rect>
                <g id="编组-6" transform="translate(10.000000, 9.000000)">
                    <g id="编组-4">
                        <g id="编组-3" transform="translate(20.000000, 0.000000)" fill="#778DC3">
                            <rect id="矩形备份-76" x="0" y="0" width="1" height="6"></rect>
                            <rect id="矩形备份-90" x="2" y="0" width="1" height="6"></rect>
                            <rect id="矩形备份-91" x="4" y="0" width="1" height="6"></rect>
                            <rect id="矩形备份-92" x="6" y="0" width="1" height="6"></rect>
                            <rect id="矩形备份-93" x="8" y="0" width="1" height="6"></rect>
                            <rect id="矩形备份-94" x="10" y="0" width="1" height="6"></rect>
                            <rect id="矩形备份-95" x="12" y="0" width="1" height="6"></rect>
                            <rect id="矩形备份-96" x="14" y="0" width="1" height="6"></rect>
                            <rect id="矩形备份-97" x="16" y="0" width="1" height="6"></rect>
                            <rect id="矩形备份-98" x="18" y="0" width="1" height="6"></rect>
                            <rect id="矩形备份-99" x="20" y="0" width="1" height="6"></rect>
                            <rect id="矩形备份-100" x="22" y="0" width="1" height="6"></rect>
                            <rect id="矩形备份-101" x="24" y="0" width="1" height="6"></rect>
                            <rect id="矩形备份-102" x="26" y="0" width="1" height="6"></rect>
                            <rect id="矩形备份-103" x="28" y="0" width="1" height="6"></rect>
                            <rect id="矩形备份-104" x="30" y="0" width="1" height="6"></rect>
                            <rect id="矩形备份-105" x="32" y="0" width="1" height="6"></rect>
                            <rect id="矩形备份-106" x="34" y="0" width="1" height="6"></rect>
                            <rect id="矩形备份-107" x="36" y="0" width="1" height="6"></rect>
                            <rect id="矩形备份-108" x="38" y="0" width="1" height="6"></rect>
                        </g>
                        <g id="编组-5" transform="translate(31.000000, 10.000000)" fill="#D6DBEC">
                            <rect id="矩形备份-76" x="0" y="0" width="1" height="6"></rect>
                            <rect id="矩形备份-90" x="2" y="0" width="1" height="6"></rect>
                            <rect id="矩形备份-91" x="4" y="0" width="1" height="6"></rect>
                            <rect id="矩形备份-92" x="6" y="0" width="1" height="6"></rect>
                            <rect id="矩形备份-93" x="8" y="0" width="1" height="6"></rect>
                            <rect id="矩形备份-94" x="10" y="0" width="1" height="6"></rect>
                            <rect id="矩形备份-95" x="12" y="0" width="1" height="6"></rect>
                            <rect id="矩形备份-96" x="14" y="0" width="1" height="6"></rect>
                            <rect id="矩形备份-97" x="16" y="0" width="1" height="6"></rect>
                            <rect id="矩形备份-98" x="18" y="0" width="1" height="6"></rect>
                            <rect id="矩形备份-99" x="20" y="0" width="1" height="6"></rect>
                            <rect id="矩形备份-100" x="22" y="0" width="1" height="6"></rect>
                            <rect id="矩形备份-101" x="24" y="0" width="1" height="6"></rect>
                            <rect id="矩形备份-102" x="26" y="0" width="1" height="6"></rect>
                            <rect id="矩形备份-103" x="28" y="0" width="1" height="6"></rect>
                            <rect id="矩形备份-104" x="30" y="0" width="1" height="6"></rect>
                            <rect id="矩形备份-105" x="32" y="0" width="1" height="6"></rect>
                            <rect id="矩形备份-106" x="34" y="0" width="1" height="6"></rect>
                            <rect id="矩形备份-107" x="36" y="0" width="1" height="6"></rect>
                            <rect id="矩形备份-108" x="38" y="0" width="1" height="6"></rect>
                            <rect id="矩形备份-109" x="40" y="0" width="1" height="6"></rect>
                            <rect id="矩形备份-110" x="42" y="0" width="1" height="6"></rect>
                            <rect id="矩形备份-111" x="44" y="0" width="1" height="6"></rect>
                        </g>
                        <g id="编组-5备份" transform="translate(31.000000, 20.000000)" fill="#D6DBEC">
                            <rect id="矩形备份-76" x="0" y="0" width="1" height="6"></rect>
                            <rect id="矩形备份-90" x="2" y="0" width="1" height="6"></rect>
                            <rect id="矩形备份-91" x="4" y="0" width="1" height="6"></rect>
                            <rect id="矩形备份-92" x="6" y="0" width="1" height="6"></rect>
                            <rect id="矩形备份-93" x="8" y="0" width="1" height="6"></rect>
                            <rect id="矩形备份-94" x="10" y="0" width="1" height="6"></rect>
                            <rect id="矩形备份-95" x="12" y="0" width="1" height="6"></rect>
                            <rect id="矩形备份-96" x="14" y="0" width="1" height="6"></rect>
                            <rect id="矩形备份-97" x="16" y="0" width="1" height="6"></rect>
                            <rect id="矩形备份-98" x="18" y="0" width="1" height="6"></rect>
                            <rect id="矩形备份-99" x="20" y="0" width="1" height="6"></rect>
                            <rect id="矩形备份-100" x="22" y="0" width="1" height="6"></rect>
                            <rect id="矩形备份-101" x="24" y="0" width="1" height="6"></rect>
                            <rect id="矩形备份-102" x="26" y="0" width="1" height="6"></rect>
                            <rect id="矩形备份-103" x="28" y="0" width="1" height="6"></rect>
                            <rect id="矩形备份-104" x="30" y="0" width="1" height="6"></rect>
                            <rect id="矩形备份-105" x="32" y="0" width="1" height="6"></rect>
                            <rect id="矩形备份-106" x="34" y="0" width="1" height="6"></rect>
                            <rect id="矩形备份-107" x="36" y="0" width="1" height="6"></rect>
                            <rect id="矩形备份-108" x="38" y="0" width="1" height="6"></rect>
                            <rect id="矩形备份-109" x="40" y="0" width="1" height="6"></rect>
                        </g>
                        <path d="M4.36857707,1.40208408 L7.23195955,4.52577405 C7.41855575,4.72933354 7.40480428,5.04561723 7.20124479,5.23221343 C7.10902988,5.31674377 6.98847831,5.36363636 6.86338248,5.36363636 L1.13661752,5.36363636 C0.86047515,5.36363636 0.636617525,5.13977874 0.636617525,4.86363636 C0.636617525,4.73854053 0.683510118,4.61798896 0.768040455,4.52577405 L3.63142293,1.40208408 C3.81801913,1.19852458 4.13430282,1.18477312 4.33786231,1.37136932 C4.34854066,1.38115781 4.35878858,1.39140573 4.36857707,1.40208408 Z" id="三角形" fill="#D6DBEC" transform="translate(4.000000, 3.181818) rotate(-180.000000) translate(-4.000000, -3.181818) "></path>
                        <path d="M15.3685771,11.4020841 L18.2319595,14.525774 C18.4185557,14.7293335 18.4048043,15.0456172 18.2012448,15.2322134 C18.1090299,15.3167438 17.9884783,15.3636364 17.8633825,15.3636364 L12.1366175,15.3636364 C11.8604751,15.3636364 11.6366175,15.1397787 11.6366175,14.8636364 C11.6366175,14.7385405 11.6835101,14.617989 11.7680405,14.525774 L14.6314229,11.4020841 C14.8180191,11.1985246 15.1343028,11.1847731 15.3378623,11.3713693 C15.3485407,11.3811578 15.3587886,11.3914057 15.3685771,11.4020841 Z" id="三角形备份" fill="#D6DBEC" transform="translate(15.000000, 13.181818) rotate(-180.000000) translate(-15.000000, -13.181818) "></path>
                        <path d="M14.65,0 L11.35,0 C10.6044156,0 10,0.604415588 10,1.35 L10,4.65 C10,5.39558441 10.6044156,6 11.35,6 L14.65,6 C15.3955844,6 16,5.39558441 16,4.65 L16,1.35 C16,0.604415588 15.3955844,0 14.65,0 Z M15.068125,2.07075 L12.834625,4.303875 L12.825625,4.312125 L12.815875,4.32075 L12.804625,4.329 L12.794125,4.3365 L12.7825,4.343625 L12.771625,4.35 L12.75925,4.356 L12.748,4.36125 L12.734875,4.366125 L12.723625,4.37025 L12.710125,4.373625 L12.698875,4.37625 L12.684625,4.3785 L12.622375,4.3785 L12.60775,4.376625 L12.59725,4.376625 L12.582625,4.37325 L12.5725,4.370625 L12.557875,4.36575 L12.548125,4.362375 L12.533875,4.355625 L12.5245,4.351125 L12.51025,4.342875 L12.501625,4.338 C12.496375,4.334625 12.4915,4.330875 12.486625,4.327125 L12.479875,4.32225 C12.4728256,4.31659558 12.4660669,4.31058789 12.459625,4.30425 L11.275,3.11925 C11.2247532,3.06907385 11.196769,3.00081612 11.1973247,2.92980857 C11.1978972,2.85880102 11.2269623,2.79099651 11.278,2.741625 C11.3859019,2.64173413 11.5537609,2.64605954 11.656375,2.751375 L12.6475,3.742125 L14.6935,1.696125 C14.7604873,1.6291377 14.8581234,1.60297618 14.9496298,1.62749524 C15.0411361,1.65201429 15.1126107,1.72348889 15.1371298,1.81499524 C15.1616488,1.90650159 15.1354873,2.0041377 15.0685,2.071125 L15.068125,2.07075 Z" id="形状" fill="#1A7AFF"></path>
                        <path d="M25.65,10 L22.35,10 C21.6044156,10 21,10.6044156 21,11.35 L21,14.65 C21,15.3955844 21.6044156,16 22.35,16 L25.65,16 C26.3955844,16 27,15.3955844 27,14.65 L27,11.35 C27,10.6044156 26.3955844,10 25.65,10 Z M26.068125,12.07075 L23.834625,14.303875 L23.825625,14.312125 L23.815875,14.32075 L23.804625,14.329 L23.794125,14.3365 L23.7825,14.343625 L23.771625,14.35 L23.75925,14.356 L23.748,14.36125 L23.734875,14.366125 L23.723625,14.37025 L23.710125,14.373625 L23.698875,14.37625 L23.684625,14.3785 L23.622375,14.3785 L23.60775,14.376625 L23.59725,14.376625 L23.582625,14.37325 L23.5725,14.370625 L23.557875,14.36575 L23.548125,14.362375 L23.533875,14.355625 L23.5245,14.351125 L23.51025,14.342875 L23.501625,14.338 C23.496375,14.334625 23.4915,14.330875 23.486625,14.327125 L23.479875,14.32225 C23.4728256,14.3165956 23.4660669,14.3105879 23.459625,14.30425 L22.275,13.11925 C22.2247532,13.0690738 22.196769,13.0008161 22.1973247,12.9298086 C22.1978972,12.858801 22.2269623,12.7909965 22.278,12.741625 C22.3859019,12.6417341 22.5537609,12.6460595 22.656375,12.751375 L23.6475,13.742125 L25.6935,11.696125 C25.7604873,11.6291377 25.8581234,11.6029762 25.9496298,11.6274952 C26.0411361,11.6520143 26.1126107,11.7234889 26.1371298,11.8149952 C26.1616488,11.9065016 26.1354873,12.0041377 26.0685,12.071125 L26.068125,12.07075 Z" id="形状备份" fill="#D6DBEC"></path>
                    </g>
                    <g id="编组-4备份" transform="translate(2.818182, 28.181818)">
                        <g id="编组-5" transform="translate(17.181818, 0.818182)" fill="#D6DBEC">
                            <rect id="矩形备份-76" x="0" y="0" width="1" height="6"></rect>
                            <rect id="矩形备份-90" x="2" y="0" width="1" height="6"></rect>
                            <rect id="矩形备份-91" x="4" y="0" width="1" height="6"></rect>
                            <rect id="矩形备份-92" x="6" y="0" width="1" height="6"></rect>
                            <rect id="矩形备份-93" x="8" y="0" width="1" height="6"></rect>
                            <rect id="矩形备份-94" x="10" y="0" width="1" height="6"></rect>
                            <rect id="矩形备份-95" x="12" y="0" width="1" height="6"></rect>
                            <rect id="矩形备份-96" x="14" y="0" width="1" height="6"></rect>
                            <rect id="矩形备份-97" x="16" y="0" width="1" height="6"></rect>
                            <rect id="矩形备份-98" x="18" y="0" width="1" height="6"></rect>
                            <rect id="矩形备份-99" x="20" y="0" width="1" height="6"></rect>
                            <rect id="矩形备份-100" x="22" y="0" width="1" height="6"></rect>
                            <rect id="矩形备份-101" x="24" y="0" width="1" height="6"></rect>
                            <rect id="矩形备份-102" x="26" y="0" width="1" height="6"></rect>
                            <rect id="矩形备份-103" x="28" y="0" width="1" height="6"></rect>
                        </g>
                        <path d="M2.55039525,2.22026589 L5.41377773,5.34395587 C5.60037393,5.54751536 5.58662247,5.86379905 5.38306297,6.05039525 C5.29084806,6.13492559 5.17029649,6.18181818 5.04520066,6.18181818 L-0.681564293,6.18181818 C-0.957706668,6.18181818 -1.18156429,5.95796056 -1.18156429,5.68181818 C-1.18156429,5.55672235 -1.1346717,5.43617078 -1.05014136,5.34395587 L1.81324111,2.22026589 C1.99983732,2.0167064 2.316121,2.00295494 2.5196805,2.18955114 C2.53035885,2.19933963 2.54060677,2.20958755 2.55039525,2.22026589 Z" id="三角形备份" fill="#D6DBEC" transform="translate(2.181818, 4.000000) rotate(-270.000000) translate(-2.181818, -4.000000) "></path>
                        <path d="M11.8318182,1.31818182 C12.0665392,1.31818182 12.2790392,1.41332131 12.4328589,1.56714105 C12.5866787,1.7209608 12.6818182,1.9334608 12.6818182,2.16818182 L12.6818182,2.16818182 L12.6818182,5.46818182 C12.6818182,5.70290284 12.5866787,5.91540284 12.4328589,6.06922258 C12.2790392,6.22304233 12.0665392,6.31818182 11.8318182,6.31818182 L11.8318182,6.31818182 L8.53181818,6.31818182 C8.29709716,6.31818182 8.08459716,6.22304233 7.93077742,6.06922258 C7.77695767,5.91540284 7.68181818,5.70290284 7.68181818,5.46818182 L7.68181818,5.46818182 L7.68181818,2.16818182 C7.68181818,1.9334608 7.77695767,1.7209608 7.93077742,1.56714105 C8.08459716,1.41332131 8.29709716,1.31818182 8.53181818,1.31818182 L8.53181818,1.31818182 Z" id="路径" stroke="#D6DBEC"></path>
                    </g>
                </g>
            </g>
        </g>
    </g>
</svg>