<?xml version="1.0" encoding="UTF-8"?>
<svg width="105px" height="55px" viewBox="0 0 105 55" version="1.1" xmlns="http://www.w3.org/2000/svg" xmlns:xlink="http://www.w3.org/1999/xlink">
    <title>presentational-bricks.brick-quick-entries</title>
    <g id="nora" stroke="none" stroke-width="1" fill="none" fill-rule="evenodd">
        <g id="-构件概览图四" transform="translate(-1480.000000, -103.000000)">
            <g id="presentational-bricks.brick-quick-entries" transform="translate(1480.000000, 103.000000)">
                <rect id="矩形备份-46" x="0" y="0" width="105" height="55" rx="4"></rect>
                <g id="编组-17" transform="translate(12.000000, 6.000000)">
                    <rect id="矩形备份-104" fill="#F4F5F9" x="0" y="0" width="38" height="20" rx="1"></rect>
                    <rect id="矩形备份-106" fill="#F4F5F9" x="0" y="24" width="38" height="20" rx="1"></rect>
                    <rect id="矩形备份-105" fill="#1A7AFF" x="42" y="0" width="38" height="20" rx="1"></rect>
                    <g id="进入" transform="translate(53.000000, 3.000000)" fill="#FFFFFF" fill-rule="nonzero">
                        <path d="M12.0342466,0 C12.3112633,0 12.5696347,0.0532724505 12.8093607,0.159817352 C13.0490868,0.266362253 13.2595129,0.410197869 13.4406393,0.591324201 C13.6217656,0.772450533 13.7656012,0.982876712 13.8721461,1.22260274 C13.978691,1.46232877 14.0319635,1.72070015 14.0319635,1.99771689 L14.0319635,12.0022831 C14.0319635,12.2792998 13.978691,12.5376712 13.8721461,12.7773973 C13.7656012,13.0171233 13.6217656,13.2275495 13.4406393,13.4086758 C13.2595129,13.5898021 13.0490868,13.7336377 12.8093607,13.8401826 C12.5696347,13.9467275 12.3112633,14 12.0342466,14 L5.03424658,14 C4.75722983,14 4.49885845,13.9467275 4.25913242,13.8401826 C4.01940639,13.7336377 3.80898021,13.5898021 3.62785388,13.4086758 C3.44672755,13.2275495 3.30289193,13.0171233 3.19634703,12.7773973 C3.08980213,12.5376712 3.03652968,12.2792998 3.03652968,12.0022831 L3.03652968,8.99771689 L5.03424658,8.99771689 L5.03424658,12.0022831 L12.0342466,12.0022831 L12.0342466,1.99771689 L5.03424658,1.99771689 L5.03424658,5.00228311 L3.03652968,5.00228311 L3.03652968,1.99771689 C3.03652968,1.72070015 3.08980213,1.46232877 3.19634703,1.22260274 C3.30289193,0.982876712 3.44672755,0.772450533 3.62785388,0.591324201 C3.80898021,0.410197869 4.01940639,0.266362253 4.25913242,0.159817352 C4.49885845,0.0532724505 4.75722983,0 5.03424658,0 L12.0342466,0 L12.0342466,0 Z M7,8.59817352 C7,8.3957382 6.94939117,8.24657534 6.84817352,8.15068493 C6.74695586,8.05479452 6.6217656,8.00684932 6.47260274,8.00684932 L0.559360731,8.00684932 C0.410197869,8.00684932 0.279680365,7.96689498 0.167808219,7.8869863 C0.0559360731,7.80707763 0,7.67123288 0,7.47945205 L0,6.66438356 C0,6.35540335 0.0479452055,6.1609589 0.143835616,6.08105023 C0.239726027,6.00114155 0.426179604,5.96118721 0.703196347,5.96118721 L1.19863014,5.96118721 C1.4543379,5.96118721 1.75799087,5.96385084 2.10958904,5.96917808 C2.46118721,5.97450533 2.84474886,5.97983257 3.26027397,5.98515982 C3.67579909,5.99048706 4.07800609,5.99581431 4.46689498,6.00114155 C4.85578387,6.0064688 5.21537291,6.00913242 5.5456621,6.00913242 L6.34474886,6.00913242 C6.57914764,6.00913242 6.74695586,5.9238965 6.84817352,5.75342466 C6.94939117,5.58295282 7,5.39649924 7,5.19406393 L7,4.42694064 C7,4.21385084 7.04528158,4.08066971 7.13584475,4.02739726 C7.22640791,3.97412481 7.36225266,4.02207002 7.543379,4.17123288 C7.72450533,4.32039574 7.9695586,4.49086758 8.27853881,4.6826484 C8.58751903,4.87442922 8.90981735,5.07153729 9.24543379,5.2739726 C9.58105023,5.47640791 9.9086758,5.6761796 10.2283105,5.87328767 C10.5479452,6.07039574 10.803653,6.24885845 10.9954338,6.4086758 C11.1445967,6.52587519 11.2191781,6.68569254 11.2191781,6.88812785 C11.2191781,7.09056317 11.1605784,7.23972603 11.043379,7.33561644 C10.8729072,7.4847793 10.641172,7.65258752 10.3481735,7.8390411 C10.055175,8.02549467 9.74619482,8.21727549 9.42123288,8.41438356 C9.09627093,8.61149163 8.77929985,8.80593607 8.47031963,8.99771689 C8.16133942,9.18949772 7.9109589,9.3652968 7.71917808,9.52511416 C7.47412481,9.72754947 7.29299848,9.83143075 7.17579909,9.83675799 C7.0585997,9.84208524 7,9.68493151 7,9.3652968 L7,8.59817352 L7,8.59817352 Z" id="形状"></path>
                    </g>
                    <rect id="矩形备份-107" fill="#F4F5F9" x="42" y="24" width="38" height="20" rx="1"></rect>
                </g>
            </g>
        </g>
    </g>
</svg>