<?xml version="1.0" encoding="UTF-8"?>
<svg width="105px" height="55px" viewBox="0 0 105 55" version="1.1" xmlns="http://www.w3.org/2000/svg" xmlns:xlink="http://www.w3.org/1999/xlink">
    <title>presentational-bricks.general-label[prefix-icon]</title>
    <g id="snippet截图" stroke="none" stroke-width="1" fill="none" fill-rule="evenodd">
        <g id="画板" transform="translate(-37.000000, -149.000000)">
            <g id="presentational-bricks.general-label[prefix-icon]" transform="translate(37.000000, 149.000000)">
                <rect id="矩形备份-22" x="0" y="0" width="105" height="55" rx="4"></rect>
                <g id="标签" transform="translate(20.000000, 19.000000)" fill="#778DC3" fill-rule="nonzero">
                    <path d="M14.7068493,0.832876703 C14.6849315,0.547945203 14.4657534,0.328767109 14.1808219,0.306849313 L7.84657534,0 C7.69315069,0 7.53972603,0.0438356094 7.43013698,0.153424656 L0.153424656,7.4520548 C0.0438356094,7.56164384 0,7.69315069 0,7.84657534 C0,8 0.0657534219,8.13150684 0.153424656,8.24109589 L6.86027397,14.9479452 C6.96986302,15.0575342 7.10136986,15.1013699 7.25479452,15.1013699 C7.40821917,15.1013699 7.53972602,15.0575342 7.64931508,14.9479452 L14.9260274,7.67123288 C15.0356165,7.56164383 15.1013699,7.40821917 15.0794521,7.25479452 L14.7068493,0.832876703 Z M7.23287672,13.7643836 L1.3150685,7.84657534 L8.02191781,1.09589041 L13.6328767,1.38082192 L13.939726,7.03561644 L7.23287672,13.7643836 Z" id="形状"></path>
                    <path d="M8.67945206,3.76986302 C7.93424658,4.5150685 7.93424658,5.69863014 8.67945206,6.44383561 C9.030137,6.79452055 9.51232878,6.99178081 10.0164384,6.99178081 C10.5205479,6.99178081 11.0027397,6.79452053 11.3534247,6.44383561 C11.7041096,6.09315067 11.9013699,5.61095889 11.9013699,5.10684931 C11.9013699,4.60273973 11.7041096,4.12054794 11.3534247,3.76986302 C10.630137,3.04657534 9.42465753,3.04657534 8.67945206,3.76986302 L8.67945206,3.76986302 Z M10.5863014,5.67671233 C10.2794521,5.98356164 9.75342466,5.98356164 9.46849316,5.67671233 C9.16164384,5.36986302 9.16164384,4.86575342 9.46849316,4.55890411 C9.62191781,4.40547945 9.81917809,4.31780822 10.0383562,4.31780822 C10.2356165,4.31780822 10.4547945,4.40547945 10.6082192,4.55890411 C10.7616438,4.71232877 10.8493151,4.90958905 10.8493151,5.12876712 C10.8493151,5.3479452 10.739726,5.52328767 10.5863014,5.67671233 L10.5863014,5.67671233 Z" id="形状"></path>
                </g>
                <text id="1.0.1" fill="#778DC3" fill-rule="nonzero" font-family="PingFang-SC-Medium, PingFang SC" font-size="16" font-weight="400">
                    <tspan x="43" y="33">1.0.1</tspan>
                </text>
            </g>
        </g>
    </g>
</svg>