<?xml version="1.0" encoding="UTF-8"?>
<svg width="105px" height="55px" viewBox="0 0 105 55" version="1.1" xmlns="http://www.w3.org/2000/svg" xmlns:xlink="http://www.w3.org/1999/xlink">
    <title>presentational-bricks.markdown-display</title>
    <g id="lydia" stroke="none" stroke-width="1" fill="none" fill-rule="evenodd">
        <g id="构件概览图二" transform="translate(-336.000000, -537.000000)">
            <g id="presentational-bricks.markdown-display" transform="translate(336.000000, 537.000000)">
                <rect id="矩形备份-10" x="0" y="0" width="105" height="55" rx="4"></rect>
                <rect id="矩形备份-76" fill="#778DC3" x="25" y="9" width="1" height="10"></rect>
                <rect id="矩形备份-90" fill="#778DC3" x="27" y="9" width="1" height="10"></rect>
                <rect id="矩形备份-91" fill="#778DC3" x="29" y="9" width="1" height="10"></rect>
                <rect id="矩形备份-92" fill="#778DC3" x="31" y="9" width="1" height="10"></rect>
                <rect id="矩形备份-93" fill="#778DC3" x="33" y="9" width="1" height="10"></rect>
                <rect id="矩形备份-94" fill="#778DC3" x="35" y="9" width="1" height="10"></rect>
                <rect id="矩形备份-95" fill="#778DC3" x="37" y="9" width="1" height="10"></rect>
                <rect id="矩形备份-96" fill="#778DC3" x="39" y="9" width="1" height="10"></rect>
                <rect id="矩形备份-97" fill="#778DC3" x="41" y="9" width="1" height="10"></rect>
                <rect id="矩形备份-98" fill="#778DC3" x="43" y="9" width="1" height="10"></rect>
                <rect id="矩形备份-99" fill="#778DC3" x="45" y="9" width="1" height="10"></rect>
                <rect id="矩形备份-100" fill="#778DC3" x="47" y="9" width="1" height="10"></rect>
                <rect id="矩形备份-101" fill="#778DC3" x="49" y="9" width="1" height="10"></rect>
                <rect id="矩形备份-102" fill="#778DC3" x="51" y="9" width="1" height="10"></rect>
                <rect id="矩形备份-103" fill="#778DC3" x="53" y="9" width="1" height="10"></rect>
                <rect id="矩形备份-104" fill="#778DC3" x="55" y="9" width="1" height="10"></rect>
                <rect id="矩形备份-105" fill="#778DC3" x="57" y="9" width="1" height="10"></rect>
                <rect id="矩形备份-106" fill="#778DC3" x="59" y="9" width="1" height="10"></rect>
                <rect id="矩形备份-107" fill="#778DC3" x="61" y="9" width="1" height="10"></rect>
                <rect id="矩形备份-108" fill="#778DC3" x="63" y="9" width="1" height="10"></rect>
                <rect id="矩形备份-76" fill="#D6DBEC" x="31" y="23" width="1" height="10"></rect>
                <rect id="矩形备份-90" fill="#D6DBEC" x="33" y="23" width="1" height="10"></rect>
                <rect id="矩形备份-91" fill="#D6DBEC" x="35" y="23" width="1" height="10"></rect>
                <rect id="矩形备份-92" fill="#D6DBEC" x="37" y="23" width="1" height="10"></rect>
                <rect id="矩形备份-93" fill="#D6DBEC" x="39" y="23" width="1" height="10"></rect>
                <rect id="矩形备份-94" fill="#D6DBEC" x="41" y="23" width="1" height="10"></rect>
                <rect id="矩形备份-95" fill="#D6DBEC" x="43" y="23" width="1" height="10"></rect>
                <rect id="矩形备份-96" fill="#D6DBEC" x="45" y="23" width="1" height="10"></rect>
                <rect id="矩形备份-97" fill="#D6DBEC" x="47" y="23" width="1" height="10"></rect>
                <rect id="矩形备份-98" fill="#D6DBEC" x="49" y="23" width="1" height="10"></rect>
                <rect id="矩形备份-99" fill="#D6DBEC" x="51" y="23" width="1" height="10"></rect>
                <rect id="矩形备份-100" fill="#D6DBEC" x="53" y="23" width="1" height="10"></rect>
                <rect id="矩形备份-101" fill="#D6DBEC" x="55" y="23" width="1" height="10"></rect>
                <rect id="矩形备份-102" fill="#D6DBEC" x="57" y="23" width="1" height="10"></rect>
                <rect id="矩形备份-103" fill="#D6DBEC" x="59" y="23" width="1" height="10"></rect>
                <rect id="矩形备份-104" fill="#D6DBEC" x="61" y="23" width="1" height="10"></rect>
                <rect id="矩形备份-105" fill="#D6DBEC" x="63" y="23" width="1" height="10"></rect>
                <rect id="矩形备份-106" fill="#D6DBEC" x="65" y="23" width="1" height="10"></rect>
                <rect id="矩形备份-107" fill="#D6DBEC" x="67" y="23" width="1" height="10"></rect>
                <rect id="矩形备份-108" fill="#D6DBEC" x="69" y="23" width="1" height="10"></rect>
                <rect id="矩形备份-109" fill="#D6DBEC" x="71" y="23" width="1" height="10"></rect>
                <rect id="矩形备份-110" fill="#D6DBEC" x="73" y="23" width="1" height="10"></rect>
                <rect id="矩形备份-111" fill="#D6DBEC" x="75" y="23" width="1" height="10"></rect>
                <rect id="矩形备份-112" fill="#D6DBEC" x="77" y="23" width="1" height="10"></rect>
                <rect id="矩形备份-113" fill="#D6DBEC" x="79" y="23" width="1" height="10"></rect>
                <rect id="矩形备份-114" fill="#D6DBEC" x="81" y="23" width="1" height="10"></rect>
                <rect id="矩形备份-115" fill="#D6DBEC" x="83" y="23" width="1" height="10"></rect>
                <rect id="矩形备份-76" fill="#D6DBEC" x="31" y="37" width="1" height="10"></rect>
                <rect id="矩形备份-90" fill="#D6DBEC" x="33" y="37" width="1" height="10"></rect>
                <rect id="矩形备份-91" fill="#D6DBEC" x="35" y="37" width="1" height="10"></rect>
                <rect id="矩形备份-92" fill="#D6DBEC" x="37" y="37" width="1" height="10"></rect>
                <rect id="矩形备份-93" fill="#D6DBEC" x="39" y="37" width="1" height="10"></rect>
                <rect id="矩形备份-94" fill="#D6DBEC" x="41" y="37" width="1" height="10"></rect>
                <rect id="矩形备份-95" fill="#D6DBEC" x="43" y="37" width="1" height="10"></rect>
                <rect id="矩形备份-96" fill="#D6DBEC" x="45" y="37" width="1" height="10"></rect>
                <rect id="矩形备份-97" fill="#D6DBEC" x="47" y="37" width="1" height="10"></rect>
                <rect id="矩形备份-98" fill="#D6DBEC" x="49" y="37" width="1" height="10"></rect>
                <rect id="矩形备份-99" fill="#D6DBEC" x="51" y="37" width="1" height="10"></rect>
                <rect id="矩形备份-100" fill="#D6DBEC" x="53" y="37" width="1" height="10"></rect>
                <rect id="矩形备份-101" fill="#D6DBEC" x="55" y="37" width="1" height="10"></rect>
                <rect id="矩形备份-102" fill="#D6DBEC" x="57" y="37" width="1" height="10"></rect>
                <rect id="矩形备份-103" fill="#D6DBEC" x="59" y="37" width="1" height="10"></rect>
                <rect id="矩形备份-104" fill="#D6DBEC" x="61" y="37" width="1" height="10"></rect>
                <rect id="矩形备份-105" fill="#D6DBEC" x="63" y="37" width="1" height="10"></rect>
                <rect id="矩形备份-106" fill="#D6DBEC" x="65" y="37" width="1" height="10"></rect>
                <rect id="矩形备份-107" fill="#D6DBEC" x="67" y="37" width="1" height="10"></rect>
                <rect id="矩形备份-108" fill="#D6DBEC" x="69" y="37" width="1" height="10"></rect>
                <rect id="矩形备份-109" fill="#D6DBEC" x="71" y="37" width="1" height="10"></rect>
                <rect id="矩形备份-110" fill="#D6DBEC" x="73" y="37" width="1" height="10"></rect>
                <rect id="矩形备份-111" fill="#D6DBEC" x="75" y="37" width="1" height="10"></rect>
                <rect id="矩形备份-112" fill="#D6DBEC" x="77" y="37" width="1" height="10"></rect>
                <rect id="矩形备份-113" fill="#D6DBEC" x="79" y="37" width="1" height="10"></rect>
                <rect id="矩形备份-114" fill="#D6DBEC" x="81" y="37" width="1" height="10"></rect>
                <rect id="矩形备份-115" fill="#D6DBEC" x="83" y="37" width="1" height="10"></rect>
                <path d="M26,43 C25.4486061,43 25,42.5513939 25,42 C25,41.4486061 25.4486061,41 26,41 C26.5513939,41 27,41.4486061 27,42 C27,42.5513939 26.5513939,43 26,43 Z" id="路径" fill="#D6DBEC" fill-rule="nonzero"></path>
                <path d="M26,29 C25.4486061,29 25,28.5513939 25,28 C25,27.4486061 25.4486061,27 26,27 C26.5513939,27 27,27.4486061 27,28 C27,28.5513939 26.5513939,29 26,29 Z" id="路径" fill="#D6DBEC" fill-rule="nonzero"></path>
                <rect id="矩形备份-76" fill="#778DC3" x="25" y="9" width="1" height="10"></rect>
                <rect id="矩形备份-90" fill="#778DC3" x="27" y="9" width="1" height="10"></rect>
                <rect id="矩形备份-91" fill="#778DC3" x="29" y="9" width="1" height="10"></rect>
                <rect id="矩形备份-92" fill="#778DC3" x="31" y="9" width="1" height="10"></rect>
                <rect id="矩形备份-93" fill="#778DC3" x="33" y="9" width="1" height="10"></rect>
                <rect id="矩形备份-94" fill="#778DC3" x="35" y="9" width="1" height="10"></rect>
                <rect id="矩形备份-95" fill="#778DC3" x="37" y="9" width="1" height="10"></rect>
                <rect id="矩形备份-96" fill="#778DC3" x="39" y="9" width="1" height="10"></rect>
                <rect id="矩形备份-97" fill="#778DC3" x="41" y="9" width="1" height="10"></rect>
                <rect id="矩形备份-98" fill="#778DC3" x="43" y="9" width="1" height="10"></rect>
                <rect id="矩形备份-99" fill="#778DC3" x="45" y="9" width="1" height="10"></rect>
                <rect id="矩形备份-100" fill="#778DC3" x="47" y="9" width="1" height="10"></rect>
                <rect id="矩形备份-101" fill="#778DC3" x="49" y="9" width="1" height="10"></rect>
                <rect id="矩形备份-102" fill="#778DC3" x="51" y="9" width="1" height="10"></rect>
                <rect id="矩形备份-103" fill="#778DC3" x="53" y="9" width="1" height="10"></rect>
                <rect id="矩形备份-104" fill="#778DC3" x="55" y="9" width="1" height="10"></rect>
                <rect id="矩形备份-105" fill="#778DC3" x="57" y="9" width="1" height="10"></rect>
                <rect id="矩形备份-106" fill="#778DC3" x="59" y="9" width="1" height="10"></rect>
                <rect id="矩形备份-107" fill="#778DC3" x="61" y="9" width="1" height="10"></rect>
                <rect id="矩形备份-108" fill="#778DC3" x="63" y="9" width="1" height="10"></rect>
            </g>
        </g>
    </g>
</svg>