<?xml version="1.0" encoding="UTF-8"?>
<svg width="105px" height="55px" viewBox="0 0 105 55" version="1.1" xmlns="http://www.w3.org/2000/svg" xmlns:xlink="http://www.w3.org/1999/xlink">
    <title>presentational-bricks.basic-icon[with-arguments]</title>
    <g id="snippet截图" stroke="none" stroke-width="1" fill="none" fill-rule="evenodd">
        <g id="snippet" transform="translate(-8907.000000, -239.000000)">
            <g id="presentational-bricks.basic-icon[with-arguments]" transform="translate(8907.000000, 239.000000)">
                <rect id="矩形备份-46" x="0" y="0" width="105" height="55" rx="4"></rect>
                <rect id="矩形" fill-opacity="0.1" fill="#1A7AFF" x="31" y="6" width="43" height="43" rx="1"></rect>
                <g id="实景酷-笑脸" transform="translate(39.000000, 14.000000)" fill="#778DC3" stroke="#778DC3" stroke-width="0.5">
                    <path d="M13.5,0 C15.321606,0 17.0901283,0.357615894 18.7552773,1.06167219 C20.3645488,1.74058361 21.8061879,2.71285182 23.046668,3.95333195 C24.2843543,5.19381209 25.2594164,6.63824503 25.9383278,8.24472268 C26.6423841,9.90987169 27,11.678394 27,13.5 C27,15.321606 26.6423841,17.0901283 25.9383278,18.7552773 C25.2594164,20.3645488 24.2871482,21.8089818 23.046668,23.046668 C21.8061879,24.2843543 20.361755,25.2594164 18.7552773,25.9383278 C17.0901283,26.6423841 15.321606,27 13.5,27 C11.678394,27 9.90987169,26.6423841 8.24472268,25.9383278 C6.63545116,25.2594164 5.19381209,24.2871482 3.95333195,23.046668 C2.7156457,21.8061879 1.74058361,20.361755 1.06167219,18.7552773 C0.357615894,17.0901283 0,15.321606 0,13.5 C0,11.678394 0.357615894,9.90987169 1.06167219,8.24472268 C1.74058361,6.63545116 2.71285182,5.19381209 3.95333195,3.95333195 C5.19381209,2.7156457 6.63824503,1.74058361 8.24472268,1.06167219 C9.90987169,0.357615894 11.678394,0 13.5,0 Z M13.5,2.0115894 C7.16628725,2.0115894 2.0115894,7.16628725 2.0115894,13.5 C2.0115894,19.8337127 7.16628725,24.9884106 13.5,24.9884106 C19.8337127,24.9884106 24.9884106,19.8337127 24.9884106,13.5 C24.9884106,7.16628725 19.8337127,2.0115894 13.5,2.0115894 Z M17.3136382,17.2549669 C17.4868584,16.7269247 18.0540149,16.4391556 18.5820571,16.6123758 C19.1100993,16.785596 19.3978684,17.3527525 19.2246482,17.8807947 C18.8335058,19.0765728 18.0875414,20.1047185 17.0705712,20.8562707 C16.03125,21.6217922 14.7963576,22.026904 13.5027939,22.026904 C12.256726,22.026904 11.0609478,21.649731 10.0439776,20.9344992 C9.05215232,20.2360306 8.30060017,19.2693502 7.87313742,18.1378311 C7.67477235,17.6181705 7.93739652,17.0370447 8.45705712,16.8414735 C8.97671772,16.6431084 9.55784354,16.9057326 9.75341474,17.4253932 C10.3401283,18.9759934 11.8460265,20.0153146 13.5027939,20.0153146 C15.2433775,20.0153146 16.7744205,18.9061465 17.3136382,17.2549669 Z M8.9459851,7.50993377 C9.50196606,7.50993377 9.9517798,7.95974752 9.9517798,8.51572848 L9.9517798,13.6480753 C9.9517798,14.2040563 9.50196606,14.65387 8.9459851,14.65387 C8.39000414,14.65387 7.9401904,14.2040563 7.9401904,13.6480753 L7.9401904,8.51572848 C7.9401904,7.95974752 8.39000414,7.50993377 8.9459851,7.50993377 Z M18.0009313,7.50993377 C18.5569123,7.50993377 19.006726,7.95974752 19.006726,8.51572848 L19.006726,13.6480753 C19.006726,14.2040563 18.5569123,14.65387 18.0009313,14.65387 C17.4449503,14.65387 16.9951366,14.2040563 16.9951366,13.6480753 L16.9951366,8.51572848 C16.9951366,7.95974752 17.4449503,7.50993377 18.0009313,7.50993377 Z" id="形状结合"></path>
                </g>
            </g>
        </g>
    </g>
</svg>