<?xml version="1.0" encoding="UTF-8"?>
<svg width="16px" height="16px" viewBox="0 0 16 16" version="1.1" xmlns="http://www.w3.org/2000/svg" xmlns:xlink="http://www.w3.org/1999/xlink">
    <title>图标-次要操作备份</title>
    <g id="卡片样式规范" stroke="none" stroke-width="1" fill="none" fill-rule="evenodd">
        <g id="信息类卡片" transform="translate(-172.000000, -3463.000000)" fill-rule="nonzero">
            <g id="内部卡片" transform="translate(0.000000, 784.995045)">
                <g id="基础用法" transform="translate(0.000000, 284.978849)">
                    <g id="基础卡片" transform="translate(0.000000, 1171.919789)">
                        <g id="样式明细" transform="translate(0.000000, 115.991661)">
                            <g id="通用卡片" transform="translate(0.000000, 0.000000)">
                                <g id="基本2" transform="translate(0.000000, 756.958343)">
                                    <g id="默认态" transform="translate(156.000000, 126.989928)">
                                        <g id="基准卡片-完整备份-2" transform="translate(0.000000, 143.166385)">
                                            <g id="扩展2-" transform="translate(0.000000, 66.000000)">
                                                <g id="编组-12" transform="translate(16.000000, 12.000000)">
                                                    <g id="图标-次要操作备份" transform="translate(0.000000, 0.000846)">
                                                        <rect id="矩形" fill-opacity="0.04" fill="#000000" opacity="0" x="0" y="0" width="16" height="15.9987108" rx="4"></rect>
                                                        <rect id="矩形" fill="#D8D8D8" opacity="0" x="1.6" y="1.59987108" width="12.8" height="12.7989687"></rect>
                                                        <path d="M4.8,2.39980662 C5.9045695,2.39980662 6.8,3.29516498 6.8,4.39964548 C6.8,5.29513 6.21138415,6.05314701 5.399923,6.30795543 L5.399923,9.69075539 C6.21138415,9.94556381 6.8,10.7035808 6.8,11.5990653 C6.8,12.7035458 5.9045695,13.5989042 4.8,13.5989042 C3.6954305,13.5989042 2.8,12.7035458 2.8,11.5990653 C2.8,10.7035808 3.38861585,9.94556381 4.200077,9.69075539 L4.200077,6.30795543 C3.38861585,6.05314701 2.8,5.29513 2.8,4.39964548 C2.8,3.29516498 3.6954305,2.39980662 4.8,2.39980662 Z M4.8,10.7991298 C4.3581722,10.7991298 4,11.1572731 4,11.5990653 C4,12.0408575 4.3581722,12.3990009 4.8,12.3990009 C5.2418278,12.3990009 5.6,12.0408575 5.6,11.5990653 C5.6,11.1572731 5.2418278,10.7991298 4.8,10.7991298 Z M4.8,3.59970993 C4.3581722,3.59970993 4,3.95785328 4,4.39964548 C4,4.84143768 4.3581722,5.19958102 4.8,5.19958102 C5.2418278,5.19958102 5.6,4.84143768 5.6,4.39964548 C5.6,3.95785328 5.2418278,3.59970993 4.8,3.59970993 Z M9.48334143,5.98451964 C9.48334143,6.09497659 9.39379838,6.18451964 9.28334143,6.18451964 C9.23417067,6.18451964 9.18672306,6.16640602 9.15006158,6.13363866 L7.86438436,4.98452395 C7.65849395,4.80050289 7.64076535,4.48441719 7.82478642,4.27852678 C7.84075692,4.26065832 7.85799143,4.2439612 7.87635666,4.22856454 L9.1548505,3.1567273 C9.23949628,3.08576372 9.36564259,3.09685534 9.43660618,3.18150112 C9.46679554,3.21751117 9.48334143,3.26300139 9.48334143,3.30999205 L9.483,3.99880662 L11.8,3.99967771 L11.8009338,9.6910731 C12.6118729,9.94619342 13.2,10.7039527 13.2,11.5990653 C13.2,12.7035458 12.3045695,13.5989042 11.2,13.5989042 C10.0954305,13.5989042 9.2,12.7035458 9.2,11.5990653 C9.2,10.7039527 9.78812706,9.94619342 10.5990662,9.6910731 L10.599,5.19880662 L9.483,5.19880662 L9.48334143,5.98451964 Z M11.2,10.7991298 C10.7581722,10.7991298 10.4,11.1572731 10.4,11.5990653 C10.4,12.0408575 10.7581722,12.3990009 11.2,12.3990009 C11.6418278,12.3990009 12,12.0408575 12,11.5990653 C12,11.1572731 11.6418278,10.7991298 11.2,10.7991298 Z" id="形状结合" fill="#000000" opacity="0.449999988"></path>
                                                    </g>
                                                </g>
                                            </g>
                                        </g>
                                    </g>
                                </g>
                            </g>
                        </g>
                    </g>
                </g>
            </g>
        </g>
    </g>
</svg>