<?xml version="1.0" encoding="UTF-8"?>
<svg width="105px" height="59px" viewBox="0 0 105 59" version="1.1" xmlns="http://www.w3.org/2000/svg" xmlns:xlink="http://www.w3.org/1999/xlink">
    <title>presentational-bricks.modal-confirm[error]</title>
    <defs>
        <rect id="path-1" x="18" y="8" width="72" height="39" rx="1"></rect>
        <filter x="-19.4%" y="-25.6%" width="138.9%" height="171.8%" filterUnits="objectBoundingBox" id="filter-2">
            <feOffset dx="0" dy="4" in="SourceAlpha" result="shadowOffsetOuter1"></feOffset>
            <feGaussianBlur stdDeviation="4" in="shadowOffsetOuter1" result="shadowBlurOuter1"></feGaussianBlur>
            <feColorMatrix values="0 0 0 0 0.6   0 0 0 0 0.6   0 0 0 0 0.6  0 0 0 0.5 0" type="matrix" in="shadowBlurOuter1"></feColorMatrix>
        </filter>
    </defs>
    <g id="snippet截图" stroke="none" stroke-width="1" fill="none" fill-rule="evenodd">
        <g id="snippet" transform="translate(-8484.000000, -129.000000)">
            <g id="presentational-bricks.modal-confirm[error]" transform="translate(8484.000000, 129.000000)">
                <rect id="矩形备份-52" x="0" y="0" width="105" height="55" rx="4"></rect>
                <g id="矩形">
                    <use fill="black" fill-opacity="1" filter="url(#filter-2)" xlink:href="#path-1"></use>
                    <use fill="#FFFFFF" fill-rule="evenodd" xlink:href="#path-1"></use>
                </g>
                <rect id="矩形备份-48" fill="#1A7AFF" x="72" y="36" width="14" height="6" rx="1"></rect>
                <rect id="矩形备份-49" fill="#F4F5F9" x="38" y="25" width="48" height="4" rx="1"></rect>
                <rect id="矩形备份-50" fill="#D6DBEC" x="38" y="15" width="26" height="6" rx="1"></rect>
                <g id="通用图标/Warning-Circle-Line" transform="translate(22.000000, 12.000000)">
                    <rect id="矩形" fill="#000000" fill-rule="nonzero" opacity="0" x="0" y="0" width="12" height="12"></rect>
                    <path d="M6,0.75 C8.89921875,0.75 11.25,3.10078125 11.25,6 C11.25,8.89921875 8.89921875,11.25 6,11.25 C3.10078125,11.25 0.75,8.89921875 0.75,6 C0.75,3.10078125 3.10078125,0.75 6,0.75 Z M6,1.640625 C3.59296875,1.640625 1.640625,3.59296875 1.640625,6 C1.640625,8.40703125 3.59296875,10.359375 6,10.359375 C8.40703125,10.359375 10.359375,8.40703125 10.359375,6 C10.359375,3.59296875 8.40703125,1.640625 6,1.640625 Z M7.93828125,4.05234375 C7.98984375,4.05234375 8.03203125,4.09453125 8.03203125,4.14609375 C8.03203125,4.16835937 8.025,4.190625 8.0109375,4.20703125 L6.48632812,6.0234375 L8.00859375,7.83867187 C8.02265625,7.85625 8.03085937,7.87734375 8.03085937,7.89960937 C8.03085937,7.95234375 7.98867187,7.99335937 7.93710938,7.99335937 L7.16367187,7.98984375 L6,6.60234375 L4.83632813,7.99101563 L4.06171875,7.99453125 C4.01015625,7.99453125 3.96796875,7.95234375 3.96796875,7.90078125 C3.96796875,7.87851562 3.97617187,7.85742188 3.99023437,7.83984375 L5.51484375,6.02460937 L3.99023437,4.20820312 C3.97617187,4.190625 3.96796875,4.16953125 3.96796875,4.14726562 C3.96796875,4.09453125 4.01015625,4.05351562 4.06171875,4.05351562 L4.83632812,4.05703125 L6,5.44453125 L7.16484375,4.05585937 Z" id="Check-Circle" fill="#F24C25"></path>
                </g>
            </g>
        </g>
    </g>
</svg>