<?xml version="1.0" encoding="UTF-8"?>
<svg width="105px" height="55px" viewBox="0 0 105 55" version="1.1" xmlns="http://www.w3.org/2000/svg" xmlns:xlink="http://www.w3.org/1999/xlink">
    <title>presentational-bricks-widgets.snipped-of-markdown-display</title>
    <defs>
        <rect id="path-1" x="0" y="0" width="105" height="55" rx="4"></rect>
    </defs>
    <g id="nora" stroke="none" stroke-width="1" fill="none" fill-rule="evenodd">
        <g id="-构件概览图七" transform="translate(-1072.000000, -1489.000000)">
            <g id="presentational-bricks-widgets.snipped-of-markdown-display" transform="translate(1072.000000, 1489.000000)">
                <mask id="mask-2" fill="white">
                    <use xlink:href="#path-1"></use>
                </mask>
                <g id="矩形备份-46"></g>
                <g id="编组-3" mask="url(#mask-2)">
                    <g transform="translate(25.000000, 9.000000)">
                        <rect id="矩形备份-76" fill="#778DC3" fill-rule="evenodd" x="0" y="0" width="1" height="10"></rect>
                        <rect id="矩形备份-90" fill="#778DC3" fill-rule="evenodd" x="2" y="0" width="1" height="10"></rect>
                        <rect id="矩形备份-91" fill="#778DC3" fill-rule="evenodd" x="4" y="0" width="1" height="10"></rect>
                        <rect id="矩形备份-92" fill="#778DC3" fill-rule="evenodd" x="6" y="0" width="1" height="10"></rect>
                        <rect id="矩形备份-93" fill="#778DC3" fill-rule="evenodd" x="8" y="0" width="1" height="10"></rect>
                        <rect id="矩形备份-94" fill="#778DC3" fill-rule="evenodd" x="10" y="0" width="1" height="10"></rect>
                        <rect id="矩形备份-95" fill="#778DC3" fill-rule="evenodd" x="12" y="0" width="1" height="10"></rect>
                        <rect id="矩形备份-96" fill="#778DC3" fill-rule="evenodd" x="14" y="0" width="1" height="10"></rect>
                        <rect id="矩形备份-97" fill="#778DC3" fill-rule="evenodd" x="16" y="0" width="1" height="10"></rect>
                        <rect id="矩形备份-98" fill="#778DC3" fill-rule="evenodd" x="18" y="0" width="1" height="10"></rect>
                        <rect id="矩形备份-99" fill="#778DC3" fill-rule="evenodd" x="20" y="0" width="1" height="10"></rect>
                        <rect id="矩形备份-100" fill="#778DC3" fill-rule="evenodd" x="22" y="0" width="1" height="10"></rect>
                        <rect id="矩形备份-101" fill="#778DC3" fill-rule="evenodd" x="24" y="0" width="1" height="10"></rect>
                        <rect id="矩形备份-102" fill="#778DC3" fill-rule="evenodd" x="26" y="0" width="1" height="10"></rect>
                        <rect id="矩形备份-103" fill="#778DC3" fill-rule="evenodd" x="28" y="0" width="1" height="10"></rect>
                        <rect id="矩形备份-104" fill="#778DC3" fill-rule="evenodd" x="30" y="0" width="1" height="10"></rect>
                        <rect id="矩形备份-105" fill="#778DC3" fill-rule="evenodd" x="32" y="0" width="1" height="10"></rect>
                        <rect id="矩形备份-106" fill="#778DC3" fill-rule="evenodd" x="34" y="0" width="1" height="10"></rect>
                        <rect id="矩形备份-107" fill="#778DC3" fill-rule="evenodd" x="36" y="0" width="1" height="10"></rect>
                        <rect id="矩形备份-108" fill="#778DC3" fill-rule="evenodd" x="38" y="0" width="1" height="10"></rect>
                        <rect id="矩形备份-76" fill="#D6DBEC" fill-rule="evenodd" x="6" y="14" width="1" height="10"></rect>
                        <rect id="矩形备份-90" fill="#D6DBEC" fill-rule="evenodd" x="8" y="14" width="1" height="10"></rect>
                        <rect id="矩形备份-91" fill="#D6DBEC" fill-rule="evenodd" x="10" y="14" width="1" height="10"></rect>
                        <rect id="矩形备份-92" fill="#D6DBEC" fill-rule="evenodd" x="12" y="14" width="1" height="10"></rect>
                        <rect id="矩形备份-93" fill="#D6DBEC" fill-rule="evenodd" x="14" y="14" width="1" height="10"></rect>
                        <rect id="矩形备份-94" fill="#D6DBEC" fill-rule="evenodd" x="16" y="14" width="1" height="10"></rect>
                        <rect id="矩形备份-95" fill="#D6DBEC" fill-rule="evenodd" x="18" y="14" width="1" height="10"></rect>
                        <rect id="矩形备份-96" fill="#D6DBEC" fill-rule="evenodd" x="20" y="14" width="1" height="10"></rect>
                        <rect id="矩形备份-97" fill="#D6DBEC" fill-rule="evenodd" x="22" y="14" width="1" height="10"></rect>
                        <rect id="矩形备份-98" fill="#D6DBEC" fill-rule="evenodd" x="24" y="14" width="1" height="10"></rect>
                        <rect id="矩形备份-99" fill="#D6DBEC" fill-rule="evenodd" x="26" y="14" width="1" height="10"></rect>
                        <rect id="矩形备份-100" fill="#D6DBEC" fill-rule="evenodd" x="28" y="14" width="1" height="10"></rect>
                        <rect id="矩形备份-101" fill="#D6DBEC" fill-rule="evenodd" x="30" y="14" width="1" height="10"></rect>
                        <rect id="矩形备份-102" fill="#D6DBEC" fill-rule="evenodd" x="32" y="14" width="1" height="10"></rect>
                        <rect id="矩形备份-103" fill="#D6DBEC" fill-rule="evenodd" x="34" y="14" width="1" height="10"></rect>
                        <rect id="矩形备份-104" fill="#D6DBEC" fill-rule="evenodd" x="36" y="14" width="1" height="10"></rect>
                        <rect id="矩形备份-105" fill="#D6DBEC" fill-rule="evenodd" x="38" y="14" width="1" height="10"></rect>
                        <rect id="矩形备份-106" fill="#D6DBEC" fill-rule="evenodd" x="40" y="14" width="1" height="10"></rect>
                        <rect id="矩形备份-107" fill="#D6DBEC" fill-rule="evenodd" x="42" y="14" width="1" height="10"></rect>
                        <rect id="矩形备份-108" fill="#D6DBEC" fill-rule="evenodd" x="44" y="14" width="1" height="10"></rect>
                        <rect id="矩形备份-109" fill="#D6DBEC" fill-rule="evenodd" x="46" y="14" width="1" height="10"></rect>
                        <rect id="矩形备份-110" fill="#D6DBEC" fill-rule="evenodd" x="48" y="14" width="1" height="10"></rect>
                        <rect id="矩形备份-111" fill="#D6DBEC" fill-rule="evenodd" x="50" y="14" width="1" height="10"></rect>
                        <rect id="矩形备份-112" fill="#D6DBEC" fill-rule="evenodd" x="52" y="14" width="1" height="10"></rect>
                        <rect id="矩形备份-113" fill="#D6DBEC" fill-rule="evenodd" x="54" y="14" width="1" height="10"></rect>
                        <rect id="矩形备份-114" fill="#D6DBEC" fill-rule="evenodd" x="56" y="14" width="1" height="10"></rect>
                        <rect id="矩形备份-115" fill="#D6DBEC" fill-rule="evenodd" x="58" y="14" width="1" height="10"></rect>
                        <rect id="矩形备份-76" fill="#D6DBEC" fill-rule="evenodd" x="6" y="28" width="1" height="10"></rect>
                        <rect id="矩形备份-90" fill="#D6DBEC" fill-rule="evenodd" x="8" y="28" width="1" height="10"></rect>
                        <rect id="矩形备份-91" fill="#D6DBEC" fill-rule="evenodd" x="10" y="28" width="1" height="10"></rect>
                        <rect id="矩形备份-92" fill="#D6DBEC" fill-rule="evenodd" x="12" y="28" width="1" height="10"></rect>
                        <rect id="矩形备份-93" fill="#D6DBEC" fill-rule="evenodd" x="14" y="28" width="1" height="10"></rect>
                        <rect id="矩形备份-94" fill="#D6DBEC" fill-rule="evenodd" x="16" y="28" width="1" height="10"></rect>
                        <rect id="矩形备份-95" fill="#D6DBEC" fill-rule="evenodd" x="18" y="28" width="1" height="10"></rect>
                        <rect id="矩形备份-96" fill="#D6DBEC" fill-rule="evenodd" x="20" y="28" width="1" height="10"></rect>
                        <rect id="矩形备份-97" fill="#D6DBEC" fill-rule="evenodd" x="22" y="28" width="1" height="10"></rect>
                        <rect id="矩形备份-98" fill="#D6DBEC" fill-rule="evenodd" x="24" y="28" width="1" height="10"></rect>
                        <rect id="矩形备份-99" fill="#D6DBEC" fill-rule="evenodd" x="26" y="28" width="1" height="10"></rect>
                        <rect id="矩形备份-100" fill="#D6DBEC" fill-rule="evenodd" x="28" y="28" width="1" height="10"></rect>
                        <rect id="矩形备份-101" fill="#D6DBEC" fill-rule="evenodd" x="30" y="28" width="1" height="10"></rect>
                        <rect id="矩形备份-102" fill="#D6DBEC" fill-rule="evenodd" x="32" y="28" width="1" height="10"></rect>
                        <rect id="矩形备份-103" fill="#D6DBEC" fill-rule="evenodd" x="34" y="28" width="1" height="10"></rect>
                        <rect id="矩形备份-104" fill="#D6DBEC" fill-rule="evenodd" x="36" y="28" width="1" height="10"></rect>
                        <rect id="矩形备份-105" fill="#D6DBEC" fill-rule="evenodd" x="38" y="28" width="1" height="10"></rect>
                        <rect id="矩形备份-106" fill="#D6DBEC" fill-rule="evenodd" x="40" y="28" width="1" height="10"></rect>
                        <rect id="矩形备份-107" fill="#D6DBEC" fill-rule="evenodd" x="42" y="28" width="1" height="10"></rect>
                        <rect id="矩形备份-108" fill="#D6DBEC" fill-rule="evenodd" x="44" y="28" width="1" height="10"></rect>
                        <rect id="矩形备份-109" fill="#D6DBEC" fill-rule="evenodd" x="46" y="28" width="1" height="10"></rect>
                        <rect id="矩形备份-110" fill="#D6DBEC" fill-rule="evenodd" x="48" y="28" width="1" height="10"></rect>
                        <rect id="矩形备份-111" fill="#D6DBEC" fill-rule="evenodd" x="50" y="28" width="1" height="10"></rect>
                        <rect id="矩形备份-112" fill="#D6DBEC" fill-rule="evenodd" x="52" y="28" width="1" height="10"></rect>
                        <rect id="矩形备份-113" fill="#D6DBEC" fill-rule="evenodd" x="54" y="28" width="1" height="10"></rect>
                        <rect id="矩形备份-114" fill="#D6DBEC" fill-rule="evenodd" x="56" y="28" width="1" height="10"></rect>
                        <rect id="矩形备份-115" fill="#D6DBEC" fill-rule="evenodd" x="58" y="28" width="1" height="10"></rect>
                        <path d="M1,34 C0.448606061,34 0,33.5513939 0,33 C0,32.4486061 0.448606061,32 1,32 C1.55139394,32 2,32.4486061 2,33 C2,33.5513939 1.55139394,34 1,34 Z" id="路径" fill="#D6DBEC" fill-rule="nonzero"></path>
                        <path d="M1,20 C0.448606061,20 0,19.5513939 0,19 C0,18.4486061 0.448606061,18 1,18 C1.55139394,18 2,18.4486061 2,19 C2,19.5513939 1.55139394,20 1,20 Z" id="路径" fill="#D6DBEC" fill-rule="nonzero"></path>
                        <rect id="矩形备份-76" fill="#778DC3" fill-rule="evenodd" x="0" y="0" width="1" height="10"></rect>
                        <rect id="矩形备份-90" fill="#778DC3" fill-rule="evenodd" x="2" y="0" width="1" height="10"></rect>
                        <rect id="矩形备份-91" fill="#778DC3" fill-rule="evenodd" x="4" y="0" width="1" height="10"></rect>
                        <rect id="矩形备份-92" fill="#778DC3" fill-rule="evenodd" x="6" y="0" width="1" height="10"></rect>
                        <rect id="矩形备份-93" fill="#778DC3" fill-rule="evenodd" x="8" y="0" width="1" height="10"></rect>
                        <rect id="矩形备份-94" fill="#778DC3" fill-rule="evenodd" x="10" y="0" width="1" height="10"></rect>
                        <rect id="矩形备份-95" fill="#778DC3" fill-rule="evenodd" x="12" y="0" width="1" height="10"></rect>
                        <rect id="矩形备份-96" fill="#778DC3" fill-rule="evenodd" x="14" y="0" width="1" height="10"></rect>
                        <rect id="矩形备份-97" fill="#778DC3" fill-rule="evenodd" x="16" y="0" width="1" height="10"></rect>
                        <rect id="矩形备份-98" fill="#778DC3" fill-rule="evenodd" x="18" y="0" width="1" height="10"></rect>
                        <rect id="矩形备份-99" fill="#778DC3" fill-rule="evenodd" x="20" y="0" width="1" height="10"></rect>
                        <rect id="矩形备份-100" fill="#778DC3" fill-rule="evenodd" x="22" y="0" width="1" height="10"></rect>
                        <rect id="矩形备份-101" fill="#778DC3" fill-rule="evenodd" x="24" y="0" width="1" height="10"></rect>
                        <rect id="矩形备份-102" fill="#778DC3" fill-rule="evenodd" x="26" y="0" width="1" height="10"></rect>
                        <rect id="矩形备份-103" fill="#778DC3" fill-rule="evenodd" x="28" y="0" width="1" height="10"></rect>
                        <rect id="矩形备份-104" fill="#778DC3" fill-rule="evenodd" x="30" y="0" width="1" height="10"></rect>
                        <rect id="矩形备份-105" fill="#778DC3" fill-rule="evenodd" x="32" y="0" width="1" height="10"></rect>
                        <rect id="矩形备份-106" fill="#778DC3" fill-rule="evenodd" x="34" y="0" width="1" height="10"></rect>
                        <rect id="矩形备份-107" fill="#778DC3" fill-rule="evenodd" x="36" y="0" width="1" height="10"></rect>
                        <rect id="矩形备份-108" fill="#778DC3" fill-rule="evenodd" x="38" y="0" width="1" height="10"></rect>
                    </g>
                </g>
            </g>
        </g>
    </g>
</svg>