<?xml version="1.0" encoding="UTF-8"?>
<svg width="105px" height="55px" viewBox="0 0 105 55" version="1.1" xmlns="http://www.w3.org/2000/svg" xmlns:xlink="http://www.w3.org/1999/xlink">
    <title>presentational-bricks.general-carousel[autoplay]</title>
    <g id="snippet截图" stroke="none" stroke-width="1" fill="none" fill-rule="evenodd">
        <g id="snippet" transform="translate(-7675.000000, -682.000000)">
            <g id="presentational-bricks.general-carousel[autoplay]" transform="translate(7675.000000, 682.000000)">
                <rect id="矩形备份-46" x="0" y="0" width="105" height="55" rx="4"></rect>
                <g id="编组-33" transform="translate(23.000000, 25.000000)" fill="#778DC3">
                    <rect id="矩形" x="0" y="0" width="1" height="7" rx="0.5"></rect>
                    <rect id="矩形备份-150" x="2" y="0" width="1" height="7" rx="0.5"></rect>
                    <rect id="矩形备份-151" x="4" y="0" width="1" height="7" rx="0.5"></rect>
                    <rect id="矩形备份-152" x="6" y="0" width="1" height="7" rx="0.5"></rect>
                    <rect id="矩形备份-153" x="8" y="0" width="1" height="7" rx="0.5"></rect>
                    <rect id="矩形备份-154" x="10" y="0" width="1" height="7" rx="0.5"></rect>
                    <rect id="矩形备份-155" x="12" y="0" width="1" height="7" rx="0.5"></rect>
                    <rect id="矩形备份-156" x="14" y="0" width="1" height="7" rx="0.5"></rect>
                    <rect id="矩形备份-157" x="16" y="0" width="1" height="7" rx="0.5"></rect>
                </g>
                <g id="编组-33" transform="translate(64.000000, 25.000000)" fill="#778DC3">
                    <rect id="矩形备份-150" x="0" y="0" width="1" height="7" rx="0.5"></rect>
                    <rect id="矩形备份-151" x="2" y="0" width="1" height="7" rx="0.5"></rect>
                    <rect id="矩形备份-152" x="4" y="0" width="1" height="7" rx="0.5"></rect>
                    <rect id="矩形备份-153" x="6" y="0" width="1" height="7" rx="0.5"></rect>
                    <rect id="矩形备份-154" x="8" y="0" width="1" height="7" rx="0.5"></rect>
                    <rect id="矩形备份-155" x="10" y="0" width="1" height="7" rx="0.5"></rect>
                    <rect id="矩形备份-156" x="12" y="0" width="1" height="7" rx="0.5"></rect>
                    <rect id="矩形备份-157" x="14" y="0" width="1" height="7" rx="0.5"></rect>
                    <rect id="矩形备份-158" x="16" y="0" width="1" height="7" rx="0.5"></rect>
                </g>
                <polyline id="路径-2" stroke="#778DC3" stroke-linecap="round" stroke-linejoin="round" transform="translate(14.000000, 28.315789) rotate(-270.000000) translate(-14.000000, -28.315789) " points="10 26 14.2105263 30.6315789 18 26"></polyline>
                <polyline id="路径-2" stroke="#778DC3" stroke-linecap="round" stroke-linejoin="round" transform="translate(89.000000, 28.315789) scale(-1, 1) rotate(-270.000000) translate(-89.000000, -28.315789) " points="85 26 89.2105263 30.6315789 93 26"></polyline>
            </g>
        </g>
    </g>
</svg>