<?xml version="1.0" encoding="UTF-8"?>
<svg width="105px" height="55px" viewBox="0 0 105 55" version="1.1" xmlns="http://www.w3.org/2000/svg" xmlns:xlink="http://www.w3.org/1999/xlink">
    <title>presentational-bricks.brick-rate</title>
    <g id="nora" stroke="none" stroke-width="1" fill="none" fill-rule="evenodd">
        <g id="-构件概览图四" transform="translate(-1623.000000, -103.000000)">
            <g id="presentational-bricks.brick-rate" transform="translate(1623.000000, 103.000000)">
                <rect id="矩形备份-46" x="0" y="0" width="105" height="55" rx="4"></rect>
                <polygon id="星形" stroke="#F24C25" stroke-width="2" stroke-linejoin="round" points="18 30.5 13.8855032 32.663119 14.6713022 28.0815595 11.3426044 24.836881 15.9427516 24.1684405 18 20 20.0572484 24.1684405 24.6573956 24.836881 21.3286978 28.0815595 22.1144968 32.663119"></polygon>
                <polygon id="星形备份" stroke="#F24C25" stroke-width="2" stroke-linejoin="round" points="36 30.5 31.8855032 32.663119 32.6713022 28.0815595 29.3426044 24.836881 33.9427516 24.1684405 36 20 38.0572484 24.1684405 42.6573956 24.836881 39.3286978 28.0815595 40.1144968 32.663119"></polygon>
                <polygon id="星形备份-2" stroke="#F24C25" stroke-width="2" stroke-linejoin="round" points="54 30.5 49.8855032 32.663119 50.6713022 28.0815595 47.3426044 24.836881 51.9427516 24.1684405 54 20 56.0572484 24.1684405 60.6573956 24.836881 57.3286978 28.0815595 58.1144968 32.663119"></polygon>
                <polygon id="星形备份-3" stroke="#F4F5F9" stroke-width="2" stroke-linejoin="round" points="90 30.5 85.8855032 32.663119 86.6713022 28.0815595 83.3426044 24.836881 87.9427516 24.1684405 90 20 92.0572484 24.1684405 96.6573956 24.836881 93.3286978 28.0815595 94.1144968 32.663119"></polygon>
                <polygon id="星形备份-4" stroke="#F4F5F9" stroke-width="2" stroke-linejoin="round" points="72 30.5 67.8855032 32.663119 68.6713022 28.0815595 65.3426044 24.836881 69.9427516 24.1684405 72 20 74.0572484 24.1684405 78.6573956 24.836881 75.3286978 28.0815595 76.1144968 32.663119"></polygon>
                <path d="M72,19 L72,22.259 L70.8394877,24.6110062 C70.6938257,24.9061497 70.4122601,25.1107191 70.0865499,25.1580475 L70.0865499,25.1580475 L67.491,25.535 L69.3693139,27.3654731 C69.5755392,27.5664931 69.6836592,27.8450427 69.6701938,28.1288578 L69.6701938,28.1288578 L69.6569105,28.2506045 L69.213,30.834 L71.5346589,29.6148686 C71.6803209,29.5382895 71.8401604,29.5 72,29.5 L72,31.63 L68.3508444,33.5482504 C67.6505637,33.9164097 66.8374772,33.3655288 66.8868668,32.6041915 L66.8868668,32.6041915 L66.8998949,32.4940739 L67.596,28.43 L64.6445927,25.5529674 C64.0793384,25.0019806 64.3494828,24.0614826 65.0850298,23.8702043 L65.0850298,23.8702043 L65.1988061,23.847274 L69.279,23.254 L71.1032639,19.5574343 C71.2866708,19.1858114 71.6433354,19 72,19 Z" id="形状结合" fill="#F24C25" fill-rule="nonzero"></path>
            </g>
        </g>
    </g>
</svg>