<?xml version="1.0" encoding="UTF-8"?>
<svg width="105px" height="55px" viewBox="0 0 105 55" version="1.1" xmlns="http://www.w3.org/2000/svg" xmlns:xlink="http://www.w3.org/1999/xlink">
    <title>presentational-bricks.basic-icon</title>
    <g id="nora" stroke="none" stroke-width="1" fill="none" fill-rule="evenodd">
        <g id="-构件概览图四" transform="translate(-1045.000000, -103.000000)">
            <g id="presentational-bricks.basic-icon" transform="translate(1045.000000, 103.000000)">
                <rect id="矩形备份-46" x="0" y="0" width="105" height="55" rx="4"></rect>
                <g id="实景酷-笑脸" transform="translate(35.000000, 10.000000)" fill="#778DC3" stroke="#778DC3" stroke-width="0.5">
                    <path d="M17.5,0 C19.8613411,0 22.15387,0.463576159 24.3123965,1.37624172 C26.3984892,2.25631209 28.2672806,3.51665977 29.8753104,5.12468957 C31.4797185,6.73271937 32.7436879,8.60513245 33.6237583,10.6876035 C34.5364238,12.84613 35,15.1386589 35,17.5 C35,19.8613411 34.5364238,22.15387 33.6237583,24.3123965 C32.7436879,26.3984892 31.4833402,28.2709023 29.8753104,29.8753104 C28.2672806,31.4797185 26.3948675,32.7436879 24.3123965,33.6237583 C22.15387,34.5364238 19.8613411,35 17.5,35 C15.1386589,35 12.84613,34.5364238 10.6876035,33.6237583 C8.60151076,32.7436879 6.73271937,31.4833402 5.12468957,29.8753104 C3.52028146,28.2672806 2.25631209,26.3948675 1.37624172,24.3123965 C0.463576159,22.15387 0,19.8613411 0,17.5 C0,15.1386589 0.463576159,12.84613 1.37624172,10.6876035 C2.25631209,8.60151076 3.51665977,6.73271937 5.12468957,5.12468957 C6.73271937,3.52028146 8.60513245,2.25631209 10.6876035,1.37624172 C12.84613,0.463576159 15.1386589,0 17.5,0 Z M17.5,2.60761589 C9.28963162,2.60761589 2.60761589,9.28963162 2.60761589,17.5 C2.60761589,25.7103684 9.28963162,32.3923841 17.5,32.3923841 C25.7103684,32.3923841 32.3923841,25.7103684 32.3923841,17.5 C32.3923841,9.28963162 25.7103684,2.60761589 17.5,2.60761589 Z M22.4436051,22.3675497 C22.6681498,21.6830505 23.4033526,21.3100166 24.0878518,21.5345613 C24.772351,21.759106 25.1453849,22.4943088 24.9208402,23.1788079 C24.4138038,24.7288907 23.4468129,26.0616722 22.1285182,27.0359065 C20.78125,28.0282492 19.1804636,28.553394 17.5036217,28.553394 C15.8883485,28.553394 14.3382657,28.0644661 13.019971,27.1373137 C11.7342715,26.2318916 10.7600373,24.9787873 10.2059189,23.5120033 C9.94877897,22.8383692 10.2892177,22.0850579 10.9628518,21.8315397 C11.6364859,21.5743998 12.3897972,21.9148386 12.6433154,22.5884727 C13.40387,24.5985099 15.3559603,25.9457781 17.5036217,25.9457781 C19.7599338,25.9457781 21.7446192,24.5079677 22.4436051,22.3675497 Z M11.5966474,9.73509934 C12.3173634,9.73509934 12.9004553,10.3181912 12.9004553,11.0389073 L12.9004553,11.0389073 L12.9004553,17.6919495 C12.9004553,18.4126656 12.3173634,18.9957575 11.5966474,18.9957575 C10.8759313,18.9957575 10.2928394,18.4126656 10.2928394,17.6919495 L10.2928394,17.6919495 L10.2928394,11.0389073 C10.2928394,10.3181912 10.8759313,9.73509934 11.5966474,9.73509934 Z M23.3345406,9.73509934 C24.0552566,9.73509934 24.6383485,10.3181912 24.6383485,11.0389073 L24.6383485,11.0389073 L24.6383485,17.6919495 C24.6383485,18.4126656 24.0552566,18.9957575 23.3345406,18.9957575 C22.6138245,18.9957575 22.0307326,18.4126656 22.0307326,17.6919495 L22.0307326,17.6919495 L22.0307326,11.0389073 C22.0307326,10.3181912 22.6138245,9.73509934 23.3345406,9.73509934 Z" id="形状结合"></path>
                </g>
            </g>
        </g>
    </g>
</svg>