<?xml version="1.0" encoding="UTF-8"?>
<svg width="105px" height="55px" viewBox="0 0 105 55" version="1.1" xmlns="http://www.w3.org/2000/svg" xmlns:xlink="http://www.w3.org/1999/xlink">
    <title>presentational-bricks.table-transfer</title>
    <g id="nora" stroke="none" stroke-width="1" fill="none" fill-rule="evenodd">
        <g id="-构件概览图九" transform="translate(-48.000000, -202.000000)">
            <g id="presentational-bricks.table-transfer" transform="translate(48.000000, 202.000000)">
                <rect id="矩形" x="0" y="0" width="105" height="55" rx="4"></rect>
                <g id="presentational-bricks.general-transfer" transform="translate(9.000000, 6.000000)">
                    <g id="编组-25" transform="translate(40.000000, 12.000000)">
                        <rect id="矩形备份-155" fill="#1A7AFF" x="0" y="0" width="6" height="6" rx="1"></rect>
                        <polyline id="路径-2备份" stroke="#FFFFFF" stroke-linecap="round" stroke-linejoin="round" points="2.5 1.5 4.3 3 2.5 4.5"></polyline>
                    </g>
                    <g id="编组-25" transform="translate(28.000000, 39.000000)"></g>
                    <g id="编组-25备份" transform="translate(43.000000, 24.000000) scale(-1, 1) translate(-43.000000, -24.000000) translate(40.000000, 21.000000)">
                        <rect id="矩形备份-155" fill="#F4F5F9" x="0" y="0" width="6" height="6" rx="1"></rect>
                        <polyline id="路径-2备份" stroke="#778DC3" stroke-linecap="round" stroke-linejoin="round" points="2.5 1.5 4.3 3 2.5 4.5"></polyline>
                    </g>
                    <g id="编组-26">
                        <rect id="矩形备份-60" stroke="#F4F5F9" x="-0.5" y="-0.5" width="38" height="44" rx="1"></rect>
                        <g id="编组" transform="translate(3.000000, 19.000000)">
                            <line x1="0" y1="8.5" x2="31" y2="8.5" id="路径" stroke="#F4F5F9"></line>
                            <line x1="0" y1="13.5" x2="31" y2="13.5" id="路径备份-3" stroke="#F4F5F9"></line>
                            <line x1="0" y1="18.5" x2="31" y2="18.5" id="路径备份-4" stroke="#F4F5F9"></line>
                            <path d="M1,0 L30,0 C30.5522847,-1.01453063e-16 31,0.44771525 31,1 L31,4 L31,4 L0,4 L0,1 C-6.76353751e-17,0.44771525 0.44771525,1.01453063e-16 1,0 Z" id="矩形备份-48" fill="#D6DBEC"></path>
                            <rect id="矩形备份-62" fill="#778DC3" x="6" y="1" width="7" height="2" rx="1"></rect>
                            <rect id="矩形" stroke="#D6DBEC" x="2" y="5" width="2" height="2" rx="0.5"></rect>
                            <rect id="矩形备份" stroke="#D6DBEC" x="2" y="10" width="2" height="2" rx="0.5"></rect>
                            <rect id="矩形备份-2" stroke="#D6DBEC" x="2" y="15" width="2" height="2" rx="0.5"></rect>
                            <rect id="矩形备份-62" fill="#778DC3" x="20" y="1" width="7" height="2" rx="1"></rect>
                            <rect id="矩形备份-50" fill="#D6DBEC" x="6" y="5" width="7" height="2" rx="1"></rect>
                            <rect id="矩形备份-57" fill="#D6DBEC" x="20" y="5" width="7" height="2" rx="1"></rect>
                            <rect id="矩形备份-52" fill="#D6DBEC" x="6" y="10" width="7" height="2" rx="1"></rect>
                            <rect id="矩形备份-61" fill="#D6DBEC" x="20" y="10" width="7" height="2" rx="1"></rect>
                            <rect id="矩形备份-54" fill="#D6DBEC" x="6" y="15" width="7" height="2" rx="1"></rect>
                            <rect id="矩形备份-65" fill="#D6DBEC" x="20" y="15" width="7" height="2" rx="1"></rect>
                            <rect id="矩形备份-155" fill="#1A7AFF" x="26" y="20" width="3" height="3" rx="1"></rect>
                            <polyline id="路径-2备份" stroke="#D6DBEC" stroke-width="0.5" stroke-linecap="round" stroke-linejoin="round" points="30.1 20.5 31.3 21.5 30.1 22.5"></polyline>
                            <polyline id="路径-2备份-3" stroke="#D6DBEC" stroke-width="0.5" stroke-linecap="round" stroke-linejoin="round" transform="translate(23.700000, 21.500000) scale(-1, 1) translate(-23.700000, -21.500000) " points="23.1 20.5 24.3 21.5 23.1 22.5"></polyline>
                        </g>
                        <g id="编组-7" transform="translate(3.000000, 11.000000)">
                            <rect id="矩形备份-76" stroke="#F4F5F9" x="0" y="0" width="31" height="6" rx="1"></rect>
                            <g id="通用图标/search-Line" transform="translate(25.000000, 1.000000)">
                                <rect id="矩形" fill="#000000" fill-rule="nonzero" opacity="0" x="0" y="0" width="4" height="4"></rect>
                                <path d="M3.553125,3.33789062 L2.53867187,2.3234375 C2.69609375,2.11992188 2.78125,1.87109375 2.78125,1.609375 C2.78125,1.29609375 2.65898437,1.00234375 2.43789062,0.780859375 C2.21679687,0.559375 1.92226562,0.4375 1.609375,0.4375 C1.29648437,0.4375 1.00195312,0.559765625 0.780859375,0.780859375 C0.559375,1.00195312 0.4375,1.29609375 0.4375,1.609375 C0.4375,1.92226563 0.559765625,2.21679688 0.780859375,2.43789063 C1.00195312,2.659375 1.29609375,2.78125 1.609375,2.78125 C1.87109375,2.78125 2.11953125,2.69609375 2.32304687,2.5390625 L3.3375,3.553125 C3.35,3.565625 3.3703125,3.565625 3.3828125,3.553125 L3.553125,3.38320313 C3.565625,3.37070312 3.565625,3.35039063 3.553125,3.33789062 Z M2.228125,2.228125 C2.0625,2.39335938 1.84296875,2.484375 1.609375,2.484375 C1.37578125,2.484375 1.15625,2.39335938 0.990625,2.228125 C0.825390625,2.0625 0.734375,1.84296875 0.734375,1.609375 C0.734375,1.37578125 0.825390625,1.15585937 0.990625,0.990625 C1.15625,0.825390625 1.37578125,0.734375 1.609375,0.734375 C1.84296875,0.734375 2.06289062,0.825 2.228125,0.990625 C2.39335937,1.15625 2.484375,1.37578125 2.484375,1.609375 C2.484375,1.84296875 2.39335937,2.06289063 2.228125,2.228125 Z" id="形状" fill="#595959"></path>
                            </g>
                        </g>
                        <rect id="矩形备份-60" fill="#F4F5F9" x="0" y="0" width="37" height="8" rx="1"></rect>
                        <g id="编组-3" transform="translate(8.000000, 2.000000)" fill="#778DC3">
                            <rect id="矩形备份-92" x="0" y="0" width="1" height="4"></rect>
                            <rect id="矩形备份-93" x="2" y="0" width="1" height="4"></rect>
                            <rect id="矩形备份-94" x="4" y="0" width="1" height="4"></rect>
                            <rect id="矩形备份-95" x="6" y="0" width="1" height="4"></rect>
                            <rect id="矩形备份-96" x="8" y="0" width="1" height="4"></rect>
                            <rect id="矩形备份-97" x="10" y="0" width="1" height="4"></rect>
                            <rect id="矩形备份-98" x="12" y="0" width="1" height="4"></rect>
                            <rect id="矩形备份-99" x="14" y="0" width="1" height="4"></rect>
                            <rect id="矩形备份-100" x="16" y="0" width="1" height="4"></rect>
                        </g>
                        <polyline id="路径-2" stroke="#778DC3" stroke-width="0.8" stroke-linecap="round" stroke-linejoin="round" transform="translate(4.000000, 4.157895) rotate(-360.000000) translate(-4.000000, -4.157895) " points="2 3 4.10526316 5.31578947 6 3"></polyline>
                        <line x1="1.0269563e-14" y1="8" x2="37" y2="8" id="路径-29" stroke="#F4F5F9"></line>
                    </g>
                    <g id="编组-26备份" transform="translate(49.000000, 0.000000)">
                        <rect id="矩形备份-60" stroke="#F4F5F9" x="-0.5" y="-0.5" width="38" height="44" rx="1"></rect>
                        <g id="编组" transform="translate(3.000000, 19.000000)">
                            <line x1="0" y1="8.5" x2="31" y2="8.5" id="路径" stroke="#F4F5F9"></line>
                            <line x1="0" y1="13.5" x2="31" y2="13.5" id="路径备份-3" stroke="#F4F5F9"></line>
                            <line x1="0" y1="18.5" x2="31" y2="18.5" id="路径备份-4" stroke="#F4F5F9"></line>
                            <path d="M1,0 L30,0 C30.5522847,-1.01453063e-16 31,0.44771525 31,1 L31,4 L31,4 L0,4 L0,1 C-6.76353751e-17,0.44771525 0.44771525,1.01453063e-16 1,0 Z" id="矩形备份-48" fill="#D6DBEC"></path>
                            <rect id="矩形备份-62" fill="#778DC3" x="6" y="1" width="7" height="2" rx="1"></rect>
                            <rect id="矩形" stroke="#D6DBEC" x="2" y="5" width="2" height="2" rx="0.5"></rect>
                            <rect id="矩形备份" stroke="#D6DBEC" x="2" y="10" width="2" height="2" rx="0.5"></rect>
                            <rect id="矩形备份-2" stroke="#D6DBEC" x="2" y="15" width="2" height="2" rx="0.5"></rect>
                            <rect id="矩形备份-62" fill="#778DC3" x="20" y="1" width="7" height="2" rx="1"></rect>
                            <rect id="矩形备份-50" fill="#D6DBEC" x="6" y="5" width="7" height="2" rx="1"></rect>
                            <rect id="矩形备份-66" fill="#D6DBEC" x="20" y="5" width="7" height="2" rx="1"></rect>
                            <rect id="矩形备份-52" fill="#D6DBEC" x="6" y="10" width="7" height="2" rx="1"></rect>
                            <rect id="矩形备份-67" fill="#D6DBEC" x="20" y="10" width="7" height="2" rx="1"></rect>
                            <rect id="矩形备份-54" fill="#D6DBEC" x="6" y="15" width="7" height="2" rx="1"></rect>
                            <rect id="矩形备份-68" fill="#D6DBEC" x="20" y="15" width="7" height="2" rx="1"></rect>
                            <rect id="矩形备份-155" fill="#1A7AFF" x="26" y="20" width="3" height="3" rx="1"></rect>
                            <polyline id="路径-2备份" stroke="#D6DBEC" stroke-width="0.5" stroke-linecap="round" stroke-linejoin="round" points="30.1 20.5 31.3 21.5 30.1 22.5"></polyline>
                            <polyline id="路径-2备份-3" stroke="#D6DBEC" stroke-width="0.5" stroke-linecap="round" stroke-linejoin="round" transform="translate(23.700000, 21.500000) scale(-1, 1) translate(-23.700000, -21.500000) " points="23.1 20.5 24.3 21.5 23.1 22.5"></polyline>
                        </g>
                        <g id="编组-7" transform="translate(3.000000, 11.000000)">
                            <rect id="矩形备份-76" stroke="#F4F5F9" x="0" y="0" width="31" height="6" rx="1"></rect>
                            <g id="通用图标/search-Line" transform="translate(25.000000, 1.000000)">
                                <rect id="矩形" fill="#000000" fill-rule="nonzero" opacity="0" x="0" y="0" width="4" height="4"></rect>
                                <path d="M3.553125,3.33789062 L2.53867187,2.3234375 C2.69609375,2.11992188 2.78125,1.87109375 2.78125,1.609375 C2.78125,1.29609375 2.65898437,1.00234375 2.43789062,0.780859375 C2.21679687,0.559375 1.92226562,0.4375 1.609375,0.4375 C1.29648437,0.4375 1.00195312,0.559765625 0.780859375,0.780859375 C0.559375,1.00195312 0.4375,1.29609375 0.4375,1.609375 C0.4375,1.92226563 0.559765625,2.21679688 0.780859375,2.43789063 C1.00195312,2.659375 1.29609375,2.78125 1.609375,2.78125 C1.87109375,2.78125 2.11953125,2.69609375 2.32304687,2.5390625 L3.3375,3.553125 C3.35,3.565625 3.3703125,3.565625 3.3828125,3.553125 L3.553125,3.38320313 C3.565625,3.37070312 3.565625,3.35039063 3.553125,3.33789062 Z M2.228125,2.228125 C2.0625,2.39335938 1.84296875,2.484375 1.609375,2.484375 C1.37578125,2.484375 1.15625,2.39335938 0.990625,2.228125 C0.825390625,2.0625 0.734375,1.84296875 0.734375,1.609375 C0.734375,1.37578125 0.825390625,1.15585937 0.990625,0.990625 C1.15625,0.825390625 1.37578125,0.734375 1.609375,0.734375 C1.84296875,0.734375 2.06289062,0.825 2.228125,0.990625 C2.39335937,1.15625 2.484375,1.37578125 2.484375,1.609375 C2.484375,1.84296875 2.39335937,2.06289063 2.228125,2.228125 Z" id="形状" fill="#595959"></path>
                            </g>
                        </g>
                        <rect id="矩形备份-60" fill="#F4F5F9" x="0" y="0" width="37" height="8" rx="1"></rect>
                        <polyline id="路径-2备份-2" stroke="#778DC3" stroke-width="0.8" stroke-linecap="round" stroke-linejoin="round" transform="translate(4.000000, 4.157895) rotate(-360.000000) translate(-4.000000, -4.157895) " points="2 3 4.10526316 5.31578947 6 3"></polyline>
                        <g id="编组-3" transform="translate(8.000000, 2.000000)" fill="#778DC3">
                            <rect id="矩形备份-92" x="0" y="0" width="1" height="4"></rect>
                            <rect id="矩形备份-93" x="2" y="0" width="1" height="4"></rect>
                            <rect id="矩形备份-94" x="4" y="0" width="1" height="4"></rect>
                            <rect id="矩形备份-95" x="6" y="0" width="1" height="4"></rect>
                            <rect id="矩形备份-96" x="8" y="0" width="1" height="4"></rect>
                            <rect id="矩形备份-97" x="10" y="0" width="1" height="4"></rect>
                            <rect id="矩形备份-98" x="12" y="0" width="1" height="4"></rect>
                            <rect id="矩形备份-99" x="14" y="0" width="1" height="4"></rect>
                            <rect id="矩形备份-100" x="16" y="0" width="1" height="4"></rect>
                        </g>
                        <line x1="1.0269563e-14" y1="8" x2="37" y2="8" id="路径-29" stroke="#F4F5F9"></line>
                    </g>
                </g>
            </g>
        </g>
    </g>
</svg>