<?xml version="1.0" encoding="UTF-8"?>
<svg width="105px" height="55px" viewBox="0 0 105 55" version="1.1" xmlns="http://www.w3.org/2000/svg" xmlns:xlink="http://www.w3.org/1999/xlink">
    <title>presentational-bricks.brick-result</title>
    <g id="lydia" stroke="none" stroke-width="1" fill="none" fill-rule="evenodd">
        <g id="构件概览图二" transform="translate(-1485.000000, -367.000000)">
            <g id="presentational-bricks.brick-result" transform="translate(1485.000000, 367.000000)">
                <rect id="矩形备份-82" x="0" y="0" width="105" height="55" rx="4"></rect>
                <rect id="矩形备份-43" fill="#1A7AFF" x="39" y="41" width="12" height="5" rx="1"></rect>
                <rect id="矩形备份-43" stroke="#D6DBEC" x="53" y="41" width="12" height="5" rx="1"></rect>
                <rect id="矩形备份-71" fill="#F4F5F9" x="31" y="28" width="44" height="4" rx="1"></rect>
                <rect id="矩形备份-71" fill="#F4F5F9" x="37" y="34" width="32" height="4" rx="1"></rect>
                <path d="M52.96875,9 C48.5703125,9 45,12.5703125 45,16.96875 C45,21.3671875 48.5703125,24.9375 52.96875,24.9375 C57.3671875,24.9375 60.9375,21.3671875 60.9375,16.96875 C60.9375,12.5703125 57.3671875,9 52.96875,9 Z M57.534375,14.9046875 L52.378125,20.0609375 C52.1390625,20.3 51.7796875,20.33125 51.5015625,20.171875 C51.453125,20.140625 51.40625,20.1078125 51.3578125,20.0609375 L48.3953125,17.096875 C48.1171875,16.8171875 48.1171875,16.35625 48.3953125,16.0765625 C48.6734375,15.796875 49.1359375,15.796875 49.415625,16.0765625 L51.86875,18.53125 L56.515625,13.884375 C56.79375,13.60625 57.25625,13.60625 57.5359375,13.884375 C57.821875,14.1640625 57.821875,14.6171875 57.534375,14.9046875 Z" id="形状" fill="#52C41A" fill-rule="nonzero"></path>
            </g>
        </g>
    </g>
</svg>