<?xml version="1.0" encoding="UTF-8"?>
<svg width="105px" height="55px" viewBox="0 0 105 55" version="1.1" xmlns="http://www.w3.org/2000/svg" xmlns:xlink="http://www.w3.org/1999/xlink">
    <title>技术类通用图标</title>
    <g id="nora" stroke="none" stroke-width="1" fill="none" fill-rule="evenodd">
        <g id="-构件概览图四" transform="translate(-401.000000, -371.000000)">
            <g id="技术类通用图标" transform="translate(401.000000, 371.000000)">
                <rect id="矩形备份-46" x="0" y="0" width="105" height="55" rx="4"></rect>
                <g id="设置" transform="translate(36.000000, 10.000000)" fill="#778DC3">
                    <path d="M31.1191085,17.5000187 C31.1191085,16.6272839 31.0271573,15.9943684 31.0271573,15.9943684 C30.9435619,15.4188618 31.2873438,14.7101844 31.79108,14.4195961 L33.6960934,13.3207322 C34.1998668,13.0301065 34.3738841,12.3804048 34.0828481,11.8768925 L30.4695187,5.62543898 C30.1784828,5.12192664 29.5281469,4.94764826 29.0243361,5.23812467 L27.1217847,6.33508621 C26.617974,6.62559991 25.8300283,6.57128714 25.3708316,6.21441188 C25.3708316,6.21441188 24.862843,5.81963703 24.1241369,5.3935279 C23.3808426,4.96514329 22.7596402,4.71219345 22.7596402,4.71219345 C22.221026,4.49289066 21.7802942,3.83763082 21.7802942,3.25604388 L21.7802942,1.05742066 C21.7802942,0.475833725 21.3044605,0 20.7228735,0 L13.4988631,0 C12.9172762,0 12.4414425,0.475833688 12.4414425,1.05742062 L12.4414425,3.25608114 C12.4414425,3.83763078 12.000748,4.49289063 11.4620965,4.71223071 C11.4620965,4.71223071 10.840894,4.96514326 10.0998752,5.39128971 C9.35893099,5.81967432 8.85090503,6.21444916 8.85090503,6.21444916 C8.39170835,6.57132443 7.6038746,6.62545072 7.10017575,6.33471317 L5.19717671,5.23629682 C4.69351519,4.9455593 4.04340312,5.11972578 3.75251637,5.62334998 L0.140902909,11.8766687 C-0.149946511,12.3802556 0.0241826394,13.0301812 0.527844167,13.3209187 L2.43088049,14.419335 C2.93454202,14.7100725 3.27824944,15.4188245 3.19465398,15.9943311 C3.19465398,15.9943311 3.10270273,16.6272839 3.10270273,17.4999814 C3.10270273,18.3749544 3.19465398,19.0079444 3.19465398,19.0079444 C3.2782494,19.5834884 2.93443011,20.2920538 2.43065664,20.5825302 L0.528105232,21.6794917 C0.0242945088,21.9699681 -0.149834678,22.6196699 0.141126648,23.1232195 L3.7547172,29.3767619 C4.04571585,29.8802743 4.69586521,30.0544034 5.19956403,29.7637032 L7.10260035,28.6652868 C7.60626188,28.3745866 8.39353609,28.4294217 8.85206134,28.7871922 C8.85206134,28.7871922 9.31797252,29.1507073 10.0338866,29.5699901 C10.7931464,30.014303 11.4624321,30.2872471 11.4624321,30.2872471 C12.0009717,30.5068856 12.4415543,31.1623692 12.4415543,31.7439562 L12.4415543,33.9425794 C12.4415543,34.5241663 12.917388,35 13.498975,35 L20.722948,35 C21.304535,35 21.7803687,34.5241663 21.7803687,33.9425794 L21.7803687,31.7439562 C21.7803687,31.1623692 22.2211005,30.5072213 22.7597893,30.2880304 C22.7597893,30.2880304 23.3763289,30.0371322 24.1127968,29.6132985 C24.8560538,29.1849139 25.3689291,28.7859612 25.3689291,28.7859612 C25.8279766,28.4288994 26.6157357,28.374512 27.1195091,28.6651003 L29.0244852,29.7639643 C29.5282587,30.0545526 30.1784454,29.8802742 30.4692948,29.37665 L34.0809456,23.1233687 C34.3718323,22.6197444 34.1975913,21.9700054 33.6937805,21.679529 L31.7911546,20.5825302 C31.2873438,20.2920538 30.9435245,19.5834884 31.0271572,19.0079444 C31.0271573,19.0079444 31.1191085,18.3749916 31.1191085,17.5000187 Z M17.1108497,23.3333085 C13.8869608,23.3333085 11.2740907,20.7219678 11.2740907,17.4999814 C11.2740907,14.2779949 13.8869608,11.6666542 17.1108497,11.6666542 C20.3347759,11.6666542 22.9476459,14.2779949 22.9476459,17.4999814 C22.9476459,20.7219678 20.3347759,23.3333085 17.1108497,23.3333085 Z" id="形状"></path>
                </g>
            </g>
        </g>
    </g>
</svg>