<svg version="1.1" id="图层_1" xmlns="http://www.w3.org/2000/svg" x="0" y="0" viewBox="0 0 126 99.8" xml:space="preserve"><style>.st0{fill:#474747}.st1{fill:#00a7ae}.st2{fill:#0083c8}</style><path class="st0" d="M5.6 89.7V69.8h13.9v3.1H9.2v4.9h9.3v3H9.2v5.8h11v3.1H5.6zm22.7-15.4c1.1 0 2.1.1 2.9.4.8.3 1.4.7 1.9 1.2s.8 1.1 1 1.9c.2.7.3 1.5.3 2.4v9.1c-.6.1-1.3.3-2.4.4-1.1.2-2.3.3-3.6.3-.9 0-1.7-.1-2.5-.3-.7-.2-1.4-.4-1.9-.8s-.9-.9-1.2-1.5c-.3-.6-.4-1.4-.4-2.3 0-.9.2-1.6.5-2.2.3-.6.8-1.1 1.4-1.5.6-.4 1.2-.6 2-.8.8-.2 1.5-.3 2.4-.3.4 0 .8 0 1.2.1s.9.1 1.4.3v-.6c0-.4 0-.8-.1-1.1-.1-.3-.3-.7-.5-.9-.3-.3-.6-.5-.9-.6-.4-.2-.9-.2-1.5-.2-.8 0-1.5 0-2.2.2-.7.1-1.2.3-1.6.4l-.4-2.8c.4-.2 1.1-.3 1.9-.5.4-.2 1.3-.3 2.3-.3zm.3 13c1.1 0 1.9 0 2.4-.2v-3.8c-.2 0-.5-.1-.8-.2-.3-.1-.8-.1-1.2-.1-.4 0-.8 0-1.1.1-.4 0-.7.2-1.1.3-.3.2-.6.4-.8.6-.2.3-.3.6-.3 1 0 .8.3 1.4.8 1.7.5.4 1.2.6 2.1.6zm13.8-.1c.9 0 1.6-.1 2-.3.4-.2.6-.6.6-1.1 0-.5-.2-.9-.7-1.2-.5-.3-1.2-.7-2.2-1.1-.6-.2-1.2-.5-1.7-.7-.5-.3-1-.6-1.4-.9-.4-.3-.7-.8-.9-1.2s-.3-1.1-.3-1.8c0-1.4.5-2.5 1.5-3.2 1-.8 2.4-1.2 4.2-1.2.9 0 1.7.1 2.5.3.8.2 1.4.3 1.8.5l-.6 2.8c-.4-.2-.9-.3-1.5-.5-.6-.1-1.3-.2-2.1-.2-.7 0-1.3.1-1.7.3-.4.3-.6.6-.6 1.1 0 .3 0 .5.1.6.1.2.2.4.4.5.2.2.5.3.8.5.3.2.8.3 1.2.5.8.3 1.5.6 2.1.9s1 .6 1.4 1c.4.4.6.8.8 1.3.2.5.3 1.1.3 1.7 0 1.5-.5 2.5-1.6 3.2-1.1.7-2.6 1.1-4.5 1.1-1.3 0-2.4-.1-3.2-.3-.8-.2-1.4-.4-1.7-.5l.6-2.9c.5.2 1.1.4 1.8.6.8.1 1.6.2 2.6.2zM64 74.7c-1.5 5.7-3.3 10.9-5.4 15.5-.4.9-.8 1.6-1.2 2.2-.4.6-.9 1.2-1.4 1.6-.5.4-1.1.7-1.7.9-.6.2-1.3.3-2.1.3-.6 0-1.1 0-1.6-.2-.5-.1-.9-.3-1.2-.4l.6-2.8c.7.3 1.4.4 2.1.4.9 0 1.6-.2 2.1-.6.5-.4.9-1.1 1.3-2-1.1-2.1-2.1-4.4-3.2-6.9-1-2.5-1.9-5.1-2.7-7.9h3.7c.2.8.4 1.7.7 2.6.3.9.6 1.9.9 2.9.3 1 .7 1.9 1 2.9.4.9.7 1.8 1.1 2.7.6-1.7 1.2-3.5 1.7-5.4.5-1.9 1-3.8 1.5-5.6l3.8-.2zm38.6 7.5c0 1.1-.1 2.2-.4 3.2-.3.9-.7 1.8-1.3 2.5-.6.7-1.2 1.2-2.1 1.6-.9.4-1.8.5-2.9.5-.7 0-1.4-.1-2-.3s-1.1-.3-1.5-.6V95H89V75.2c.7-.2 1.6-.4 2.6-.6 1-.2 2.1-.3 3.2-.3 1.2 0 2.3.2 3.2.6.9.3 1.7.9 2.4 1.6.6.7 1.1 1.5 1.5 2.5.4.9.7 2 .7 3.2zm-3.6.1c0-1.5-.3-2.7-1-3.6-.7-.9-1.8-1.3-3.4-1.3h-1c-.3 0-.7.1-1 .2v8.5c.3.2.7.4 1.2.6.5.2 1 .3 1.6.3 1.2 0 2.2-.4 2.8-1.3.5-.8.8-1.9.8-3.4zm10.9 4.9c.9 0 1.6-.1 2-.3s.6-.6.6-1.1c0-.5-.2-.9-.7-1.2-.5-.3-1.2-.7-2.2-1.1-.6-.2-1.2-.5-1.7-.7-.5-.3-1-.6-1.4-.9-.4-.3-.7-.8-.9-1.2-.2-.5-.3-1.1-.3-1.8 0-1.4.5-2.5 1.5-3.2 1-.8 2.4-1.2 4.2-1.2.9 0 1.7.1 2.5.3.8.2 1.4.3 1.8.5l-.6 2.8c-.4-.2-.9-.3-1.5-.5-.6-.1-1.3-.2-2.1-.2-.7 0-1.3.1-1.7.3-.4.3-.6.6-.6 1.1 0 .3 0 .5.1.6.1.2.2.4.4.5.2.2.5.3.8.5.3.2.8.3 1.2.5.8.3 1.5.6 2.1.9.6.3 1 .6 1.4 1 .4.4.6.8.8 1.3.2.5.3 1.1.3 1.7 0 1.5-.5 2.5-1.6 3.2-1.1.7-2.6 1.1-4.5 1.1-1.3 0-2.4-.1-3.2-.3-.8-.2-1.4-.4-1.7-.5l.6-2.9c.5.2 1.1.4 1.8.6.9.1 1.7.2 2.6.2z"/><path class="st1" d="M71.5 72.5l.4 2.1c1.3-1.1 3.1-1.6 4.9-1.4 1.1.1 2.1.5 3 1.1l2.3-.4.4-2.2c-1.5-1.1-3.2-1.9-5.2-2.2-3.1-.4-6 .7-8.2 2.6l2.4.4z"/><path class="st2" d="M83.5 75.3l-2.3.4c1 1.3 1.5 3 1.3 4.8-.1 1-.4 1.8-.9 2.7l.4 2.4 2.2.4c1-1.4 1.7-3.1 2-5 .3-3-.6-5.8-2.4-7.9l-.3 2.2zm-14.9 8.8l2.1-.4c-1-1.3-1.5-3-1.3-4.8.1-1 .5-1.9 1-2.7l-.4-2.3-2.3-.4c-1.1 1.4-1.7 3.1-2 5-.3 3 .6 5.9 2.5 8l.4-2.4z"/><path class="st1" d="M80.7 87l-.4-2.2c-1.4 1.1-3.1 1.7-5 1.5-1.1-.1-2.1-.5-3-1.1l-2.2.4-.4 2.4c1.5 1.1 3.2 1.9 5.1 2.1 3.1.4 6.1-.7 8.2-2.7l-2.3-.4z"/><path class="st0" d="M117.8 73.2v-2h1.3c.1 0 .2.1.2.2s.1.2.1.3c0 .1 0 .3-.1.3-.1.1-.2.2-.4.2.1 0 .1.1.2.1.1.1.1.2.2.3l.3.6h-.3l-.3-.4c-.1-.1-.1-.2-.2-.3l-.1-.1h-.5v.9l-.4-.1zm.2-1.1h.9c.1 0 .1-.1.2-.1s0-.1 0-.2 0-.2-.1-.2-.2-.1-.3-.1h-.7v.6z"/><path class="st0" d="M118.6 74c-1 0-1.9-.9-1.9-1.9s.9-1.9 1.9-1.9 1.9.9 1.9 1.9c-.1 1.1-.9 1.9-1.9 1.9zm0-3.4c-.9 0-1.6.7-1.6 1.6s.7 1.6 1.6 1.6 1.6-.7 1.6-1.6-.7-1.6-1.6-1.6z"/><path class="st2" d="M59.5 61.5c-8.6 0-15.7-7-15.7-15.7v-3.5c0-2.6 2.1-4.7 4.7-4.7s4.7 2.1 4.7 4.7v3.5c0 3.4 2.8 6.2 6.2 6.2 3.4 0 6.2-2.8 6.2-6.2v-3.5c0-2.6 2.1-4.7 4.7-4.7s4.7 2.1 4.7 4.7v3.5c.2 8.6-6.8 15.7-15.5 15.7z"/><path class="st1" d="M88.5 22.7c-1.2 0-2.4.5-3.2 1.3-1.5.9-3.2 1.5-5.2 1.5s-3.4-.6-4.8-1.5c-.4-.6-.9-1.1-1.5-1.5-.9-1.4-1.5-2.8-1.5-4.8s.6-3.8 1.5-5.2c.8-.9 1.3-2 1.3-3.2 0-2.6-2.1-4.7-4.7-4.7s-4.7 2.1-4.7 4.7c0 1.2.5 2.4 1.3 3.2.9 1.5 1.5 3.2 1.5 5.2s-.6 3.4-1.5 4.8c-.6.4-1.1.9-1.5 1.5-1.5.9-4 1.5-6 1.5s-4.5-.6-6-1.5c-.4-.6-.9-1.1-1.5-1.5-.9-1.4-1.5-2.8-1.5-4.8s.6-3.8 1.5-5.2c.8-.9 1.3-2 1.3-3.2 0-2.6-2.1-4.7-4.7-4.7S44 6.7 44 9.3c0 1.2.5 2.4 1.3 3.2.9 1.4 1.5 3.2 1.5 5.2s-.6 3.4-1.5 4.8c-.6.4-1.1.9-1.5 1.5-1.4.9-2.8 1.5-4.8 1.5s-3.8-.6-5.2-1.5c-.9-.8-2-1.3-3.2-1.3-2.6 0-4.7 2.1-4.7 4.7s2.1 4.7 4.7 4.7c1.2 0 2.4-.5 3.2-1.3 1.4-.9 3.2-1.5 5.2-1.5s3.4.6 4.8 1.5c1.1 1.5 2.9 2.6 4.9 2.6 2 0 3.8-1 4.9-2.6 1.5-.9 4-1.5 6-1.5s4.5.6 6 1.5c1.1 1.5 2.9 2.6 4.9 2.6s3.8-1 4.9-2.6c1.4-.9 2.8-1.5 4.8-1.5s3.8.6 5.2 1.5c.9.8 2 1.3 3.2 1.3 2.6 0 4.7-2.1 4.7-4.7s-2.2-4.7-4.8-4.7z"/></svg>